<svg width="50" height="84" viewBox="0 0 50 84" fill="none" xmlns="http://www.w3.org/2000/svg">
<path fill-rule="evenodd" clip-rule="evenodd" d="M24.6086 7.62519C23.6452 6.49432 22.9931 5.10843 23.1021 3.55549C23.416 -0.918959 29.6446 0.0653619 30.8562 2.32368C32.0678 4.58199 31.9238 10.3104 30.3579 10.714C29.7335 10.875 28.4032 10.4807 27.0492 9.66461L27.8991 15.6769H22.8811L24.6086 7.62519Z" fill="#B28B67"/>
<path fill-rule="evenodd" clip-rule="evenodd" d="M27.2999 4.04971C27.492 6.72536 28.0001 8.06319 28.8242 8.06319C30.0605 8.06319 31.1093 7.27837 31.6518 7.27837C32.0472 7.27837 31.9589 7.77321 31.6968 8.14009C31.4806 8.44278 30.4275 8.73454 30.4275 9.20381C30.4275 9.67308 31.2595 9.31003 31.2595 9.58835C31.2595 10.0487 31.4057 10.9143 30.6067 10.9143C29.7981 10.9143 27.4796 10.6196 27.0823 9.41946C26.8259 8.64492 26.6601 7.03992 26.5849 4.60446C26.5358 4.59864 26.4859 4.59564 26.4353 4.59564C25.7425 4.59564 25.1808 5.15729 25.1808 5.85013C25.1808 6.20185 25.3255 6.51976 25.5587 6.74755C25.2684 7.15727 24.9431 7.58527 24.5704 8.02692C23.1699 7.18672 22.1307 4.72714 23.4999 2.36438C23.8783 1.20689 24.735 0.588638 25.7469 0.301562C26.5665 -0.0412875 27.4173 -0.0799443 28.1356 0.125591C29.5435 0.246355 30.8007 0.675673 31.157 0.930634C31.157 2.26358 30.8987 2.65906 28.6927 2.6242C28.1506 2.91047 27.7339 3.40343 27.2999 4.04971Z" fill="#191847"/>
<path fill-rule="evenodd" clip-rule="evenodd" d="M21.2085 33.0308L28.7887 59.6316L34.3194 79.2378H38.3532L32.4761 33.0308H21.2085Z" fill="#191847"/>
<path fill-rule="evenodd" clip-rule="evenodd" d="M19.1812 33.0308C19.0059 46.7411 18.408 54.2191 18.2239 55.4648C18.0398 56.7104 15.2563 64.6348 9.87329 79.2378H14.0521C20.905 65.2287 24.7305 57.3043 25.5285 55.4648C26.3266 53.6252 28.7894 46.1472 32.4988 33.0308H19.1812Z" fill="#2F3676"/>
<path fill-rule="evenodd" clip-rule="evenodd" d="M9.49976 83.0013L9.70884 78.6106H14.0996C16.1815 80.0742 18.8996 81.259 22.2537 82.165V83.0013H14.3086L11.5906 82.5831V83.0013H9.49976Z" fill="#191847"/>
<path fill-rule="evenodd" clip-rule="evenodd" d="M33.7532 83.0013L33.9623 78.6106H38.353C40.4349 80.0742 43.153 81.259 46.5072 82.165V83.0013H38.5621L35.844 82.5831V83.0013H33.7532Z" fill="#191847"/>
<path fill-rule="evenodd" clip-rule="evenodd" d="M38.8463 29.6037L45.1578 34.9545C46.9282 35.5676 48.3934 36.2788 49.5534 37.0881C49.8211 37.3687 50.1299 37.9206 48.9502 37.7465C47.7705 37.5723 46.5219 37.4422 46.3299 37.8353C46.138 38.2284 46.8219 38.7624 46.4529 39.2851C46.2069 39.6335 45.2288 38.6482 43.5186 36.3292L37.1213 33.1365L38.8463 29.6037ZM10.2666 27.2883L13.9698 27.8261C9.9947 36.4507 7.86362 41.0118 7.57652 41.5096C6.93056 42.6296 7.69026 44.5803 7.98724 45.613C6.48637 46.0464 6.9657 43.7275 5.06794 44.3059C3.33576 44.8338 1.90634 46.0305 0.190767 44.6075C-0.0201525 44.4325 -0.197826 43.8604 0.472572 43.5271C2.14278 42.6966 4.59503 41.1769 4.97622 40.6168C5.49605 39.8531 7.25949 35.4102 10.2666 27.2883Z" fill="#B28B67"/>
<path fill-rule="evenodd" clip-rule="evenodd" d="M25.7446 12.1918L28.0392 11.433C31.1519 19.2088 35.7942 26.7322 43.5504 33.087L41.6324 36.3961C34.8158 32.3807 28.363 29.2614 25.7446 23.2361C24.8657 21.2138 25.6729 14.6098 25.7446 12.1918Z" fill="#C5CFD6"/>
<path fill-rule="evenodd" clip-rule="evenodd" d="M17.863 34.076C24.4362 34.7729 29.61 34.7729 33.3845 34.076C33.8521 33.9896 33.9259 33.2067 33.709 32.6753C30.3319 24.4006 28.0161 17.1804 28.0161 11.433C27.3964 11.7454 26.312 11.7922 24.7627 11.5734C20.5991 17.4964 18.6853 24.2922 17.863 34.076Z" fill="#323337"/>
<path fill-rule="evenodd" clip-rule="evenodd" d="M23.7276 11.0771H25.4628C25.8668 13.4533 27.1411 45.6304 31.075 56.1563H9.78939C10.2509 46.5137 13.8911 34.9307 17.5786 25.2378C14.3179 28.2217 11.4759 33.2776 9.0527 40.4055L5.06567 39.3821C8.03016 26.6079 14.1251 17.2188 23.3506 11.2149C23.3706 11.1687 23.3905 11.1228 23.4103 11.0771H23.5638C23.6204 11.0408 23.677 11.0047 23.7337 10.9686L23.7276 11.0771Z" fill="#DDE3E9"/>
</svg>
