<svg width="51" height="90" viewBox="0 0 51 90" fill="none" xmlns="http://www.w3.org/2000/svg">
<path fill-rule="evenodd" clip-rule="evenodd" d="M33.1193 37.7318C32.7731 43.0949 10.4718 58.8846 10.3417 59.3276C10.2838 59.5245 12.5977 65.7486 17.2832 78L15.3337 78.8599C8.14693 65.8848 4.73809 58.706 5.10723 57.3235C5.63573 55.3441 11.4035 48.8326 22.4106 37.789L33.1193 37.7318Z" fill="#B28B67"/>
<path fill-rule="evenodd" clip-rule="evenodd" d="M16.7702 75.2331L13.5874 76.5483C6.87597 67.9527 4.24526 60.8605 4.72494 57.247C5.04472 54.8379 10.7926 48.3373 21.9686 37.7449L33.3475 37.7449C32.9593 50.1651 12.2887 59.3749 12.0123 59.9041C11.7358 60.4334 14.4567 65.6171 16.7702 75.2331Z" fill="#2F3676"/>
<path fill-rule="evenodd" clip-rule="evenodd" d="M18.0055 77.5897C18.4034 78.12 18.6511 78.5375 18.7484 78.8423C18.8669 79.213 18.9854 79.7765 19.1042 80.5326C18.7268 80.6892 15.335 82.0959 8.92875 84.7529C8.34615 83.8664 8.32702 83.2653 8.87136 82.9496C9.41569 82.6339 9.86605 82.3659 10.2224 82.1456L14.1845 77.7815C14.2607 77.6976 14.3823 77.6999 14.456 77.7868C14.4572 77.7883 14.4585 77.7898 14.4597 77.7913L15.0321 78.5055C15.6491 78.5672 16.1224 78.5297 16.4521 78.3929C16.72 78.2818 17.0506 78.0051 17.4439 77.5627L17.4439 77.5627C17.5949 77.3929 17.838 77.3947 17.9869 77.5667C17.9934 77.5741 17.9996 77.5818 18.0055 77.5897Z" fill="#E4E4E4"/>
<path fill-rule="evenodd" clip-rule="evenodd" d="M30.5551 37.7318L40.4897 64.8042L50.2539 87.6917H47.9502L22.7462 37.7318H30.5551Z" fill="#997659"/>
<path fill-rule="evenodd" clip-rule="evenodd" d="M50.3917 86.6565C50.6065 87.3099 50.7139 87.7988 50.7139 88.1231C50.7139 88.5176 50.6562 89.0933 50.5408 89.8502C50.1392 89.8502 46.5297 89.8502 39.7123 89.8502C39.4309 88.7901 39.5934 88.2178 40.1996 88.1333C40.8059 88.0488 41.3096 87.9725 41.7106 87.9044L46.7435 85.3476C46.8404 85.2984 46.9539 85.348 46.9971 85.4584C46.9978 85.4602 46.9985 85.4621 46.9992 85.4641L47.3227 86.3583C47.884 86.6567 48.34 86.8059 48.6909 86.8059C48.976 86.8059 49.3698 86.6747 49.8721 86.4123L49.8721 86.4123C50.0649 86.3116 50.2928 86.408 50.3812 86.6277C50.385 86.6372 50.3885 86.6468 50.3917 86.6565Z" fill="#E4E4E4"/>
<path fill-rule="evenodd" clip-rule="evenodd" d="M49.3721 82.9371L44.2532 84.0267C40.2954 77.4218 23.7316 50.3393 21.9155 37.7318H33.3112C39.3759 46.8458 45.5994 76.2229 49.3721 82.9371Z" fill="#5C63AB"/>
<path fill-rule="evenodd" clip-rule="evenodd" d="M27.001 11.3883C27.6104 10.0064 27.8862 8.44678 27.4472 6.91167C26.1823 2.48859 20.8496 5.05576 20.2673 7.63496C19.6851 10.2142 21.0746 15.9421 22.5586 15.9519C23.1504 15.9558 24.2489 15.2223 25.2755 14.0583L25.8421 20.3235L30.313 19.0533L27.001 11.3883Z" fill="#B28B67"/>
<path fill-rule="evenodd" clip-rule="evenodd" d="M20.0684 8.77511C20.0482 8.46796 20.0849 8.1101 20.1112 7.8066C20.1452 7.41535 20.2447 7.04303 20.3654 6.68447C20.5927 6.00942 20.9026 5.37009 21.2759 4.80648C21.9578 3.77698 22.9457 3.01424 24.0471 2.85788C24.6032 2.77893 25.1781 2.86261 25.7088 3.12297C26.1883 3.35821 26.6885 3.76291 27.2184 3.65165C27.795 3.53057 28.1916 2.81673 28.5704 2.33782C28.9976 1.7979 29.4809 1.35559 30.0565 1.07349C31.0208 0.600986 32.049 0.716265 32.9456 1.45088C33.8996 2.23262 34.7536 3.53394 34.5568 4.9848C34.5202 5.2545 34.4495 5.4932 34.3207 5.71098C34.2025 5.9107 34.0062 6.14324 33.9991 6.41073C33.9916 6.69504 34.2627 6.98209 34.3911 7.20022C34.5752 7.51273 34.7435 7.84785 34.7934 8.23019C34.8753 8.8581 34.6622 9.54027 34.3902 10.0456C34.1133 10.5598 33.7136 10.9231 33.2555 11.1684C32.9496 11.3321 32.6295 11.4655 32.2965 11.5312C32.1312 11.5639 31.9768 11.5536 31.8107 11.5578C31.6491 11.5619 31.5737 11.6321 31.4647 11.7637C30.9581 12.3751 30.3472 12.7295 29.6368 12.8618C29.0373 12.9735 28.325 13.0051 27.7463 12.6866C27.1036 12.3329 26.9618 11.6337 26.9243 10.8542C26.8079 10.9662 26.4509 11.1165 26.6054 10.7581C26.6667 10.6162 26.8204 10.5218 26.9168 10.4212C27.0291 10.304 27.1382 10.1628 27.2104 10.0032C27.5017 9.35871 26.8551 8.39927 26.3047 8.36727C25.4869 8.31975 25.5823 9.58224 25.1084 10.0505C24.8359 10.3197 24.4556 10.1656 24.1667 9.97999C23.7797 9.73134 23.4684 9.34471 23.1846 8.94191C22.9508 8.61022 22.7264 8.27025 22.4901 7.94125C22.3798 7.7876 22.022 7.3663 22.1045 7.1337C21.5332 7.16576 20.9827 7.59358 20.5871 8.0619C20.4236 8.2555 20.3093 8.4502 20.2594 8.72414C20.2487 8.78283 20.2346 8.95231 20.1755 8.97589C20.0654 9.01981 20.0734 8.85228 20.0684 8.77511Z" fill="#191847"/>
<path fill-rule="evenodd" clip-rule="evenodd" d="M14.8074 35.8387L8.76237 41.0589C7.10942 41.6001 5.73162 42.2599 4.62896 43.0383C4.36992 43.3155 4.06025 43.8725 5.15036 43.7556C6.24047 43.6387 7.39173 43.5714 7.54882 43.9905C7.7059 44.4097 7.05308 44.9277 7.36626 45.4913C7.57505 45.867 8.51939 44.8957 10.1993 42.5775L16.2192 39.6058L14.8074 35.8387ZM38.32 35.5471L34.3089 35.6447C36.9246 44.6618 38.3355 49.4458 38.5414 49.9966C39.0047 51.236 38.0938 53.1556 37.7075 54.1852C39.0269 54.8234 38.8497 52.3662 40.5145 53.2046C42.0341 53.9698 43.2029 55.3878 44.9258 54.1347C45.1376 53.9806 45.3636 53.4119 44.7899 52.9824C43.3607 51.9124 41.2959 50.0309 41.0112 49.4038C40.623 48.5485 39.7259 43.9296 38.32 35.5471Z" fill="#B28B67"/>
<path fill-rule="evenodd" clip-rule="evenodd" d="M26.6276 16.6875L24.9628 16.3977C18.8965 22.5527 16.5444 34.1923 9.08943 40.4818L10.9455 42.9994C24.0136 40.9003 27.0431 26.6996 26.6276 16.6875Z" fill="#E87613"/>
<path fill-rule="evenodd" clip-rule="evenodd" d="M34.226 40.1965C27.5705 40.3289 22.6748 40.4263 19.5389 40.4887C18.8678 40.502 18.9775 39.4007 19.066 38.8443C20.0876 32.4227 24.3527 25.4376 24.2132 16.3283L28.4381 15.4907C32.0401 21.8112 33.3724 29.6547 34.226 40.1965Z" fill="#DDE3E9"/>
<path fill-rule="evenodd" clip-rule="evenodd" d="M33.8241 21.6663C34.4363 21.4535 34.9164 20.9761 35.2643 20.234C36.7642 17.0352 36.1783 15.302 34.5148 14.7616C32.8512 14.2212 31.3936 15.4315 28.7571 15.4839C28.6137 15.4868 28.4825 15.4996 28.3635 15.5224L27.0386 15.6346C23.4575 30.3328 22.5575 40.1096 24.3386 44.965L35.8985 44.7351C36.6112 46.5324 37.2899 48.043 37.9348 49.2669L41.0846 49.2042C41.2146 38.3299 38.7944 29.1506 33.8241 21.6663Z" fill="#FF9B21"/>
<path fill-rule="evenodd" clip-rule="evenodd" d="M33.2662 37.2755C32.9555 40.7319 32.4029 43.2469 31.6085 44.8206L35.8985 44.7353C35.0672 42.6388 34.1898 40.1522 33.2662 37.2755Z" fill="black" fill-opacity="0.1"/>
</svg>
