<svg width="593" height="268" viewBox="0 0 593 268" fill="none" xmlns="http://www.w3.org/2000/svg">
<rect width="20.1017" height="2.01017" fill="#C4C4C4"/>
<rect y="265.342" width="20.1017" height="2.01017" fill="#C4C4C4"/>
<rect x="30.1526" width="20.1017" height="2.01017" fill="#C4C4C4"/>
<rect x="30.1526" y="265.342" width="20.1017" height="2.01017" fill="#C4C4C4"/>
<rect x="60.3051" width="20.1017" height="2.01017" fill="#C4C4C4"/>
<rect x="60.3051" y="265.342" width="20.1017" height="2.01017" fill="#C4C4C4"/>
<rect x="90.4576" width="20.1017" height="2.01017" fill="#C4C4C4"/>
<rect x="90.4576" y="265.342" width="20.1017" height="2.01017" fill="#C4C4C4"/>
<rect x="120.61" width="20.1017" height="2.01017" fill="#C4C4C4"/>
<rect x="120.61" y="265.342" width="20.1017" height="2.01017" fill="#C4C4C4"/>
<rect x="150.763" width="20.1017" height="2.01017" fill="#C4C4C4"/>
<rect x="150.763" y="265.342" width="20.1017" height="2.01017" fill="#C4C4C4"/>
<rect x="180.915" width="20.1017" height="2.01017" fill="#C4C4C4"/>
<rect x="180.915" y="265.342" width="20.1017" height="2.01017" fill="#C4C4C4"/>
<rect x="211.068" width="20.1017" height="2.01017" fill="#C4C4C4"/>
<rect x="211.068" y="265.342" width="20.1017" height="2.01017" fill="#C4C4C4"/>
<rect x="241.22" width="20.1017" height="2.01017" fill="#C4C4C4"/>
<rect x="241.22" y="265.342" width="20.1017" height="2.01017" fill="#C4C4C4"/>
<rect x="271.373" width="20.1017" height="2.01017" fill="#C4C4C4"/>
<rect x="271.373" y="265.342" width="20.1017" height="2.01017" fill="#C4C4C4"/>
<rect x="301.525" width="20.1017" height="2.01017" fill="#C4C4C4"/>
<rect x="301.525" y="265.342" width="20.1017" height="2.01017" fill="#C4C4C4"/>
<rect x="331.678" width="20.1017" height="2.01017" fill="#C4C4C4"/>
<rect x="331.678" y="265.342" width="20.1017" height="2.01017" fill="#C4C4C4"/>
<rect x="2.01013" width="20.1017" height="2.01017" transform="rotate(90 2.01013 0)" fill="#C4C4C4"/>
<rect x="593" width="20.1017" height="2.01017" transform="rotate(90 593 0)" fill="#C4C4C4"/>
<rect x="361.831" width="20.1017" height="2.01017" fill="#C4C4C4"/>
<rect x="361.831" y="265.342" width="20.1017" height="2.01017" fill="#C4C4C4"/>
<rect x="2.01013" y="30.1523" width="20.1017" height="2.01017" transform="rotate(90 2.01013 30.1523)" fill="#C4C4C4"/>
<rect x="593" y="30.1523" width="20.1017" height="2.01017" transform="rotate(90 593 30.1523)" fill="#C4C4C4"/>
<rect x="391.983" width="20.1017" height="2.01017" fill="#C4C4C4"/>
<rect x="391.983" y="265.342" width="20.1017" height="2.01017" fill="#C4C4C4"/>
<rect x="2.01013" y="60.3052" width="20.1017" height="2.01017" transform="rotate(90 2.01013 60.3052)" fill="#C4C4C4"/>
<rect x="593" y="60.3052" width="20.1017" height="2.01017" transform="rotate(90 593 60.3052)" fill="#C4C4C4"/>
<rect x="422.136" width="20.1017" height="2.01017" fill="#C4C4C4"/>
<rect x="422.136" y="265.342" width="20.1017" height="2.01017" fill="#C4C4C4"/>
<rect x="2.01013" y="90.4575" width="20.1017" height="2.01017" transform="rotate(90 2.01013 90.4575)" fill="#C4C4C4"/>
<rect x="593" y="90.4575" width="20.1017" height="2.01017" transform="rotate(90 593 90.4575)" fill="#C4C4C4"/>
<rect x="452.288" width="20.1017" height="2.01017" fill="#C4C4C4"/>
<rect x="452.288" y="265.342" width="20.1017" height="2.01017" fill="#C4C4C4"/>
<rect x="2.01013" y="122.62" width="20.1017" height="2.01017" transform="rotate(90 2.01013 122.62)" fill="#C4C4C4"/>
<rect x="593" y="122.62" width="20.1017" height="2.01017" transform="rotate(90 593 122.62)" fill="#C4C4C4"/>
<rect x="482.441" width="20.1017" height="2.01017" fill="#C4C4C4"/>
<rect x="482.441" y="265.342" width="20.1017" height="2.01017" fill="#C4C4C4"/>
<rect x="2.01013" y="152.773" width="20.1017" height="2.01017" transform="rotate(90 2.01013 152.773)" fill="#C4C4C4"/>
<rect x="593" y="152.773" width="20.1017" height="2.01017" transform="rotate(90 593 152.773)" fill="#C4C4C4"/>
<rect x="512.593" width="20.1017" height="2.01017" fill="#C4C4C4"/>
<rect x="512.593" y="265.342" width="20.1017" height="2.01017" fill="#C4C4C4"/>
<rect x="2.01013" y="182.925" width="20.1017" height="2.01017" transform="rotate(90 2.01013 182.925)" fill="#C4C4C4"/>
<rect x="593" y="182.925" width="20.1017" height="2.01017" transform="rotate(90 593 182.925)" fill="#C4C4C4"/>
<rect x="542.746" width="20.1017" height="2.01017" fill="#C4C4C4"/>
<rect x="542.746" y="265.342" width="20.1017" height="2.01017" fill="#C4C4C4"/>
<rect x="2.01013" y="213.078" width="20.1017" height="2.01017" transform="rotate(90 2.01013 213.078)" fill="#C4C4C4"/>
<rect x="593" y="213.078" width="20.1017" height="2.01017" transform="rotate(90 593 213.078)" fill="#C4C4C4"/>
<rect x="572.898" width="20.1017" height="2.01017" fill="#C4C4C4"/>
<rect x="572.898" y="265.342" width="20.1017" height="2.01017" fill="#C4C4C4"/>
<rect x="2.01013" y="247.251" width="20.1017" height="2.01017" transform="rotate(90 2.01013 247.251)" fill="#C4C4C4"/>
<rect x="593" y="247.251" width="20.1017" height="2.01017" transform="rotate(90 593 247.251)" fill="#C4C4C4"/>
</svg>
