<svg width="290" height="442" viewBox="0 0 290 442" fill="none" xmlns="http://www.w3.org/2000/svg">
<g opacity="0.2" filter="url(#filter0_d)">
<path fill-rule="evenodd" clip-rule="evenodd" d="M186.552 183.515C184.633 209.6 61.0363 286.395 60.3151 288.55C59.9946 289.507 72.8184 319.779 98.7863 379.366L87.982 383.548C48.1516 320.442 29.2594 285.527 31.3052 278.802C34.2342 269.175 66.2002 237.506 127.203 183.794L186.552 183.515Z" fill="#B28B67"/>
<path fill-rule="evenodd" clip-rule="evenodd" d="M95.9435 365.907L78.3038 372.304C41.1081 330.498 26.5283 296.004 29.1867 278.429C30.959 266.712 62.8146 235.095 124.753 183.578L187.817 183.578C185.665 243.985 71.1065 288.778 69.5742 291.353C68.0419 293.927 83.1213 319.138 95.9435 365.907Z" fill="#347565"/>
<path fill-rule="evenodd" clip-rule="evenodd" d="M102.789 377.369C104.995 379.948 106.367 381.979 106.907 383.461C107.563 385.264 108.22 388.005 108.878 391.682C106.787 392.444 87.9888 399.285 52.4845 412.208C49.2557 407.897 49.1497 404.973 52.1665 403.438C55.1832 401.902 57.6792 400.599 59.6543 399.527L81.6126 378.302C82.0351 377.894 82.7087 377.905 83.1171 378.327C83.1241 378.335 83.131 378.342 83.1378 378.349L86.3102 381.823C89.7295 382.123 92.3528 381.941 94.1803 381.275C95.665 380.735 97.4972 379.389 99.6769 377.238L99.6768 377.238C100.513 376.412 101.861 376.421 102.686 377.257C102.722 377.293 102.756 377.331 102.789 377.369Z" fill="#E4E4E4"/>
<path fill-rule="evenodd" clip-rule="evenodd" d="M172.341 183.514L227.4 315.185L281.515 426.501H268.748L129.063 183.514H172.341Z" fill="#997659"/>
<path fill-rule="evenodd" clip-rule="evenodd" d="M282.278 421.467C283.469 424.645 284.064 427.023 284.064 428.6C284.064 430.519 283.744 433.319 283.105 437C280.879 437 260.875 437 223.092 437C221.532 431.844 222.433 429.061 225.793 428.65C229.153 428.239 231.944 427.868 234.166 427.536L262.06 415.101C262.597 414.862 263.226 415.103 263.465 415.64C263.469 415.649 263.473 415.658 263.477 415.668L265.27 420.017C268.38 421.468 270.908 422.194 272.853 422.194C274.433 422.194 276.615 421.556 279.399 420.279L279.399 420.279C280.467 419.79 281.73 420.259 282.22 421.327C282.241 421.373 282.261 421.42 282.278 421.467Z" fill="#E4E4E4"/>
<path fill-rule="evenodd" clip-rule="evenodd" d="M276.627 403.377L248.258 408.676C226.323 376.552 134.524 244.833 124.459 183.514H187.616C221.227 227.841 255.719 370.721 276.627 403.377Z" fill="#2B6254"/>
<path fill-rule="evenodd" clip-rule="evenodd" d="M152.644 55.3888C156.021 48.668 157.55 41.0823 155.117 33.6161C148.107 12.1038 118.552 24.5896 115.325 37.1339C112.098 49.6782 119.799 77.5369 128.023 77.5845C131.303 77.6034 137.391 74.0359 143.081 68.3749L146.221 98.8465L170.999 92.6686L152.644 55.3888Z" fill="#B28B67"/>
<path fill-rule="evenodd" clip-rule="evenodd" d="M114.222 42.679C114.11 41.1851 114.314 39.4446 114.46 37.9685C114.648 36.0656 115.2 34.2547 115.869 32.5109C117.128 29.2277 118.846 26.1182 120.915 23.377C124.694 18.3699 130.169 14.6602 136.273 13.8997C139.355 13.5157 142.541 13.9227 145.482 15.189C148.14 16.3331 150.912 18.3014 153.849 17.7603C157.044 17.1714 159.242 13.6996 161.342 11.3703C163.709 8.74433 166.388 6.59308 169.578 5.22109C174.922 2.92298 180.621 3.48366 185.589 7.05656C190.877 10.8587 195.61 17.1878 194.519 24.2443C194.316 25.556 193.924 26.717 193.211 27.7762C192.556 28.7475 191.468 29.8785 191.428 31.1795C191.387 32.5623 192.889 33.9584 193.601 35.0193C194.621 36.5392 195.554 38.1691 195.83 40.0287C196.284 43.0826 195.103 46.4004 193.596 48.858C192.061 51.3589 189.846 53.1259 187.307 54.3189C185.612 55.1155 183.838 55.7641 181.992 56.0838C181.076 56.2425 180.221 56.1928 179.3 56.2131C178.404 56.2329 177.986 56.5741 177.382 57.2142C174.575 60.188 171.189 61.9119 167.252 62.5554C163.929 63.0983 159.981 63.2519 156.774 61.7031C153.212 59.9829 152.427 56.5821 152.219 52.7911C151.573 53.3357 149.595 54.0666 150.452 52.3237C150.791 51.6334 151.643 51.1745 152.177 50.685C152.799 50.1151 153.404 49.4283 153.804 48.6519C155.419 45.5174 151.835 40.851 148.785 40.6954C144.252 40.4643 144.781 46.6046 142.155 48.8819C140.645 50.1913 138.537 49.4418 136.936 48.5391C134.791 47.3297 133.066 45.4493 131.493 43.4903C130.197 41.877 128.953 40.2235 127.644 38.6234C127.032 37.8761 125.049 35.827 125.507 34.6957C122.34 34.8517 119.289 36.9324 117.097 39.2102C116.191 40.1518 115.557 41.0988 115.281 42.4311C115.222 42.7165 115.144 43.5408 114.816 43.6555C114.206 43.8691 114.25 43.0543 114.222 42.679Z" fill="#110C09"/>
<path fill-rule="evenodd" clip-rule="evenodd" d="M85.0662 174.306L51.5635 199.695C42.4026 202.327 34.7667 205.536 28.6556 209.322C27.22 210.67 25.5037 213.379 31.5453 212.811C37.5868 212.242 43.9673 211.915 44.8378 213.953C45.7084 215.992 42.0904 218.512 43.8261 221.252C44.9832 223.08 50.2169 218.356 59.5271 207.081L92.8901 192.628L85.0662 174.306ZM215.376 172.887L193.146 173.362C207.643 217.218 215.462 240.486 216.603 243.165C219.171 249.193 214.123 258.529 211.982 263.537C219.294 266.641 218.312 254.69 227.539 258.767C235.96 262.489 242.438 269.386 251.986 263.291C253.16 262.541 254.413 259.775 251.233 257.687C243.312 252.482 231.869 243.332 230.291 240.281C228.14 236.122 223.168 213.657 215.376 172.887Z" fill="#B28B67"/>
<path fill-rule="evenodd" clip-rule="evenodd" d="M150.575 81.1607L141.348 79.7512C107.728 109.687 94.6924 166.298 53.3758 196.888L63.6626 209.133C136.088 198.923 152.877 129.856 150.575 81.1607Z" fill="#313131"/>
<path fill-rule="evenodd" clip-rule="evenodd" d="M192.687 195.501C155.8 196.145 128.668 196.618 111.289 196.922C107.569 196.987 108.177 191.63 108.667 188.924C114.329 157.692 137.967 123.719 137.194 79.4142L160.609 75.3408C180.572 106.081 187.955 144.229 192.687 195.501Z" fill="white"/>
<path fill-rule="evenodd" clip-rule="evenodd" d="M190.458 105.377C193.851 104.342 196.511 102.02 198.44 98.411C206.752 82.8528 203.505 74.4235 194.285 71.795C185.066 69.1665 176.987 75.0532 162.375 75.3083C161.581 75.3221 160.854 75.3844 160.194 75.4951L152.851 76.0408C133.004 147.528 128.017 195.079 137.888 218.694L201.955 217.575C205.904 226.317 209.666 233.664 213.24 239.616L230.697 239.312C231.417 186.423 218.004 141.778 190.458 105.377Z" fill="#232323"/>
<path fill-rule="evenodd" clip-rule="evenodd" d="M187.367 181.294C185.645 198.104 182.583 210.337 178.18 217.99L201.956 217.575C197.349 207.379 192.486 195.285 187.367 181.294Z" fill="black" fill-opacity="0.1"/>
</g>
<defs>
<filter id="filter0_d" x="0.00012207" y="0.845459" width="289.064" height="441.155" filterUnits="userSpaceOnUse" color-interpolation-filters="sRGB">
<feFlood flood-opacity="0" result="BackgroundImageFix"/>
<feColorMatrix in="SourceAlpha" type="matrix" values="0 0 0 0 0 0 0 0 0 0 0 0 0 0 0 0 0 0 127 0"/>
<feOffset dx="1" dy="1"/>
<feGaussianBlur stdDeviation="2"/>
<feColorMatrix type="matrix" values="0 0 0 0 0 0 0 0 0 0 0 0 0 0 0 0 0 0 0.25 0"/>
<feBlend mode="normal" in2="BackgroundImageFix" result="effect1_dropShadow"/>
<feBlend mode="normal" in="SourceGraphic" in2="effect1_dropShadow" result="shape"/>
</filter>
</defs>
</svg>
