<svg width="217" height="497" viewBox="0 0 217 497" fill="none" xmlns="http://www.w3.org/2000/svg">
<g opacity="0.2">
<path fill-rule="evenodd" clip-rule="evenodd" d="M150.745 45.6288C156.51 38.8618 160.412 30.5688 159.76 21.2762C157.881 -5.49838 120.61 0.391685 113.36 13.9052C106.11 27.4187 106.972 61.6968 116.342 64.1121C120.079 65.0753 128.039 62.7158 136.141 57.8325L131.055 93.8093H161.082L150.745 45.6288Z" fill="#B28B67"/>
<path fill-rule="evenodd" clip-rule="evenodd" d="M134.639 24.233C133.49 40.2438 130.45 48.2492 125.518 48.2492C118.12 48.2492 111.844 43.5529 108.598 43.5529C106.232 43.5529 106.76 46.514 108.329 48.7094C109.623 50.5206 115.924 52.2665 115.924 55.0745C115.924 57.8826 110.946 55.7102 110.946 57.3756C110.946 60.1304 110.071 65.3099 114.852 65.3099C119.69 65.3099 133.564 63.5465 135.942 56.365C137.476 51.7302 138.468 42.1261 138.918 27.5526C139.211 27.5177 139.51 27.4998 139.813 27.4998C143.959 27.4998 147.32 30.8606 147.32 35.0065C147.32 37.1111 146.454 39.0135 145.058 40.3766C146.795 42.8283 148.742 45.3894 150.973 48.0321C159.353 43.0045 165.571 28.2867 157.378 14.1482C155.114 7.22191 149.987 3.52234 143.933 1.80451C139.028 -0.247059 133.937 -0.478377 129.639 0.751522C121.214 1.47416 113.691 4.04315 111.559 5.56881C111.559 13.545 113.104 15.9115 126.305 15.7029C129.549 17.4159 132.042 20.3657 134.639 24.233Z" fill="#191847"/>
<path fill-rule="evenodd" clip-rule="evenodd" d="M171.091 197.652L125.732 356.829L92.6374 474.15H68.4994L103.667 197.652H171.091Z" fill="#191847"/>
<path fill-rule="evenodd" clip-rule="evenodd" d="M183.222 197.652C184.271 279.694 187.849 324.441 188.95 331.895C190.052 339.349 206.708 386.767 238.919 474.15H213.914C172.907 390.321 150.015 342.903 145.24 331.895C140.465 320.887 125.728 276.14 103.531 197.652H183.222Z" fill="#2F3676"/>
<path fill-rule="evenodd" clip-rule="evenodd" d="M241.154 496.67L239.903 470.396H213.629C201.171 479.154 184.907 486.244 164.836 491.666V496.67H212.378L228.643 494.168V496.67H241.154Z" fill="#191847"/>
<path fill-rule="evenodd" clip-rule="evenodd" d="M96.0242 496.67L94.773 470.396H68.4995C56.0414 479.154 39.7768 486.244 19.7058 491.666V496.67H67.2484L83.513 494.168V496.67H96.0242Z" fill="#191847"/>
<path fill-rule="evenodd" clip-rule="evenodd" d="M65.5483 177.147L27.7812 209.165C17.1873 212.833 8.41965 217.089 1.47833 221.932C-0.123901 223.611 -1.97131 226.914 5.08762 225.872C12.1466 224.83 19.6184 224.051 20.7669 226.403C21.9155 228.756 17.8231 231.951 20.031 235.079C21.503 237.164 27.3559 231.268 37.5897 217.391L75.8702 198.286L65.5483 177.147ZM236.566 163.292L214.407 166.51C238.193 218.118 250.945 245.411 252.663 248.39C256.528 255.092 251.982 266.765 250.205 272.944C259.186 275.538 256.318 261.662 267.674 265.123C278.039 268.282 286.593 275.443 296.858 266.927C298.121 265.88 299.184 262.457 295.172 260.462C285.178 255.493 270.504 246.399 268.223 243.048C265.112 238.477 254.56 211.892 236.566 163.292Z" fill="#B28B67"/>
<path fill-rule="evenodd" clip-rule="evenodd" d="M143.948 72.9553L130.217 68.4145C111.591 114.944 83.8125 159.964 37.4002 197.99L48.8774 217.791C89.6672 193.763 128.28 175.098 143.948 139.043C149.207 126.942 144.377 87.4245 143.948 72.9553Z" fill="#C5CFD6"/>
<path fill-rule="evenodd" clip-rule="evenodd" d="M191.109 203.908C151.776 208.078 120.817 208.078 98.2307 203.908C95.4324 203.391 94.991 198.706 96.2887 195.526C116.497 146.011 130.354 102.807 130.354 68.4146C134.062 70.2839 140.552 70.5641 149.822 69.255C174.737 104.697 186.189 145.363 191.109 203.908Z" fill="#323337"/>
<path fill-rule="evenodd" clip-rule="evenodd" d="M156.016 66.2847H145.633C143.216 80.5035 135.59 273.048 112.05 336.034H239.421C236.66 278.334 214.877 209.022 192.811 151.021C212.323 168.876 229.329 199.13 243.829 241.783L267.687 235.658C249.948 159.219 213.476 103.036 158.272 67.1092C158.153 66.833 158.034 66.5582 157.915 66.2847H156.996C156.658 66.0676 156.319 65.8513 155.98 65.6357L156.016 66.2847Z" fill="#DDE3E9"/>
</g>
</svg>
