<svg width="136" height="236" viewBox="0 0 136 236" fill="none" xmlns="http://www.w3.org/2000/svg">
<g opacity="0.4">
<path fill-rule="evenodd" clip-rule="evenodd" d="M67.2039 21.6673C64.5729 18.4539 62.7922 14.5158 63.0897 10.1031C63.9471 -2.61113 80.9567 0.185837 84.2655 6.60289C87.5742 13.0199 87.181 29.2973 82.9048 30.4442C81.1994 30.9016 77.5665 29.7812 73.8691 27.4623L76.1899 44.5463H62.4863L67.2039 21.6673Z" fill="#B28B67"/>
<path fill-rule="evenodd" clip-rule="evenodd" d="M74.5537 11.5073C75.0782 19.1102 76.4658 22.9117 78.7164 22.9117C82.0925 22.9117 84.9569 20.6816 86.4382 20.6816C87.5181 20.6816 87.277 22.0877 86.5612 23.1302C85.9707 23.9903 83.0948 24.8193 83.0948 26.1528C83.0948 27.4862 85.367 26.4546 85.367 27.2454C85.367 28.5536 85.7663 31.0131 83.5843 31.0131C81.376 31.0131 75.0444 30.1758 73.9594 26.7655C73.2591 24.5647 72.8063 20.004 72.601 13.0837C72.4671 13.0671 72.3307 13.0586 72.1925 13.0586C70.3004 13.0586 68.7666 14.6545 68.7666 16.6232C68.7666 17.6227 69.1619 18.526 69.7987 19.1733C69.006 20.3375 68.1176 21.5537 67.0996 22.8086C63.2751 20.4212 60.4372 13.4323 64.1762 6.71841C65.2097 3.42941 67.5493 1.67262 70.3125 0.856894C72.5508 -0.117319 74.8743 -0.227163 76.8357 0.356869C80.6807 0.700022 84.114 1.91994 85.0871 2.64441C85.0871 6.43199 84.3817 7.55575 78.3573 7.4567C76.877 8.27014 75.739 9.67089 74.5537 11.5073Z" fill="black"/>
<path fill-rule="evenodd" clip-rule="evenodd" d="M57.918 93.8575L78.6189 169.444L93.7225 225.156H104.738L88.6887 93.8575H57.918Z" fill="#191847"/>
<path fill-rule="evenodd" clip-rule="evenodd" d="M52.3823 93.8575C51.9035 132.816 50.2708 154.065 49.768 157.604C49.2653 161.144 41.6638 183.661 26.9634 225.156H38.3752C57.0899 185.349 67.5369 162.831 69.7163 157.604C71.8956 152.377 78.6213 131.128 88.7513 93.8575H52.3823Z" fill="#2F3676"/>
<path fill-rule="evenodd" clip-rule="evenodd" d="M25.9434 235.85L26.5143 223.374H38.5049C44.1906 227.532 51.6133 230.899 60.7732 233.473V235.85H39.0759L31.6532 234.662V235.85H25.9434Z" fill="#191847"/>
<path fill-rule="evenodd" clip-rule="evenodd" d="M92.1768 235.85L92.7477 223.374H104.738C110.424 227.532 117.847 230.899 127.007 233.473V235.85H105.309L97.8866 234.662V235.85H92.1768Z" fill="#191847"/>
<path fill-rule="evenodd" clip-rule="evenodd" d="M106.085 84.12L123.321 99.3243C128.156 101.066 132.158 103.087 135.325 105.387C136.057 106.184 136.9 107.753 133.678 107.258C130.457 106.763 127.047 106.393 126.523 107.51C125.998 108.627 127.866 110.145 126.858 111.63C126.187 112.62 123.515 109.82 118.845 103.231L101.375 94.1585L106.085 84.12ZM28.037 77.5408L38.1501 79.0689C27.2945 103.576 21.4748 116.536 20.6907 117.951C18.9267 121.133 21.0013 126.676 21.8124 129.611C17.7136 130.842 19.0226 124.253 13.84 125.896C9.10962 127.397 5.20601 130.797 0.520965 126.753C-0.0550345 126.256 -0.540243 124.631 1.29055 123.683C5.85171 121.324 12.5486 117.005 13.5896 115.414C15.0092 113.244 19.825 100.619 28.037 77.5408Z" fill="#B28B67"/>
<path fill-rule="evenodd" clip-rule="evenodd" d="M70.3054 34.6427L76.5722 32.4858C85.0707 54.5796 97.7463 75.9559 118.926 94.0106L113.687 103.414C95.0727 92.006 77.4514 83.1446 70.3023 66.0246C67.9028 60.2787 70.1089 41.5134 70.3054 34.6427Z" fill="#C5CFD6"/>
<path fill-rule="evenodd" clip-rule="evenodd" d="M48.7827 96.8278C66.7334 98.8082 80.8626 98.8082 91.1702 96.8278C92.4473 96.5824 92.6487 94.3577 92.0565 92.8478C82.834 69.335 76.5097 48.8187 76.5097 32.4872C74.8175 33.3749 71.856 33.5079 67.6251 32.8863C56.2547 49.7164 51.0281 69.0271 48.7827 96.8278Z" fill="#323337"/>
<path fill-rule="evenodd" clip-rule="evenodd" d="M64.7979 31.476H69.5365C70.6399 38.228 74.1199 129.66 84.8629 159.57H26.734C27.9942 132.17 37.9353 99.2565 48.0056 71.7141C39.1009 80.1927 31.3398 94.5592 24.7222 114.813L13.834 111.905C21.9297 75.6072 38.5745 48.9279 63.7684 31.8676C63.823 31.7364 63.8773 31.6059 63.9313 31.476H64.3506C64.505 31.373 64.6596 31.2702 64.8146 31.1679L64.7979 31.476Z" fill="#DDE3E9"/>
</g>
</svg>
