<svg width="73" height="104" viewBox="0 0 73 104" fill="none" xmlns="http://www.w3.org/2000/svg">
<path fill-rule="evenodd" clip-rule="evenodd" d="M47.7741 16.1674C49.0126 14.5596 49.8509 12.5891 49.7108 10.3812C49.3072 4.01945 41.2999 5.41894 39.7423 8.6298C38.1848 11.8407 38.3698 19.9853 40.3829 20.5591C41.1857 20.788 42.8959 20.2274 44.6365 19.0671L43.5439 27.6153H49.9949L47.7741 16.1674Z" fill="#B28B67"/>
<path fill-rule="evenodd" clip-rule="evenodd" d="M36.8845 4.17861C37.018 3.65929 37.3774 3.21465 37.8616 3.08274C37.979 3.05074 38.1003 3.03782 38.2211 3.04321C38.2645 3.04512 38.2766 3.05894 38.2969 3.02542C38.3119 3.00057 38.3122 2.93986 38.3184 2.91065C38.3377 2.81983 38.3617 2.73015 38.3914 2.64279C38.4927 2.34482 38.663 2.08111 38.8683 1.85896C39.2522 1.44337 39.7709 1.15655 40.3099 1.10466C40.6049 1.07628 40.8977 1.12928 41.1766 1.2354C41.3209 1.29034 41.4609 1.35874 41.5973 1.43437C41.6383 1.45714 41.7715 1.56863 41.8127 1.56141C41.8582 1.55344 41.9497 1.42838 41.9867 1.39699C42.444 1.00894 43.0087 0.856377 43.5784 0.860939C44.2213 0.866294 44.8404 0.901825 45.3766 1.3353C45.4901 1.42707 45.5982 1.52755 45.7012 1.63335C45.7554 1.68904 45.8079 1.74683 45.858 1.80702C45.8882 1.84333 45.9176 1.88046 45.9459 1.91859C45.9939 1.9833 45.9862 2.00456 46.0535 1.95941C46.3116 1.78601 46.6106 1.70491 46.9118 1.74585C47.0907 1.77018 47.2647 1.82956 47.4299 1.90773C47.4862 1.93434 47.6164 2.04048 47.6764 2.04152C47.7359 2.04253 47.8643 1.94414 47.9255 1.91913C48.2565 1.78402 48.6132 1.75071 48.961 1.81315C49.3198 1.87757 49.6723 2.0359 49.9763 2.25468C50.1225 2.35993 50.2501 2.47653 50.3526 2.63302C50.3968 2.70059 50.4368 2.77206 50.487 2.83471C50.5163 2.87139 50.5745 2.90903 50.5902 2.95546C50.5808 2.92766 50.9826 2.75633 51.0206 2.74538C51.2226 2.68702 51.4283 2.69885 51.6261 2.77085C51.9981 2.90624 52.318 3.20985 52.5809 3.52113C52.7159 3.68102 52.8341 3.85776 52.9344 4.04605C52.9825 4.13624 53.0265 4.22901 53.0667 4.32376C53.0862 4.36965 53.0991 4.42707 53.1248 4.46842C53.1579 4.52169 53.1801 4.52271 53.24 4.54594C53.5445 4.66389 53.822 4.86355 54.0333 5.13333C54.2471 5.40627 54.3858 5.74238 54.444 6.09634C54.4474 6.11719 54.4494 6.2036 54.4605 6.21488C54.4756 6.23042 54.5368 6.22355 54.56 6.22656C54.6402 6.23696 54.7198 6.25244 54.7984 6.27302C54.9432 6.31093 55.0842 6.36673 55.2175 6.4397C55.7374 6.72416 56.1091 7.25745 56.2911 7.85753C56.482 8.48728 56.4786 9.20877 56.2504 9.82677C56.2136 9.92658 56.1697 10.0235 56.1182 10.1151C56.0866 10.1714 56.0764 10.1715 56.0969 10.2306C56.1198 10.2962 56.1616 10.3601 56.1888 10.4242C56.2775 10.6336 56.3395 10.8557 56.3786 11.0826C56.4429 11.4547 56.4747 11.8458 56.4113 12.2207C56.3819 12.3948 56.3306 12.565 56.2524 12.7201C56.2125 12.7991 56.1658 12.8741 56.1132 12.9435C56.0858 12.9795 56.0567 13.0139 56.0263 13.0469C56.009 13.0657 55.9862 13.0822 55.9714 13.1032C55.9353 13.1544 55.9277 13.1123 55.9463 13.1876C55.9724 13.2928 56.0313 13.3967 56.0674 13.4991C56.1046 13.6046 56.1383 13.7116 56.169 13.8196C56.2313 14.0384 56.284 14.2611 56.317 14.4877C56.3802 14.9227 56.3691 15.3861 56.1831 15.7853C56.1035 15.9561 55.9894 16.1059 55.851 16.2224C55.7833 16.2794 55.7099 16.3286 55.6329 16.3689C55.5934 16.3897 55.5429 16.3986 55.5248 16.4409C55.5054 16.4864 55.5342 16.5767 55.5408 16.6276C55.598 17.07 55.6267 17.5345 55.5078 17.9681C55.3983 18.3674 55.1571 18.72 54.844 18.9534C54.2367 19.4062 53.418 19.3807 52.7798 19.0182C52.6135 18.9237 52.4578 18.8063 52.319 18.6679C51.9655 19.1943 51.238 19.1776 50.7213 19.0276C50.0776 18.8408 49.5611 18.3458 49.2635 17.6954C48.8566 18.2432 48.0026 18.0655 47.7204 17.4711C47.6513 17.3257 47.6104 17.1654 47.5902 17.0031C47.5796 16.9178 47.5864 16.8318 47.5784 16.7471C47.5682 16.6393 47.5031 16.5345 47.4656 16.4302C47.3927 16.2271 47.3475 16.0174 47.3455 15.7984C47.3445 15.6841 47.3576 15.5726 47.3674 15.4592C47.3763 15.3571 47.3507 15.262 47.3361 15.1612C47.5012 15.1913 47.7023 15.142 47.8579 15.0891C48.0105 15.0371 48.1535 14.9003 48.2612 14.7753C48.5113 14.4852 48.6642 14.1048 48.7687 13.7262C48.9981 12.8952 48.904 11.8983 48.1483 11.4422C47.7963 11.2298 46.7416 11.2305 46.3223 11.3355C45.8814 11.4459 45.3816 12.5218 45.357 12.6229C45.3418 12.6855 45.3494 12.763 45.2975 12.8047C45.1832 12.8964 44.9948 12.7372 44.9105 12.6587C44.7651 12.5231 44.6614 12.3428 44.5715 12.16C44.3758 11.7617 44.218 11.3346 44.1065 10.8987C44.0206 10.5625 43.9656 10.2159 43.8533 9.88834C43.7415 9.5624 43.5653 9.27106 43.2914 9.08642C42.9933 8.88556 42.6517 8.77976 42.3246 8.65353C42.0003 8.52843 41.6816 8.37553 41.4302 8.11009C41.3749 8.05172 41.3212 7.9897 41.2767 7.92098C41.2416 7.86672 41.2069 7.76287 41.1534 7.72847C41.0702 7.67496 40.9488 7.81411 40.8768 7.86464C40.5219 8.11394 40.2258 8.46163 39.987 8.84145C39.7495 9.21921 39.5546 9.5827 39.3963 10.0045C39.2788 10.3174 39.2055 10.718 38.9989 10.9744C38.9067 11.0889 38.2211 11.1581 37.9991 11.0582C37.777 10.9582 37.5281 10.6987 37.4536 10.5361C37.3773 10.3696 37.3591 10.1868 37.3917 10.0045C37.4109 9.8973 37.45 9.79715 37.4714 9.69185C37.4895 9.60339 37.5058 9.51978 37.5448 9.43874C37.6186 9.28518 37.7446 9.1748 37.8966 9.12865C37.7384 8.96733 37.6073 8.77436 37.5166 8.55863C37.4224 8.33452 37.3425 8.06197 37.3198 7.81599C37.3014 7.6162 37.3299 7.4092 37.4287 7.2375C37.5325 7.05739 37.7163 6.93988 37.8753 6.82753C37.6324 6.61735 37.4245 6.36175 37.2536 6.07875C36.9212 5.52842 36.7157 4.83471 36.8845 4.17861Z" fill="#191847"/>
<path fill-rule="evenodd" clip-rule="evenodd" d="M68.0038 64.774H37.093C34.7179 64.774 32.7924 66.9035 32.7924 69.5304V96.8793C32.7924 99.5061 34.7179 101.636 37.093 101.636H68.0038C70.379 101.636 72.3044 99.5061 72.3044 96.8793V69.5304C72.3044 66.9035 70.379 64.774 68.0038 64.774ZM63.7032 73.0976C64.297 73.0976 64.7783 73.63 64.7783 74.2867V92.1229C64.7783 92.7796 64.297 93.312 63.7032 93.312H41.3937C40.7999 93.312 40.3185 92.7796 40.3185 92.1229V74.2867C40.3185 73.63 40.7999 73.0976 41.3937 73.0976H63.7032Z" fill="#C5CFD6"/>
<path fill-rule="evenodd" clip-rule="evenodd" d="M13.5714 100.643C17.0154 92.2125 19.506 84.8719 20.5057 80.999C22.2175 74.3676 23.5197 68.5324 23.8488 66.3533C24.6337 61.1568 17.8113 60.8542 16.9095 63.4368C15.5446 67.3456 13.1619 80.1882 10.2988 99.5865L13.5714 100.643ZM53.5191 74.1866C50.3593 72.8053 39.2938 68.4824 33.957 67.2595C32.4233 66.9081 30.9369 66.5816 29.5394 66.2865C25.3856 65.4095 23.2335 73.6973 27.2342 74.334C37.1974 75.9199 51.3219 77.5576 52.5307 77.7413C54.2248 77.9989 55.505 75.0547 53.5191 74.1866Z" fill="#B28B67"/>
<path fill-rule="evenodd" clip-rule="evenodd" d="M26.9898 64.006L44.0813 54.3835V52.2887H42.0487C25.5134 56.9486 17.0638 59.935 16.7001 61.2478C16.6962 61.2619 16.6926 61.2761 16.6893 61.2902C16.681 61.3023 16.6728 61.3144 16.6648 61.3267C13.3878 66.3109 11.4253 90.6446 10.7811 92.4666L17.0605 93.5027C19.4625 83.6517 27.1476 76.7892 26.9434 64.9908C26.9985 64.6447 27.0125 64.3165 26.9898 64.006Z" fill="#1F28CF"/>
<path fill-rule="evenodd" clip-rule="evenodd" d="M42.6614 69.7208C44.2253 69.3746 45.6654 69.0656 46.8977 68.8265C54.8574 67.2824 57.1786 62.5702 55.8062 52.2887H41.1404C38.7448 53.0498 26.2946 58.8241 19.8349 61.8954C15.5595 63.9281 16.9073 71.2559 19.3284 73.1629C19.3415 73.2799 19.3851 73.3593 19.4627 73.3949C32.4867 79.3649 42.7899 76.2324 46.2318 77.2333L47.8238 71.6792L42.6614 69.7208Z" fill="#2B44FF"/>
<path fill-rule="evenodd" clip-rule="evenodd" d="M52.4386 73.3037C53.2919 73.394 53.8977 73.5357 54.2559 73.7289C54.6915 73.9639 55.2918 74.3871 56.0568 74.9985C55.8103 75.5574 53.5951 80.5806 49.411 90.0682C48.0677 89.8284 47.5355 89.2614 47.8142 88.3673C48.093 87.4733 48.3178 86.7269 48.4887 86.1283L48.7542 77.601C48.7593 77.437 48.8837 77.3085 49.0321 77.3142C49.0346 77.3143 49.0372 77.3144 49.0397 77.3146L50.2258 77.397C50.8997 76.7937 51.3444 76.2479 51.5597 75.7595C51.7347 75.3628 51.8315 74.7367 51.85 73.8813L51.85 73.8813C51.8571 73.553 52.1035 73.2933 52.4003 73.3012C52.4131 73.3015 52.4259 73.3024 52.4386 73.3037Z" fill="#E4E4E4"/>
<path fill-rule="evenodd" clip-rule="evenodd" d="M15.1388 99.0796C15.4395 99.9674 15.5898 100.632 15.5898 101.072C15.5898 101.608 15.5091 102.391 15.3476 103.419C14.7853 103.419 9.73191 103.419 0.187391 103.419C-0.206569 101.979 0.0208473 101.201 0.86964 101.086C1.71843 100.971 2.42354 100.868 2.98496 100.775L10.0313 97.301C10.1669 97.2341 10.3258 97.3015 10.3862 97.4514C10.3873 97.454 10.3883 97.4566 10.3892 97.4592L10.8422 98.6743C11.6279 99.0798 12.2664 99.2825 12.7577 99.2825C13.1568 99.2825 13.7081 99.1042 14.4113 98.7477L14.4113 98.7477C14.6812 98.6108 15.0003 98.7419 15.124 99.0404C15.1294 99.0532 15.1343 99.0663 15.1388 99.0796Z" fill="#E4E4E4"/>
<path fill-rule="evenodd" clip-rule="evenodd" d="M28.4799 47.5686L20.8656 55.7837C18.6501 56.8288 16.8349 57.9829 15.4198 59.2458C15.1016 59.6704 14.7552 60.4838 16.2524 60.1198C17.7496 59.7558 19.3393 59.4474 19.6207 59.9859C19.9021 60.5244 19.0729 61.3496 19.593 62.0543C19.9397 62.5242 21.1057 61.0297 23.091 57.5709L31.0088 52.4082L28.4799 47.5686ZM62.2765 48.7272L56.6595 48.7516C60.1277 61.134 62.0001 67.704 62.2765 68.4617C62.8984 70.1664 61.5823 72.7626 61.0194 74.1578C62.8526 75.065 62.6573 71.7053 64.9698 72.8951C67.0805 73.9812 68.6861 75.949 71.1247 74.2848C71.4246 74.0802 71.7531 73.3099 70.9593 72.7079C68.9816 71.2082 66.1316 68.5833 65.7466 67.7193C65.2214 66.5411 64.0647 60.2104 62.2765 48.7272Z" fill="#B28B67"/>
<path fill-rule="evenodd" clip-rule="evenodd" d="M46.3137 22.6602L43.9895 22.2193C39.9879 33.2749 33.0015 43.3203 23.0303 52.3555L30.565 62.4794C40.535 49.6145 46.6806 36.3415 46.3137 22.6602Z" fill="#191847"/>
<path fill-rule="evenodd" clip-rule="evenodd" d="M56.446 54.9641H35.7493C40.5442 42.0701 42.9417 31.1167 42.9417 22.1041L49.1849 21.0753C54.0915 29.8027 55.4771 40.5479 56.446 54.9641Z" fill="#DDE3E9"/>
<path fill-rule="evenodd" clip-rule="evenodd" d="M49.3169 21.0802C49.3161 21.0786 49.3153 21.0769 49.3145 21.0753H48.9069C48.4193 21.0939 47.6766 21.1273 46.6787 21.1757L45.1701 25.9437C45.0106 31.757 44.0787 43.4723 42.3745 61.0897H55.9416C55.906 62.3064 55.8474 63.5346 55.7657 64.7741H65.8535C64.3446 45.9461 58.834 31.3799 49.3219 21.0753L49.3169 21.0802V21.0802Z" fill="#2F3676"/>
<path fill-rule="evenodd" clip-rule="evenodd" d="M55.0454 45.5208C54.6593 53.1055 53.6925 58.3342 52.1452 61.2068H55.9381C56.1041 55.7498 55.8065 50.5211 55.0454 45.5208V45.5208Z" fill="black" fill-opacity="0.1"/>
<path fill-rule="evenodd" clip-rule="evenodd" d="M52.9219 51.9913L46.2319 48.5516V51.9913H52.9219Z" fill="white" fill-opacity="0.2"/>
</svg>
