<svg width="255" height="450" viewBox="0 0 255 450" fill="none" xmlns="http://www.w3.org/2000/svg">
<g opacity="0.2">
<path fill-rule="evenodd" clip-rule="evenodd" d="M126.081 43.1245C120.869 37.0067 117.342 29.5092 117.931 21.1081C119.63 -3.09799 153.325 2.22704 159.88 14.4442C166.434 26.6613 165.656 57.6511 157.184 59.8346C153.806 60.7054 146.609 58.5723 139.285 54.1575L143.882 86.683H116.736L126.081 43.1245Z" fill="#B28B67"/>
<path fill-rule="evenodd" clip-rule="evenodd" d="M147.908 16.2158C144.224 18.2764 141.602 22.1377 138.446 27.2025C137.678 26.9004 136.841 26.7345 135.965 26.7345C132.217 26.7345 129.178 29.773 129.178 33.5211C129.178 35.4239 129.961 37.1437 131.223 38.376C129.652 40.5925 127.893 42.908 125.876 45.2972C118.35 40.7822 112.753 27.6229 119.938 14.9193C126.121 -10.5268 161.153 5.26734 167.892 0.975746C169.366 10.2097 164.614 17.6553 147.908 16.2158Z" fill="#191847"/>
<path fill-rule="evenodd" clip-rule="evenodd" d="M103.971 181.78L144.658 324.562L174.344 429.8H195.996L164.45 181.78H103.971Z" fill="#191847"/>
<path fill-rule="evenodd" clip-rule="evenodd" d="M93.0897 181.78C92.1486 255.371 88.9394 295.51 87.9513 302.196C86.9632 308.882 72.0224 351.417 43.1289 429.8H65.5587C102.342 354.605 122.876 312.07 127.159 302.196C131.443 292.322 144.662 252.183 164.573 181.78H93.0897Z" fill="#2F3676"/>
<path fill-rule="evenodd" clip-rule="evenodd" d="M41.1241 450L42.2463 426.432H65.8138C76.9888 434.288 91.5782 440.648 109.582 445.511V450H66.9361L52.3467 447.755V450H41.1241Z" fill="#191847"/>
<path fill-rule="evenodd" clip-rule="evenodd" d="M171.306 450L172.428 426.432H195.996C207.171 434.288 221.76 440.648 239.764 445.511V450H197.118L182.529 447.755V450H171.306Z" fill="#191847"/>
<path fill-rule="evenodd" clip-rule="evenodd" d="M197.979 163L230.833 192.087C240.049 195.42 247.676 199.286 253.714 203.686C255.108 205.211 256.715 208.211 250.574 207.265C244.434 206.318 237.934 205.611 236.935 207.748C235.936 209.885 239.496 212.787 237.575 215.629C236.294 217.523 231.203 212.167 222.301 199.56L189 182.205L197.979 163Z" fill="#B28B67"/>
<path fill-rule="evenodd" clip-rule="evenodd" d="M39.676 159.687L56.2159 135.447C44.6824 185.144 36.7507 211.066 35.7816 213.997C32.0449 222.981 37.8805 237.345 36.5338 237.794C32.3482 240.039 32.4938 227.469 27.3053 231.828C22.6807 237.345 30.187 251.904 23.0671 248.118C21.7672 247.427 17.7714 240.371 18.7733 231.913C19.7752 223.455 23.6119 216.46 25.0083 213.099C26.9125 208.516 24.0063 203.998 39.676 159.687Z" fill="#B28B67"/>
<path fill-rule="evenodd" clip-rule="evenodd" d="M128.318 69.9263L140.635 65.8531C157.342 107.59 182.26 147.973 223.892 182.083L213.597 199.844C177.008 178.291 142.373 161.548 128.318 129.207C123.601 118.352 127.933 82.9051 128.318 69.9263Z" fill="#323232"/>
<path fill-rule="evenodd" clip-rule="evenodd" d="M86.0145 187.391C121.296 191.132 149.067 191.132 169.327 187.391C171.837 186.928 172.233 182.725 171.069 179.873C152.942 135.458 140.512 96.7031 140.512 65.8533C137.186 67.5301 131.365 67.7814 123.049 66.6072C100.701 98.3989 90.4278 134.876 86.0145 187.391Z" fill="#E1E1E1"/>
<path fill-rule="evenodd" clip-rule="evenodd" d="M117.493 63.9427H126.807C128.975 76.697 135.815 249.41 156.93 305.909H42.6785C45.1554 254.151 64.6945 191.978 84.4877 139.951C66.9856 155.967 51.7312 183.105 38.7242 221.365L17.3236 215.872C33.2357 147.305 65.9509 96.9089 115.469 64.6823C115.577 64.4346 115.683 64.188 115.79 63.9427H116.614C116.917 63.748 117.221 63.554 117.526 63.3606L117.493 63.9427Z" fill="black"/>
</g>
</svg>
