<svg width="284" height="438" viewBox="0 0 284 438" fill="none" xmlns="http://www.w3.org/2000/svg">
<g opacity="0.2" filter="url(#filter0_d)">
<path fill-rule="evenodd" clip-rule="evenodd" d="M98.7553 183.209C100.639 208.823 222.009 284.235 222.718 286.351C223.032 287.291 210.44 317.018 184.94 375.531L195.549 379.637C234.662 317.668 253.214 283.382 251.205 276.779C248.329 267.326 216.939 236.227 157.035 183.482L98.7553 183.209Z" fill="#B28B67"/>
<path fill-rule="evenodd" clip-rule="evenodd" d="M187.731 362.315L205.053 368.596C241.579 327.544 255.896 293.671 253.285 276.413C251.545 264.907 220.263 233.86 159.44 183.271L97.5128 183.271C99.6256 242.59 212.121 286.576 213.625 289.103C215.13 291.631 200.322 316.389 187.731 362.315Z" fill="#2F3676"/>
<path fill-rule="evenodd" clip-rule="evenodd" d="M181.009 373.57C178.843 376.103 177.496 378.097 176.966 379.553C176.321 381.323 175.676 384.014 175.029 387.626C177.083 388.373 195.543 395.092 230.407 407.781C233.578 403.548 233.682 400.677 230.72 399.169C227.757 397.661 225.306 396.381 223.367 395.329L201.804 374.486C201.389 374.085 200.728 374.096 200.327 374.511C200.32 374.518 200.313 374.526 200.306 374.533L197.191 377.944C193.833 378.239 191.257 378.059 189.463 377.406C188.005 376.876 186.206 375.554 184.065 373.441L184.065 373.441C183.244 372.63 181.921 372.639 181.11 373.46C181.075 373.496 181.041 373.532 181.009 373.57Z" fill="#E4E4E4"/>
<path fill-rule="evenodd" clip-rule="evenodd" d="M112.71 183.208L58.643 312.506L5.50339 421.817H18.0407L155.208 183.208H112.71Z" fill="#997659"/>
<path fill-rule="evenodd" clip-rule="evenodd" d="M4.75341 416.874C3.58447 419.994 3 422.329 3 423.878C3 425.762 3.31389 428.512 3.94167 432.127C6.12745 432.127 25.7714 432.127 62.8735 432.127C64.405 427.064 63.5209 424.331 60.2214 423.927C56.922 423.523 54.181 423.159 51.9986 422.833L24.6076 410.622C24.0806 410.387 23.4629 410.624 23.2279 411.151C23.2239 411.16 23.22 411.169 23.2162 411.178L21.4555 415.449C18.4011 416.874 15.919 417.587 14.0093 417.587C12.4578 417.587 10.315 416.96 7.58116 415.707L7.58116 415.707C6.53202 415.226 5.29164 415.687 4.8107 416.736C4.78997 416.781 4.77086 416.827 4.75341 416.874Z" fill="#E4E4E4"/>
<path fill-rule="evenodd" clip-rule="evenodd" d="M10.3026 399.109L38.1607 404.313C59.7005 372.768 149.846 243.422 159.729 183.208H97.7107C64.7045 226.736 30.8345 367.042 10.3026 399.109Z" fill="#5C63AB"/>
<path fill-rule="evenodd" clip-rule="evenodd" d="M132.053 57.3909C128.736 50.7911 127.235 43.3422 129.624 36.0105C136.508 14.8858 165.531 27.1466 168.699 39.4649C171.868 51.7832 164.306 79.1399 156.23 79.1866C153.009 79.2053 147.031 75.702 141.443 70.143L138.36 100.066L114.028 93.999L132.053 57.3909Z" fill="#B28B67"/>
<path fill-rule="evenodd" clip-rule="evenodd" d="M169.782 44.91C169.892 43.4431 169.692 41.7339 169.549 40.2844C169.364 38.4158 168.822 36.6376 168.165 34.9251C166.928 31.7011 165.242 28.6476 163.21 25.9558C159.499 21.0389 154.122 17.3961 148.128 16.6493C145.102 16.2722 141.973 16.6718 139.085 17.9153C136.476 19.0388 133.753 20.9717 130.869 20.4403C127.732 19.862 125.573 16.4528 123.511 14.1655C121.187 11.5868 118.556 9.47429 115.424 8.12702C110.176 5.87032 104.58 6.42089 99.7005 9.92942C94.5082 13.663 89.8609 19.8782 90.9317 26.8075C91.1308 28.0955 91.5157 29.2356 92.2168 30.2757C92.8598 31.2296 93.9281 32.3402 93.9667 33.6177C94.0075 34.9756 92.5325 36.3465 91.8334 37.3883C90.8318 38.8809 89.9159 40.4814 89.6443 42.3075C89.1985 45.3064 90.3581 48.5644 91.8386 50.9777C93.3452 53.4335 95.5205 55.1687 98.0139 56.3402C99.6787 57.1224 101.421 57.7593 103.233 58.0733C104.132 58.2292 104.973 58.1803 105.877 58.2003C106.756 58.2197 107.167 58.5548 107.76 59.1834C110.517 62.1036 113.842 63.7964 117.708 64.4283C120.971 64.9615 124.847 65.1123 127.997 63.5914C131.494 61.9022 132.266 58.5626 132.47 54.84C133.104 55.3747 135.047 56.0925 134.205 54.381C133.872 53.7031 133.035 53.2524 132.511 52.7718C131.9 52.2122 131.306 51.5377 130.913 50.7754C129.328 47.6973 132.847 43.115 135.842 42.9622C140.293 42.7352 139.773 48.7649 142.353 51.0011C143.835 52.2869 145.906 51.551 147.478 50.6645C149.584 49.477 151.278 47.6304 152.823 45.7067C154.095 44.1225 155.316 42.4988 156.602 40.9275C157.203 40.1937 159.15 38.1815 158.701 37.0706C161.81 37.2238 164.806 39.267 166.959 41.5037C167.849 42.4283 168.471 43.3583 168.742 44.6666C168.8 44.9469 168.877 45.7563 169.199 45.8689C169.798 46.0787 169.754 45.2786 169.782 44.91Z" fill="#8A4346"/>
<path fill-rule="evenodd" clip-rule="evenodd" d="M197.143 169.786L225.606 197.937C233.888 201.518 240.674 205.473 245.963 209.8C247.153 211.255 248.448 214.042 242.851 212.795C237.254 211.548 231.312 210.491 230.26 212.336C229.208 214.182 232.308 217.009 230.363 219.424C229.067 221.034 224.709 215.913 217.287 204.061L187.689 186.37L197.143 169.786ZM70.8062 173.756L91.8034 173.84C78.8386 216.271 71.8396 238.784 70.8062 241.38C68.4812 247.222 73.4012 256.119 75.5052 260.9C68.6526 264.008 69.3828 252.495 60.7384 256.573C52.8482 260.294 46.8462 267.037 37.7302 261.335C36.6094 260.634 35.3813 257.994 38.3487 255.931C45.7415 250.792 56.3951 241.797 57.8346 238.837C59.7976 234.799 64.1215 213.106 70.8062 173.756Z" fill="#B28B67"/>
<path fill-rule="evenodd" clip-rule="evenodd" d="M130.477 84.4314L139.165 82.9205C154.124 120.805 180.24 155.227 217.514 186.188L189.348 220.88C152.078 176.796 129.106 131.313 130.477 84.4314Z" fill="#191847"/>
<path fill-rule="evenodd" clip-rule="evenodd" d="M92.602 195.127H169.97C152.045 150.943 143.083 113.409 143.083 82.5253L119.745 79C101.404 108.906 96.2241 145.727 92.602 195.127Z" fill="#DDE3E9"/>
<path fill-rule="evenodd" clip-rule="evenodd" d="M119.251 79.0167C119.254 79.0111 119.257 79.0056 119.26 79L120.783 79C122.606 79.0636 125.383 79.1783 129.113 79.344L134.752 95.6825C135.349 115.603 138.832 155.748 145.203 216.118H94.4866C94.6196 220.287 94.8388 224.496 95.1443 228.743H57.4345C63.0752 164.225 83.6744 114.311 119.232 79L119.251 79.0167V79.0167Z" fill="#2F3676"/>
<path fill-rule="evenodd" clip-rule="evenodd" d="M97.8372 162.768C99.2805 188.758 102.894 206.676 108.678 216.519H94.5002C93.8795 197.819 94.9918 179.902 97.8372 162.768V162.768Z" fill="black" fill-opacity="0.1"/>
<path fill-rule="evenodd" clip-rule="evenodd" d="M105.775 184.941L130.783 173.154V184.941H105.775Z" fill="white" fill-opacity="0.2"/>
</g>
<defs>
<filter id="filter0_d" x="0" y="0" width="284" height="437.127" filterUnits="userSpaceOnUse" color-interpolation-filters="sRGB">
<feFlood flood-opacity="0" result="BackgroundImageFix"/>
<feColorMatrix in="SourceAlpha" type="matrix" values="0 0 0 0 0 0 0 0 0 0 0 0 0 0 0 0 0 0 127 0"/>
<feOffset dx="1" dy="1"/>
<feGaussianBlur stdDeviation="2"/>
<feColorMatrix type="matrix" values="0 0 0 0 0 0 0 0 0 0 0 0 0 0 0 0 0 0 0.25 0"/>
<feBlend mode="normal" in2="BackgroundImageFix" result="effect1_dropShadow"/>
<feBlend mode="normal" in="SourceGraphic" in2="effect1_dropShadow" result="shape"/>
</filter>
</defs>
</svg>
