<svg width="34" height="17" viewBox="0 0 34 17" fill="none"
     xmlns="http://www.w3.org/2000/svg">
    <mask id="mask0" x="0" y="0" width="34"
          height="17">
        <path d="M18.6301 0.657994V1.10406H25.2322H31.8342V8.55948V16.0149L31.7926 16.0654C31.6577 16.226 31.4129 16.3499 31.1978 16.3668L31.1205 16.3727V16.46V16.5482H32.2753H33.4302V16.46V16.3727L33.3578 16.3668C33.1417 16.3509 32.9266 16.2468 32.7799 16.0892L32.7164 16.0208V8.11638V0.211914H25.6733H18.6301V0.657994Z"
              fill="white"/>
        <path d="M23.4975 2.18084C22.8591 2.32755 22.5994 2.37711 22.3278 2.40189C22.2703 2.40784 22.2157 2.41478 22.2058 2.41874C22.191 2.4237 22.189 2.43956 22.189 2.53175V2.63881L22.2267 2.65368C22.2812 2.67449 22.3506 2.68837 22.4606 2.70027C22.7064 2.72604 22.7748 2.85094 22.8145 3.3446C22.8254 3.48338 22.8194 4.62136 22.8075 4.68381L22.8026 4.70958L22.7074 4.64614C22.526 4.52719 22.306 4.435 22.1117 4.39932C21.9788 4.37453 21.6428 4.36958 21.4703 4.39039C21.2988 4.41022 21.1184 4.44591 21.0143 4.47961C20.7615 4.56188 20.5197 4.72445 20.2808 4.97128C19.9953 5.26668 19.8287 5.57794 19.7584 5.94868C19.7395 6.0488 19.7366 6.09836 19.7366 6.29365C19.7366 6.61185 19.7703 6.82398 19.8615 7.09159C19.9526 7.35629 20.0567 7.52779 20.2461 7.71709C20.5256 7.99959 20.7952 8.14929 21.1283 8.20779C21.4435 8.26229 21.8519 8.24649 22.1236 8.16719C22.2881 8.11959 22.4269 8.05609 22.6777 7.91239C22.7639 7.86279 22.8373 7.82619 22.8412 7.82909C22.8452 7.83309 22.8492 7.94809 22.8512 8.08289L22.8541 8.32969L22.8987 8.33669C22.9671 8.34659 23.0048 8.33669 23.1396 8.27219C23.2844 8.20379 23.3448 8.18199 23.5104 8.14239C23.6581 8.10669 23.8117 8.07989 24.0248 8.05319C24.229 8.02739 24.4204 7.98869 24.4303 7.97189C24.4521 7.93719 24.462 7.85689 24.4501 7.80729C24.4352 7.74879 24.4432 7.75179 24.2509 7.73599C24.0526 7.71909 23.9515 7.70229 23.8831 7.67549L23.8563 7.66459L23.8494 7.46529C23.8415 7.23929 23.8365 4.65011 23.8444 4.33587C23.8464 4.22386 23.8454 3.91656 23.8424 3.65189C23.8385 3.38722 23.8325 2.96097 23.8296 2.70522C23.8266 2.44848 23.8187 2.21851 23.8137 2.19273C23.7968 2.11938 23.7691 2.11839 23.4975 2.18084ZM22.1394 4.75221C22.5171 4.84836 22.754 5.15169 22.8026 5.59975C22.8214 5.78512 22.8343 6.35114 22.8313 6.92311L22.8284 7.49209L22.754 7.53469C22.645 7.59719 22.4864 7.66459 22.3783 7.69429C22.2951 7.71709 22.2643 7.72009 22.1345 7.72109C21.9679 7.72109 21.8817 7.70819 21.7429 7.66459C21.3672 7.54459 21.0827 7.25619 20.9509 6.85867C20.8854 6.66339 20.8508 6.41359 20.8508 6.14892C20.8508 5.73952 20.9717 5.33607 21.1769 5.06347C21.3147 4.88108 21.4772 4.78393 21.727 4.73635C21.8291 4.71652 22.0324 4.72445 22.1394 4.75221Z"
              fill="white"/>
        <path d="M18.3476 2.2194C18.0502 2.41171 17.5169 2.60005 17.1115 2.65557C17.0698 2.66052 17.0649 2.66449 17.0589 2.69224C17.0549 2.70909 17.0549 2.76361 17.0589 2.81417C17.0668 2.9242 17.052 2.91429 17.2453 2.92817C17.4049 2.93907 17.4505 2.94898 17.5456 2.9926C17.614 3.02432 17.616 3.02531 17.6279 3.07289C17.6497 3.15814 17.6586 3.22654 17.6686 3.3792C17.6834 3.62801 17.7023 7.18269 17.6894 7.40869C17.6765 7.65059 17.6527 7.75069 17.5962 7.81319C17.5674 7.84389 17.4713 7.87169 17.2919 7.89939C17.1343 7.92419 17.0877 7.93609 17.0153 7.97279C16.9776 7.99259 16.9747 7.99659 16.9786 8.02629C16.9816 8.04419 16.9866 8.09269 16.9905 8.13629L16.9965 8.21469L17.2354 8.20869C17.3672 8.20569 17.5357 8.1978 17.6091 8.1909C17.6983 8.1819 17.9065 8.178 18.2286 8.179C18.6589 8.179 18.8284 8.1839 19.2626 8.2077L19.3736 8.21369V8.11059C19.3736 8.01839 19.3637 7.94009 19.3508 7.92819C19.3478 7.92519 19.2378 7.9103 19.1059 7.8945C18.9741 7.8786 18.8502 7.8608 18.8304 7.8538C18.7689 7.834 18.7322 7.80029 18.7084 7.73879L18.6856 7.68129L18.6787 5.77313C18.6718 3.80545 18.6648 2.77848 18.6539 2.39486L18.647 2.1748H18.532H18.416L18.3476 2.2194Z"
              fill="white"/>
        <path d="M5.07919 2.33828C4.59539 2.37 4.05809 2.37892 3.76569 2.35909C3.64079 2.35116 3.45839 2.34125 3.36229 2.33729L3.18679 2.33035L3.18179 2.36405C3.17889 2.38288 3.17389 2.44533 3.16999 2.50382L3.16399 2.60889L3.19769 2.61583C3.29779 2.63764 3.51589 2.70505 3.57839 2.73479C3.71809 2.79922 3.75279 2.85275 3.96299 3.3246C4.09679 3.62694 4.11469 3.67055 4.54089 4.6876C4.79369 5.29228 4.89979 5.55695 4.89679 5.57479C4.89079 5.60652 4.47249 6.46298 4.30799 6.78217C4.22269 6.94573 4.18109 7.0181 4.17509 7.0082C4.16319 6.98637 3.03809 4.35949 2.92809 4.09779C2.77639 3.73399 2.66439 3.45743 2.57419 3.22051C2.52759 3.10057 2.47899 2.97468 2.46609 2.93998C2.45329 2.90529 2.44229 2.86564 2.44229 2.85176C2.44229 2.81112 2.52959 2.7338 2.64559 2.67135C2.80419 2.5861 2.79429 2.59799 2.81409 2.4721C2.84079 2.30457 2.89339 2.31845 2.31739 2.34522C1.88129 2.36504 1.81489 2.36603 1.50859 2.35513C1.32419 2.34819 1.10109 2.33828 1.01289 2.33233C0.891988 2.3244 0.84039 2.32539 0.80969 2.33431L0.76709 2.34621L0.772989 2.41163C0.775989 2.44732 0.781889 2.51274 0.784889 2.55537L0.79179 2.63368L0.88699 2.67531C0.93959 2.69811 0.996088 2.72587 1.01289 2.73776C1.05359 2.7675 1.12589 2.88348 1.21809 3.06686C1.31819 3.26611 1.26469 3.1422 2.10039 5.09898C2.49979 6.03376 2.87949 6.915 2.94289 7.0568C3.16299 7.5435 3.34539 7.9806 3.43859 8.2463L3.48119 8.3652H3.71619H3.95009L4.04629 8.1571C4.09879 8.0421 4.22469 7.7834 4.32679 7.5821C4.51019 7.2173 5.10299 6.08332 5.11879 6.06647C5.12279 6.0625 5.16049 6.12694 5.20209 6.2102C5.27449 6.3579 5.80979 7.5891 5.88999 7.7913C5.91189 7.8458 5.95939 7.9598 5.99709 8.0441C6.03379 8.1273 6.07539 8.2344 6.09029 8.281L6.11709 8.3652L6.35099 8.3682L6.58399 8.3702L6.61369 8.2939C6.87339 7.6218 7.27389 6.60275 7.46519 6.12991C7.62079 5.7443 7.66249 5.64319 7.87659 5.13368C8.14519 4.4943 8.36229 3.95009 8.61309 3.28495C8.72219 2.99549 8.76079 2.90826 8.80439 2.85077C8.83519 2.81012 8.96499 2.72388 9.06509 2.6763C9.16129 2.6307 9.17909 2.59898 9.17719 2.47606C9.17519 2.35315 9.17219 2.3472 9.11469 2.33927C9.08699 2.3353 8.96499 2.33729 8.84409 2.34323C8.66469 2.35215 8.55659 2.35116 8.27809 2.33828C7.88059 2.32043 7.86369 2.32242 7.84389 2.3809C7.83099 2.41758 7.82999 2.52365 7.84089 2.59403C7.84879 2.6426 7.87059 2.6535 8.08769 2.71893C8.17989 2.74668 8.25919 2.77345 8.26319 2.77741C8.26819 2.78237 8.27409 2.80814 8.27809 2.8359C8.28299 2.8805 8.27509 2.91123 8.21159 3.10255C8.17199 3.2225 7.95289 3.79446 7.72589 4.37535C7.49889 4.95624 7.19059 5.75124 7.04089 6.14181C6.89219 6.53336 6.76729 6.85354 6.76439 6.85354C6.76139 6.85354 6.74349 6.81389 6.72369 6.76631C6.63849 6.56112 6.16459 5.4489 6.01399 5.10096L5.84939 4.7223L5.87719 4.65985C5.93069 4.5399 6.51649 3.36623 6.60579 3.20069C6.75149 2.93304 6.81689 2.85275 6.94079 2.79724C7.00819 2.76651 7.31349 2.66342 7.40769 2.63962C7.44439 2.6307 7.46219 2.6198 7.46819 2.60592C7.47809 2.57717 7.48899 2.37991 7.48009 2.36702C7.47509 2.35909 7.33829 2.35414 7.02709 2.35017C6.78219 2.3472 6.40159 2.33927 6.18149 2.33233C5.96239 2.32638 5.77899 2.32341 5.77609 2.32737C5.76419 2.33927 5.75419 2.46516 5.76019 2.53752L5.76609 2.6079L5.88609 2.64062C6.07939 2.69315 6.16269 2.72686 6.21419 2.77146L6.25979 2.81211L6.25389 2.86266C6.24589 2.92214 6.16459 3.1313 6.07149 3.33451C5.95049 3.5972 5.63929 4.23657 5.63329 4.23657C5.62339 4.23657 5.50539 3.95505 5.33889 3.53772C5.26259 3.3464 5.18429 3.15509 5.16339 3.11147C5.08409 2.93899 5.06029 2.79625 5.09899 2.73181C5.12769 2.68522 5.18329 2.66441 5.32699 2.64557C5.50149 2.62277 5.53419 2.61385 5.54609 2.58312C5.55099 2.56924 5.55399 2.50481 5.55299 2.4384L5.54999 2.31845L5.48559 2.31746C5.44989 2.31647 5.26749 2.32539 5.07919 2.33828Z"
              fill="white"/>
        <path d="M25.7974 2.78884V3.23492H28.1914H30.5854V2.78884V2.34277H28.1914H25.7974V2.78884Z"
              fill="white"/>
        <path d="M14.9872 4.14662L14.898 4.15257L14.8355 4.23187C14.6571 4.45888 14.5798 4.53421 14.3924 4.66209C14.219 4.78104 14.0366 4.85836 13.8403 4.89702L13.754 4.91387L13.758 4.95451C13.761 4.97632 13.7649 5.02093 13.7679 5.05166C13.7758 5.12204 13.8086 5.16169 13.873 5.17854C13.9771 5.20531 14.1178 5.25189 14.1615 5.27369C14.2536 5.32028 14.2655 5.36688 14.2903 5.74853C14.3082 6.02509 14.3082 7.51097 14.2903 7.62207C14.2764 7.71427 14.2725 7.71917 14.1565 7.77667C14.0504 7.83017 13.9959 7.85106 13.868 7.88566C13.7263 7.92436 13.6767 7.95216 13.6678 7.99876C13.6609 8.03636 13.6658 8.16827 13.6747 8.17617C13.6777 8.18017 13.8452 8.17516 14.0465 8.16726C14.7235 8.13946 14.782 8.13947 15.2459 8.16127C15.4868 8.17317 15.7822 8.18207 15.9031 8.18207H16.1222L16.1341 8.15437C16.153 8.10877 16.15 7.98287 16.1292 7.95017C16.0945 7.89757 16.0558 7.88767 15.7445 7.85007C15.4809 7.81927 15.3857 7.76176 15.3272 7.60126C15.3064 7.54466 15.3054 7.52487 15.2985 6.96284C15.2945 6.64365 15.2856 6.23128 15.2796 6.04591C15.2667 5.68013 15.2687 5.64642 15.3153 5.50566C15.3857 5.2975 15.5056 5.14781 15.6038 5.1488C15.6444 5.1498 15.7108 5.18251 15.8001 5.24793C15.9141 5.33021 15.9983 5.37382 16.0875 5.39662C16.2719 5.4442 16.4285 5.40158 16.5485 5.27073C16.712 5.09131 16.7547 4.82664 16.6506 4.62937C16.608 4.54908 16.4781 4.42616 16.3889 4.38255C16.2144 4.2973 16.0152 4.29531 15.8476 4.37759C15.7644 4.41823 15.5572 4.59964 15.4898 4.68984C15.463 4.72652 15.3996 4.82367 15.349 4.90594C15.2985 4.98723 15.2529 5.0586 15.2479 5.06455C15.242 5.07049 15.239 4.9218 15.241 4.65317C15.242 4.42121 15.24 4.21106 15.236 4.18429L15.2281 4.1377L15.1518 4.13968C15.1101 4.14068 15.0368 4.14365 14.9872 4.14662Z"
              fill="white"/>
        <path d="M10.8088 4.32667C10.559 4.34848 10.3528 4.39705 10.1576 4.48031C9.67378 4.6865 9.30298 5.05426 9.12058 5.51025C9.00458 5.79871 8.96998 6.00688 8.97788 6.35284C8.98578 6.6869 9.02738 6.90399 9.12958 7.14885C9.21378 7.35005 9.30898 7.48685 9.49438 7.67225C9.85418 8.03105 10.2557 8.22735 10.7593 8.29075C10.902 8.30965 11.1707 8.31455 11.3134 8.30165C12.0807 8.23325 12.615 7.89035 12.9481 7.24995C13.0948 6.96842 13.1523 6.6978 13.1533 6.27353C13.1533 5.99102 13.1414 5.90874 13.0681 5.67778C12.964 5.35363 12.8242 5.12365 12.5843 4.88178C12.273 4.56854 11.938 4.40597 11.4631 4.33955C11.3362 4.32171 10.9516 4.31378 10.8088 4.32667ZM11.2995 4.65181C11.5999 4.73111 11.82 4.94721 11.937 5.27829C12.0133 5.49538 12.0391 5.69166 12.045 6.12286C12.0559 6.85145 12.0083 7.19545 11.8537 7.51265C11.7575 7.70985 11.6366 7.83775 11.4681 7.92005C11.3342 7.98445 11.2688 7.99735 11.0815 7.99735C10.8991 7.99735 10.8009 7.97855 10.674 7.91905C10.4906 7.83475 10.3677 7.72075 10.2924 7.56615C10.1685 7.31335 10.1328 7.13695 10.0931 6.5838C10.0733 6.29633 10.102 5.65993 10.1457 5.44483C10.2378 4.97992 10.5015 4.69443 10.8931 4.63297C10.9912 4.6181 11.2083 4.62802 11.2995 4.65181Z"
              fill="white"/>
        <path d="M25.7974 5.27217V5.71329H28.1914H30.5854V5.27217V4.83105H28.1914H25.7974V5.27217Z"
              fill="white"/>
        <path d="M2.66531 10.1999C2.18361 10.2376 1.83961 10.3437 1.53031 10.5489C1.42031 10.6222 1.19031 10.8512 1.10111 10.9771C0.834414 11.3557 0.730313 11.8633 0.827513 12.3133C0.887013 12.5869 1.03571 12.9011 1.20621 13.1132C1.45991 13.4285 1.79201 13.6128 2.71001 13.9459C3.34241 14.1759 3.63482 14.3127 3.78852 14.4504C3.91832 14.5684 4.03931 14.7617 4.07401 14.9074C4.09781 15.0055 4.09581 15.181 4.07001 15.2801C4.01651 15.4823 3.87772 15.6836 3.70222 15.8134C3.45642 15.9958 3.02221 16.1019 2.68021 16.0632C2.47601 16.0394 2.31941 15.9928 2.14191 15.9016C2.01211 15.8342 1.91201 15.7589 1.80291 15.6449C1.64431 15.4774 1.56301 15.3396 1.38661 14.9372C1.33901 14.8281 1.29641 14.7349 1.29241 14.73C1.28741 14.726 1.18831 14.725 1.06941 14.729L0.855213 14.7359L0.861214 14.9709C0.864214 15.0997 0.874113 15.3961 0.882013 15.631C0.898913 16.1009 0.899914 16.1058 0.963314 16.1485C0.982114 16.1604 1.02182 16.1802 1.05252 16.1911C1.15862 16.2307 1.78311 16.4112 1.88221 16.43C2.32631 16.5172 2.72681 16.5301 3.14611 16.4726C3.52581 16.4201 3.85891 16.2724 4.24151 15.9889C4.55971 15.753 4.71731 15.516 4.82141 15.1156C4.93641 14.6715 4.91861 14.1481 4.77681 13.8121C4.69451 13.6168 4.48341 13.3392 4.30501 13.1915C4.04621 12.9784 3.59621 12.7623 3.05201 12.5928C2.37791 12.3817 2.07161 12.2171 1.87731 11.9594C1.67501 11.6928 1.65322 11.3607 1.81882 11.0792C1.86142 11.0078 2.00222 10.8641 2.08052 10.8135C2.37492 10.6212 2.84681 10.5964 3.17491 10.754C3.43461 10.8799 3.60411 11.0514 3.74591 11.3339C3.79741 11.437 3.91041 11.7136 3.94411 11.8196C3.95401 11.8494 3.96302 11.8752 3.96392 11.8771C3.96992 11.8841 4.35351 11.9089 4.37731 11.9039C4.40011 11.898 4.40511 11.891 4.41201 11.8514C4.44371 11.665 4.37631 10.876 4.30001 10.5399L4.28411 10.4715L4.12951 10.421C3.69931 10.2822 3.27501 10.2049 2.90821 10.1989C2.80211 10.1979 2.69311 10.1979 2.66531 10.1999Z"
              fill="white"/>
        <path d="M27.4379 10.2227C27.4319 10.2276 27.2763 10.3089 27.0909 10.4031C26.8272 10.5379 26.7023 10.5944 26.516 10.6658L26.2781 10.757V10.868V10.979L26.4416 11.0405C26.7152 11.1446 26.7578 11.1644 26.7727 11.1941C26.8134 11.2705 26.8134 11.3012 26.8124 13.4998C26.8114 15.4467 26.8044 16.1951 26.7826 16.4459L26.7757 16.5282H26.8956H27.0156L27.0998 16.3914C27.2783 16.1019 27.3556 15.977 27.3685 15.9592C27.3814 15.9414 27.3923 15.9463 27.5787 16.0554C27.8949 16.2387 28.1031 16.3339 28.3301 16.3983C28.5363 16.4558 28.6027 16.4638 28.8802 16.4628C29.2639 16.4618 29.4562 16.435 29.6624 16.3537C29.9697 16.2318 30.2175 16.0653 30.4574 15.8175C30.847 15.416 31.077 14.7627 31.0413 14.162C31.0264 13.9122 30.9878 13.7387 30.9075 13.5494C30.7826 13.257 30.6577 13.0686 30.4693 12.8892C30.2958 12.7257 30.0877 12.5938 29.8874 12.5244C29.6594 12.4441 29.2817 12.4055 29.024 12.4342C28.79 12.461 28.6493 12.5056 28.3796 12.6374C28.1804 12.7346 28.0584 12.8218 27.881 12.9933L27.8195 13.0528L27.8255 12.801C27.8295 12.6622 27.8265 12.2042 27.8205 11.7849C27.8146 11.3646 27.8086 10.8442 27.8086 10.6271V10.2326L27.7839 10.2237C27.7521 10.2108 27.4498 10.2108 27.4379 10.2227ZM28.8763 13.024C29.1846 13.0736 29.4602 13.254 29.6287 13.5147C29.7556 13.71 29.8567 13.9945 29.8963 14.2592C29.9271 14.4763 29.9043 14.8975 29.8468 15.1355C29.8061 15.306 29.7169 15.5221 29.6366 15.643C29.5861 15.7193 29.4453 15.865 29.3789 15.9096C29.1747 16.0454 28.9139 16.1208 28.6929 16.1089C28.4569 16.096 28.224 15.985 28.0535 15.8046C27.9385 15.6816 27.8919 15.5756 27.8701 15.3833C27.8423 15.1404 27.8245 14.3087 27.8354 13.7288L27.8423 13.3264L27.8899 13.2907C27.9871 13.2193 28.2567 13.0984 28.4183 13.0528C28.5769 13.0082 28.7236 12.9993 28.8763 13.024Z"
              fill="white"/>
        <path d="M10.9775 10.2496C10.8149 10.2843 10.6653 10.3993 10.5978 10.543C10.5542 10.6352 10.5413 10.6956 10.5413 10.8166C10.5413 11.0039 10.5949 11.1308 10.7337 11.2706C10.8437 11.3816 10.9478 11.4381 11.0707 11.4559C11.2482 11.4817 11.4425 11.4113 11.5842 11.2696C11.6506 11.2032 11.7171 11.0793 11.7468 10.9672C11.7716 10.8731 11.7696 10.7115 11.7428 10.6382C11.6873 10.4855 11.5475 10.3438 11.3919 10.2823C11.2729 10.2357 11.1044 10.2218 10.9775 10.2496Z"
              fill="white"/>
        <path d="M15.0715 10.4694V10.6468L15.129 10.6627C15.1597 10.6716 15.2569 10.6924 15.3441 10.7093C15.6633 10.7707 15.6921 10.7767 15.7466 10.7975C15.8636 10.8421 15.9538 10.965 15.9736 11.1058C16.0004 11.2971 16.0707 13.4729 16.0826 14.4612C16.0975 15.6993 16.0975 15.6408 16.0787 15.7231C16.0628 15.7895 16.0579 15.7974 16.0202 15.8212C15.9399 15.8718 15.7585 15.9461 15.5107 16.0294L15.2608 16.1137L15.2539 16.1493C15.246 16.189 15.2559 16.4249 15.2658 16.4408C15.2737 16.4527 15.3649 16.4467 15.6316 16.414C16.2442 16.3387 16.9034 16.3307 17.639 16.3892C17.9919 16.417 18.1485 16.4229 18.2318 16.411C18.2724 16.4051 18.3061 16.3991 18.3081 16.3972C18.3101 16.3952 18.316 16.3496 18.323 16.2951C18.3309 16.2227 18.3309 16.1731 18.324 16.1127C18.318 16.0671 18.3111 16.0274 18.3091 16.0254C18.3071 16.0235 18.1098 15.9977 17.8709 15.9679C17.631 15.9382 17.4219 15.9114 17.405 15.9085L17.3743 15.9035L17.3634 15.7568C17.3555 15.6626 17.3515 15.2532 17.3515 14.595C17.3515 14.036 17.3475 13.5324 17.3426 13.4749C17.3386 13.4174 17.3366 13.3123 17.3396 13.242C17.3416 13.1706 17.3366 12.6274 17.3267 12.0346L17.3099 10.9551L17.3386 10.8996C17.3634 10.849 17.3733 10.8401 17.4308 10.8114C17.52 10.7678 17.6261 10.7479 17.8124 10.742C18.1088 10.7321 18.4052 10.7955 18.5966 10.9085C18.7661 11.0086 18.9395 11.2584 19.0099 11.5023C19.0605 11.6768 19.0704 11.767 19.0704 12.0277C19.0704 12.2844 19.0585 12.3776 19.006 12.5382C18.888 12.894 18.5966 13.125 18.1961 13.1785C18.1108 13.1904 17.8005 13.1855 17.7143 13.1706L17.6756 13.1646L17.6826 13.3173C17.6935 13.5502 17.6895 13.5403 17.7777 13.5909C18.201 13.8298 18.8176 13.8784 19.3152 13.7128C19.4342 13.6732 19.5888 13.6008 19.688 13.5374C19.9378 13.3797 20.1807 13.1101 20.3095 12.8474C20.4899 12.4777 20.5454 11.9672 20.4433 11.6163C20.365 11.3486 20.2015 11.0473 20.025 10.8471C19.8168 10.6092 19.5363 10.4624 19.121 10.3722C18.8523 10.3148 18.3547 10.288 18.0008 10.3128C17.5577 10.3445 17.2791 10.3544 16.727 10.3594C16.1372 10.3643 16.1193 10.3633 15.6663 10.3336C15.4125 10.3167 15.1756 10.3009 15.1389 10.2969L15.0715 10.291V10.4694Z"
              fill="white"/>
        <path d="M11.2251 12.303C11.0447 12.4656 10.9009 12.5637 10.7304 12.639C10.6115 12.6906 10.439 12.7451 10.3081 12.7719C10.2199 12.7907 9.98888 12.8214 9.94428 12.8214C9.92848 12.8214 9.92648 12.8343 9.92648 12.9543V13.0871L9.99888 13.094C10.2259 13.1148 10.3646 13.1446 10.4558 13.1902C10.5817 13.2536 10.5936 13.2725 10.6055 13.4162C10.6144 13.5312 10.6184 15.2818 10.6095 15.5722C10.6006 15.8855 10.5936 15.9251 10.5371 15.9786C10.5143 16.0005 10.4737 16.0262 10.4469 16.0351C10.4192 16.0451 10.2794 16.0679 10.1356 16.0877C9.99188 16.1065 9.87198 16.1234 9.87098 16.1254C9.86998 16.1263 9.87098 16.1957 9.87398 16.279L9.87988 16.4297H9.91558C9.93538 16.4287 10.0226 16.4217 10.1099 16.4138C10.3349 16.393 10.9505 16.3861 11.4184 16.3999C11.6365 16.4059 11.9249 16.4138 12.0587 16.4168L12.3026 16.4227L12.3085 16.3246C12.3204 16.1541 12.3244 16.167 12.259 16.1491C12.2273 16.1402 12.1589 16.1263 12.1073 16.1174C11.9497 16.0917 11.7584 16.052 11.6949 16.0322L11.6345 16.0133L11.6275 15.938C11.6176 15.8171 11.6206 15.4275 11.6374 14.5165C11.6523 13.7047 11.6513 12.7649 11.6345 12.3674L11.6285 12.2168H11.4739L11.3192 12.2177L11.2251 12.303Z"
              fill="white"/>
        <path d="M7.79537 12.4112C6.99337 12.4697 6.35407 12.8226 5.94567 13.4322C5.73347 13.7484 5.59277 14.2044 5.59277 14.5752C5.59367 14.938 5.72757 15.396 5.91687 15.6805C6.19347 16.0948 6.72777 16.4011 7.35427 16.5042C7.50397 16.529 7.87767 16.529 8.04817 16.5052C8.51707 16.4368 8.87787 16.2624 9.17817 15.958C9.32687 15.8064 9.43597 15.6369 9.49937 15.4555L9.52917 15.3692L9.48747 15.3335C9.46467 15.3137 9.39927 15.275 9.34277 15.2473L9.24067 15.1977L9.21787 15.2205C9.20597 15.2334 9.12567 15.3236 9.04047 15.4208C8.91257 15.5655 8.86997 15.6061 8.79857 15.6537C8.55167 15.8202 8.42387 15.8579 8.10267 15.8579C7.95897 15.8589 7.90147 15.8549 7.83497 15.8401C7.58327 15.7856 7.38097 15.6686 7.17087 15.4584C6.90817 15.1947 6.77237 14.9142 6.70797 14.5058C6.68117 14.3323 6.68417 13.9586 6.71287 13.798C6.76937 13.4897 6.89027 13.2578 7.09747 13.0575C7.20757 12.9514 7.29177 12.892 7.40977 12.8355C7.55647 12.7671 7.64567 12.7472 7.81027 12.7472C7.92817 12.7472 7.95797 12.7512 8.00747 12.7691C8.17107 12.8295 8.27517 12.9495 8.36537 13.1824C8.40797 13.2925 8.47537 13.4144 8.53187 13.4848C8.59537 13.5621 8.70837 13.6414 8.80247 13.6741C8.89277 13.7048 9.05927 13.7078 9.14347 13.6791C9.30217 13.6255 9.40717 13.5006 9.44587 13.3202C9.49047 13.1101 9.43897 12.9524 9.26837 12.773C9.05627 12.55 8.78467 12.4499 8.30097 12.4142C8.17697 12.4052 7.90047 12.4033 7.79537 12.4112Z"
              fill="white"/>
        <path d="M21.0192 12.6068L20.9845 12.6197L20.9726 12.7079C20.9557 12.8428 20.9567 12.8844 20.9785 12.9042C21.0063 12.929 21.0985 12.9558 21.2967 12.9954C21.3919 13.0152 21.4821 13.037 21.497 13.045C21.5178 13.0559 21.5287 13.0737 21.5446 13.1263C21.5763 13.2274 21.5822 13.6506 21.5594 14.1938C21.5376 14.7004 21.5426 15.3685 21.5693 15.5548C21.604 15.7967 21.6586 15.9474 21.7597 16.0802C21.9242 16.2953 22.1859 16.447 22.4913 16.5045C22.64 16.5322 22.9086 16.5302 23.0583 16.5005C23.3943 16.4331 23.6878 16.2656 24.0813 15.9167C24.1537 15.8522 24.2241 15.7918 24.237 15.7818L24.2607 15.763V15.872C24.2607 15.9315 24.2637 16.101 24.2677 16.2487L24.2736 16.5164L24.3638 16.5233L24.4541 16.5293L24.6355 16.4648C24.9685 16.3449 25.4612 16.2051 25.6337 16.1823C25.6724 16.1774 25.7507 16.1694 25.8092 16.1665L25.9152 16.1595L25.9222 16.106C25.9252 16.0772 25.9242 16.0118 25.9202 15.9613L25.9113 15.8691H25.6525C25.3601 15.8691 25.372 15.872 25.3284 15.7898C25.3046 15.7452 25.3046 15.7392 25.3145 15.3041C25.3234 14.967 25.3314 12.7179 25.3254 12.6524L25.3195 12.5979L24.5294 12.5989C24.0952 12.5989 23.7126 12.6029 23.6798 12.6068L23.6194 12.6148L23.6124 12.6663C23.5976 12.7902 23.6114 12.9042 23.6451 12.931C23.66 12.9429 23.6937 12.9498 23.7621 12.9548C24.0714 12.9746 24.1805 12.9934 24.2707 13.039L24.3083 13.0579L24.3153 13.4871C24.3212 13.8281 24.3182 14.062 24.3014 14.6231C24.2776 15.42 24.2885 15.3378 24.1904 15.4775C24.12 15.5776 24.0476 15.648 23.9287 15.7323C23.7215 15.878 23.5995 15.9345 23.439 15.9583C23.0593 16.0158 22.7817 15.9048 22.6558 15.6441C22.6241 15.5776 22.6132 15.541 22.6013 15.4508C22.5676 15.2069 22.5626 14.9849 22.5686 13.7815L22.5735 12.6048L22.5289 12.5989C22.5041 12.5959 22.1621 12.593 21.7686 12.5939C21.2204 12.5939 21.0459 12.5969 21.0192 12.6068Z"
              fill="white"/>
    </mask>
    <g mask="url(#mask0)">
        <path d="M35 -2H-4V21H35V-2Z" fill="white"/>
    </g>
</svg>
