<svg width="94" height="148" viewBox="0 0 94 148" fill="none" xmlns="http://www.w3.org/2000/svg">
    <g filter="url(#filter0_d)">
        <path fill-rule="evenodd" clip-rule="evenodd" d="M9.12857 0C5.78571 0 3 2.77559 3 7.77165V141L42 112.689L81.4444 141V7.21654C81.4444 1.8874 85.1481 0.185039 87 0H42H9.12857Z" fill="#031435"/>
        <path d="M3 141H2.5V141.981L3.29373 141.405L3 141ZM42 112.689L42.2915 112.283L41.9983 112.072L41.7063 112.284L42 112.689ZM81.4444 141L81.1529 141.406L81.9444 141.974V141H81.4444ZM87 0L87.0497 0.497522L87 -0.5V0ZM3.5 7.77165C3.5 5.36486 4.17033 3.54459 5.19259 2.33506C6.21127 1.12977 7.60338 0.5 9.12857 0.5V-0.5C7.3109 -0.5 5.63873 0.258025 4.42884 1.68955C3.22253 3.11683 2.5 5.18239 2.5 7.77165H3.5ZM3.5 141V7.77165H2.5V141H3.5ZM41.7063 112.284L2.70627 140.595L3.29373 141.405L42.2937 113.094L41.7063 112.284ZM41.7085 113.095L81.1529 141.406L81.736 140.594L42.2915 112.283L41.7085 113.095ZM81.9444 141V7.21654H80.9444V141H81.9444ZM81.9444 7.21654C81.9444 4.67988 82.8207 3.05458 83.8746 2.03934C84.943 1.01023 86.2236 0.580071 87.0497 0.497522L86.9503 -0.497522C85.9246 -0.395032 84.4273 0.118509 83.1809 1.31912C81.9201 2.5336 80.9444 4.42405 80.9444 7.21654H81.9444ZM87 -0.5H42V0.5H87V-0.5ZM9.12857 0.5H42V-0.5H9.12857V0.5Z" fill="white"/>
    </g>
    <mask id="mask0" mask-type="alpha" maskUnits="userSpaceOnUse" x="15" y="30" width="56" height="28">
        <path d="M45.381 30.7587V31.5173H56.6096H67.8381V44.1973V56.8772L67.7673 56.963C67.5379 57.2362 67.1215 57.4469 66.7557 57.4756L66.6242 57.4857V57.6342V57.7842H68.5883H70.5525V57.6342V57.4857L70.4294 57.4756C70.0618 57.4486 69.696 57.2716 69.4465 57.0035L69.3385 56.8872V43.4437V30H57.3598H45.381V30.7587Z" fill="white"/>
        <path d="M53.6591 33.3482C52.5733 33.5977 52.1317 33.682 51.6697 33.7241C51.5719 33.7343 51.4791 33.7461 51.4622 33.7528C51.4371 33.7612 51.4337 33.7882 51.4337 33.945V34.1271L51.4978 34.1524C51.5905 34.1878 51.7085 34.2114 51.8956 34.2316C52.3136 34.2754 52.43 34.4879 52.4975 35.3275C52.516 35.5635 52.5058 37.4989 52.4856 37.6051L52.4772 37.649L52.3153 37.5411C52.0068 37.3388 51.6326 37.182 51.3022 37.1213C51.0762 37.0791 50.5047 37.0707 50.2113 37.1061C49.9196 37.1398 49.6128 37.2005 49.4358 37.2578C49.0058 37.3978 48.5946 37.6743 48.1883 38.0941C47.7027 38.5965 47.4193 39.1259 47.2998 39.7564C47.2676 39.9267 47.2627 40.011 47.2627 40.3431C47.2627 40.8843 47.32 41.2451 47.4751 41.7002C47.6301 42.1504 47.8071 42.4421 48.1292 42.764C48.6046 43.2445 49.0631 43.4991 49.6297 43.5986C50.1657 43.6913 50.8603 43.6644 51.3224 43.5296C51.6022 43.4486 51.8383 43.3406 52.2648 43.0962C52.4114 43.0118 52.5363 42.9496 52.5429 42.9545C52.5497 42.9613 52.5565 43.1569 52.5599 43.3862L52.5648 43.8059L52.6407 43.8178C52.757 43.8347 52.8211 43.8178 53.0504 43.7081C53.2967 43.5918 53.3994 43.5547 53.681 43.4874C53.9322 43.4267 54.1935 43.3811 54.5559 43.3357C54.9032 43.2918 55.2287 43.226 55.2456 43.1974C55.2827 43.1384 55.2995 43.0018 55.2793 42.9175C55.2539 42.818 55.2675 42.8231 54.9405 42.7962C54.6032 42.7674 54.4313 42.7389 54.3149 42.6933L54.2693 42.6748L54.2576 42.3358C54.2442 41.9514 54.2357 37.5478 54.2491 37.0134C54.2525 36.8229 54.2508 36.3002 54.2457 35.8501C54.2391 35.3999 54.2289 34.675 54.2239 34.24C54.2188 33.8034 54.2054 33.4122 54.1969 33.3684C54.1681 33.2437 54.121 33.242 53.6591 33.3482ZM51.3493 37.7215C51.9917 37.885 52.3946 38.4009 52.4772 39.1629C52.5092 39.4782 52.5312 40.4409 52.5261 41.4137L52.5211 42.3814L52.3946 42.4538C52.2092 42.5601 51.9395 42.6748 51.7556 42.7253C51.6141 42.764 51.5617 42.7691 51.341 42.7708C51.0576 42.7708 50.911 42.7489 50.6749 42.6748C50.036 42.4707 49.5521 41.9802 49.3279 41.3041C49.2165 40.9719 49.1577 40.5471 49.1577 40.097C49.1577 39.4007 49.3633 38.7145 49.7123 38.2509C49.9467 37.9407 50.223 37.7754 50.6479 37.6945C50.8215 37.6608 51.1673 37.6743 51.3493 37.7215Z" fill="white"/>
        <path d="M44.9005 33.4137C44.3947 33.7408 43.4877 34.0611 42.7982 34.1556C42.7273 34.164 42.7189 34.1707 42.7087 34.2179C42.7019 34.2466 42.7019 34.3393 42.7087 34.4253C42.7222 34.6124 42.697 34.5956 43.0258 34.6192C43.2972 34.6377 43.3748 34.6546 43.5365 34.7288C43.6528 34.7827 43.6562 34.7844 43.6765 34.8653C43.7135 35.0103 43.7287 35.1267 43.7457 35.3863C43.7709 35.8095 43.803 41.8551 43.7811 42.2395C43.7591 42.6509 43.7186 42.8212 43.6225 42.9275C43.5736 42.9797 43.4101 43.027 43.105 43.0741C42.837 43.1163 42.7577 43.1365 42.6346 43.1989C42.5705 43.2326 42.5655 43.2394 42.5722 43.2899C42.5773 43.3203 42.5858 43.4028 42.5924 43.477L42.6026 43.6103L43.0089 43.6001C43.2331 43.595 43.5197 43.5816 43.6445 43.5699C43.7962 43.5545 44.1503 43.5479 44.6981 43.5496C45.43 43.5496 45.7182 43.5579 46.4567 43.5984L46.6455 43.6086V43.4333C46.6455 43.2765 46.6287 43.1433 46.6067 43.1231C46.6016 43.118 46.4145 43.0926 46.1902 43.0657C45.966 43.0387 45.7553 43.0084 45.7216 42.9965C45.617 42.9628 45.5546 42.9055 45.5141 42.8009L45.4754 42.7031L45.4636 39.4578C45.4519 36.1112 45.44 34.3646 45.4215 33.7122L45.4097 33.3379H45.2141H45.0168L44.9005 33.4137Z" fill="white"/>
        <path d="M22.3339 33.6161C21.511 33.6701 20.5972 33.6852 20.0999 33.6515C19.8875 33.638 19.5773 33.6212 19.4138 33.6144L19.1153 33.6026L19.1068 33.6599C19.1019 33.692 19.0934 33.7982 19.0868 33.8976L19.0766 34.0763L19.1339 34.0882C19.3041 34.1252 19.6751 34.2399 19.7814 34.2905C20.019 34.4001 20.078 34.4911 20.4355 35.2936C20.663 35.8078 20.6935 35.882 21.4183 37.6117C21.8483 38.6402 22.0288 39.0903 22.0237 39.1206C22.0135 39.1746 21.302 40.6313 21.0222 41.1741C20.8772 41.4523 20.8064 41.5754 20.7962 41.5585C20.776 41.5214 18.8624 37.0537 18.6754 36.6086C18.4174 35.9899 18.2269 35.5195 18.0735 35.1166C17.9942 34.9126 17.9115 34.6985 17.8896 34.6395C17.8678 34.5805 17.8491 34.513 17.8491 34.4894C17.8491 34.4203 17.9976 34.2888 18.1949 34.1826C18.4646 34.0376 18.4478 34.0578 18.4815 33.8437C18.5269 33.5588 18.6163 33.5824 17.6367 33.6279C16.895 33.6616 16.7821 33.6633 16.2611 33.6448C15.9475 33.633 15.5681 33.6161 15.418 33.606C15.2124 33.5925 15.1247 33.5942 15.0725 33.6094L15 33.6296L15.01 33.7409C15.0151 33.8016 15.0252 33.9128 15.0303 33.9853L15.042 34.1185L15.2039 34.1893C15.2934 34.2281 15.3895 34.2753 15.418 34.2955C15.4873 34.3461 15.6102 34.5434 15.767 34.8552C15.9373 35.1941 15.8463 34.9834 17.2676 38.3114C17.9469 39.9012 18.5927 41.4 18.7005 41.6412C19.0749 42.469 19.3851 43.2124 19.5436 43.6643L19.616 43.8665H20.0157H20.4135L20.5772 43.5126C20.6664 43.317 20.8806 42.877 21.0542 42.5346C21.3661 41.9142 22.3743 39.9855 22.4012 39.9569C22.408 39.9501 22.4721 40.0597 22.5429 40.2013C22.666 40.4525 23.5765 42.5465 23.7129 42.8904C23.7501 42.9831 23.8309 43.177 23.895 43.3204C23.9574 43.4619 24.0282 43.644 24.0535 43.7233L24.0991 43.8665L24.4969 43.8716L24.8932 43.875L24.9437 43.7452C25.3854 42.6021 26.0665 40.869 26.3919 40.0648C26.6565 39.4089 26.7275 39.237 27.0916 38.3704C27.5484 37.283 27.9177 36.3574 28.3442 35.2262C28.5298 34.7339 28.5954 34.5855 28.6696 34.4877C28.7219 34.4186 28.9427 34.2719 29.113 34.191C29.2766 34.1134 29.3068 34.0595 29.3036 33.8504C29.3002 33.6414 29.2951 33.6313 29.1973 33.6178C29.1502 33.611 28.9427 33.6144 28.7371 33.6245C28.432 33.6397 28.2481 33.638 27.7745 33.6161C27.0984 33.5857 27.0697 33.5891 27.036 33.6886C27.014 33.751 27.0123 33.9314 27.0309 34.0511C27.0443 34.1337 27.0814 34.1522 27.4506 34.2635C27.6074 34.3107 27.7423 34.3562 27.7491 34.363C27.7576 34.3714 27.7676 34.4152 27.7745 34.4624C27.7828 34.5383 27.7693 34.5906 27.6613 34.9159C27.594 35.12 27.2214 36.0927 26.8353 37.0807C26.4492 38.0686 25.9249 39.4208 25.6703 40.085C25.4174 40.751 25.2049 41.2955 25.2 41.2955C25.1949 41.2955 25.1645 41.2281 25.1308 41.1471C24.9859 40.7982 24.1799 38.9065 23.9237 38.3148L23.6438 37.6708L23.6911 37.5646C23.7821 37.3605 24.7784 35.3644 24.9303 35.0829C25.1781 34.6277 25.2893 34.4911 25.5 34.3967C25.6147 34.3444 26.1339 34.1691 26.2941 34.1286C26.3565 34.1134 26.3868 34.0949 26.397 34.0713C26.4138 34.0224 26.4324 33.6869 26.4172 33.665C26.4087 33.6515 26.1761 33.6431 25.6468 33.6363C25.2303 33.6313 24.583 33.6178 24.2086 33.606C23.836 33.5959 23.5241 33.5908 23.5191 33.5975C23.4989 33.6178 23.4819 33.8319 23.4921 33.955L23.5021 34.0747L23.7062 34.1303C24.035 34.2197 24.1767 34.277 24.2642 34.3528L24.3418 34.422L24.3318 34.508C24.3182 34.6091 24.1799 34.9648 24.0215 35.3105C23.8157 35.7572 23.2865 36.8447 23.2763 36.8447C23.2594 36.8447 23.0587 36.3659 22.7756 35.6561C22.6458 35.3307 22.5126 35.0053 22.4771 34.9311C22.3422 34.6378 22.3017 34.395 22.3675 34.2854C22.4164 34.2062 22.5109 34.1708 22.7553 34.1387C23.0521 34.1 23.1077 34.0848 23.128 34.0325C23.1363 34.0089 23.1414 33.8993 23.1397 33.7864L23.1346 33.5824L23.0251 33.5807C22.9643 33.579 22.6541 33.5942 22.3339 33.6161Z" fill="white"/>
        <path d="M57.5706 34.3837V35.1423H61.6422H65.7138V34.3837V33.625H61.6422H57.5706V34.3837Z" fill="white"/>
        <path d="M39.1851 36.6914L39.0334 36.7016L38.9271 36.8364C38.6237 37.2225 38.4922 37.3506 38.1735 37.5681C37.8785 37.7704 37.5683 37.9019 37.2345 37.9677L37.0877 37.9964L37.0945 38.0655C37.0996 38.1026 37.1062 38.1784 37.1113 38.2307C37.1248 38.3504 37.1805 38.4178 37.2901 38.4465C37.4671 38.492 37.7064 38.5713 37.7808 38.6083C37.9374 38.6876 37.9576 38.7668 37.9998 39.4159C38.0303 39.8863 38.0303 42.4134 37.9998 42.6024C37.9762 42.7592 37.9695 42.7675 37.7722 42.8653C37.5918 42.9563 37.4991 42.9918 37.2816 43.0507C37.0406 43.1165 36.9562 43.1638 36.9411 43.243C36.9294 43.307 36.9377 43.5313 36.9528 43.5448C36.9579 43.5516 37.2428 43.5431 37.5852 43.5296C38.7366 43.4823 38.8361 43.4823 39.6251 43.5194C40.0348 43.5397 40.5372 43.5548 40.7428 43.5548H41.1154L41.1357 43.5077C41.1678 43.4301 41.1627 43.216 41.1273 43.1604C41.0683 43.0709 41.0025 43.0541 40.4731 42.9901C40.0247 42.9378 39.8628 42.84 39.7633 42.567C39.728 42.4707 39.7263 42.4371 39.7145 41.4812C39.7077 40.9383 39.6926 40.237 39.6824 39.9217C39.6604 39.2996 39.6638 39.2422 39.7431 39.0028C39.8628 38.6488 40.0667 38.3942 40.2338 38.3959C40.3028 38.3976 40.4157 38.4532 40.5676 38.5645C40.7615 38.7045 40.9047 38.7786 41.0564 38.8174C41.37 38.8983 41.6364 38.8258 41.8405 38.6033C42.1186 38.2981 42.1912 37.848 42.0141 37.5125C41.9417 37.3759 41.7207 37.1669 41.569 37.0927C41.2723 36.9477 40.9335 36.9443 40.6484 37.0843C40.5069 37.1534 40.1545 37.4619 40.0399 37.6153C39.9943 37.6777 39.8865 37.8429 39.8004 37.9829C39.7145 38.1211 39.637 38.2425 39.6285 38.2526C39.6184 38.2627 39.6133 38.0098 39.6167 37.553C39.6184 37.1585 39.615 36.801 39.6082 36.7555L39.5948 36.6763L39.465 36.6796C39.3941 36.6813 39.2694 36.6864 39.1851 36.6914Z" fill="white"/>
        <path d="M32.0788 36.9981C31.6539 37.0352 31.3032 37.1178 30.9712 37.2594C30.1484 37.6101 29.5178 38.2356 29.2075 39.0111C29.0102 39.5017 28.9514 39.8558 28.9648 40.4442C28.9783 41.0123 29.049 41.3815 29.2228 41.798C29.366 42.1402 29.528 42.3728 29.8433 42.6882C30.4552 43.2984 31.1381 43.6323 31.9946 43.7401C32.2373 43.7722 32.6943 43.7806 32.937 43.7586C34.242 43.6423 35.1507 43.0591 35.7172 41.9699C35.9667 41.4911 36.0645 41.0309 36.0662 40.3093C36.0662 39.8288 36.046 39.6888 35.9213 39.296C35.7443 38.7447 35.5065 38.3536 35.0985 37.9422C34.569 37.4095 33.9993 37.133 33.1916 37.02C32.9758 36.9897 32.3216 36.9762 32.0788 36.9981ZM32.9133 37.5511C33.4242 37.686 33.7986 38.0535 33.9976 38.6166C34.1273 38.9858 34.1712 39.3196 34.1812 40.053C34.1998 41.2922 34.1188 41.8772 33.8559 42.4167C33.6923 42.7521 33.4867 42.9696 33.2001 43.1096C32.9724 43.2191 32.8611 43.2411 32.5426 43.2411C32.2323 43.2411 32.0653 43.2091 31.8495 43.1079C31.5376 42.9645 31.3286 42.7707 31.2005 42.5077C30.9898 42.0778 30.9291 41.7777 30.8615 40.837C30.8279 40.348 30.8767 39.2657 30.951 38.8998C31.1076 38.1091 31.5561 37.6236 32.2221 37.5191C32.389 37.4938 32.7582 37.5106 32.9133 37.5511Z" fill="white"/>
        <path d="M57.5706 38.6067V39.3569H61.6422H65.7138V38.6067V37.8564H61.6422H57.5706V38.6067Z" fill="white"/>
        <path d="M18.2285 46.9877C17.4092 47.0518 16.8242 47.2323 16.2981 47.5812C16.111 47.7059 15.7199 48.0954 15.5682 48.3095C15.1146 48.9534 14.9375 49.8167 15.1028 50.5821C15.204 51.0474 15.4569 51.5818 15.7469 51.9425C16.1784 52.4788 16.7432 52.7922 18.3045 53.3588C19.3801 53.7499 19.8774 53.9826 20.1388 54.2168C20.3596 54.4175 20.5653 54.7462 20.6244 54.994C20.6648 55.1609 20.6614 55.4594 20.6176 55.6279C20.5266 55.9718 20.2905 56.3142 19.992 56.5349C19.574 56.8452 18.8355 57.0256 18.2538 56.9598C17.9065 56.9193 17.6402 56.84 17.3383 56.6849C17.1175 56.5703 16.9473 56.4422 16.7617 56.2484C16.492 55.9635 16.3537 55.7291 16.0537 55.0447C15.9728 54.8592 15.9003 54.7007 15.8935 54.6923C15.885 54.6855 15.7165 54.6838 15.5142 54.6906L15.1499 54.7024L15.1601 55.102C15.1652 55.3211 15.1821 55.8252 15.1955 56.2247C15.2243 57.0239 15.226 57.0322 15.3338 57.1049C15.3658 57.1251 15.4333 57.1588 15.4855 57.1773C15.6659 57.2447 16.7281 57.5516 16.8966 57.5836C17.6519 57.7319 18.3331 57.7539 19.0462 57.6561C19.692 57.5668 20.2585 57.3156 20.9092 56.8334C21.4504 56.4322 21.7185 56.0291 21.8955 55.3481C22.0911 54.5928 22.0608 53.7026 21.8197 53.1312C21.6797 52.799 21.3207 52.3269 21.0172 52.0757C20.5771 51.7133 19.8117 51.3457 18.8862 51.0574C17.7397 50.6984 17.2187 50.4185 16.8883 49.9802C16.5442 49.5268 16.5071 48.9619 16.7888 48.4832C16.8612 48.3617 17.1007 48.1173 17.2339 48.0313C17.7346 47.7042 18.5372 47.662 19.0952 47.9301C19.5369 48.1442 19.8252 48.4359 20.0663 48.9164C20.1539 49.0917 20.3461 49.5621 20.4034 49.7424C20.4203 49.7931 20.4356 49.837 20.4371 49.8402C20.4473 49.8521 21.0997 49.8943 21.1402 49.8858C21.179 49.8758 21.1875 49.8638 21.1992 49.7965C21.2531 49.4795 21.1385 48.1376 21.0087 47.5659L20.9817 47.4496L20.7188 47.3637C19.9871 47.1277 19.2654 46.9962 18.6416 46.986C18.4612 46.9843 18.2758 46.9843 18.2285 46.9877Z" fill="white"/>
        <path d="M60.3609 47.0262C60.3507 47.0345 60.086 47.1728 59.7707 47.333C59.3222 47.5623 59.1098 47.6584 58.7929 47.7798L58.3883 47.9349V48.1237V48.3125L58.6664 48.4171C59.1317 48.5941 59.2042 48.6278 59.2295 48.6783C59.2987 48.8083 59.2987 48.8605 59.297 52.5998C59.2953 55.911 59.2834 57.1839 59.2463 57.6104L59.2346 57.7504H59.4385H59.6426L59.7858 57.5177C60.0894 57.0253 60.2209 56.8129 60.2428 56.7826C60.2648 56.7524 60.2833 56.7607 60.6003 56.9463C61.1381 57.258 61.4922 57.4199 61.8783 57.5295C62.229 57.6272 62.3419 57.6409 62.8139 57.6391C63.4665 57.6374 63.7935 57.5919 64.1442 57.4536C64.6669 57.2463 65.0883 56.9631 65.4963 56.5416C66.1589 55.8588 66.5501 54.7477 66.4894 53.726C66.4641 53.3012 66.3984 53.0061 66.2618 52.6841C66.0494 52.1868 65.837 51.8664 65.5166 51.5613C65.2215 51.2832 64.8675 51.0589 64.5269 50.9409C64.1391 50.8043 63.4967 50.7386 63.0584 50.7874C62.6605 50.833 62.4212 50.9089 61.9625 51.133C61.6237 51.2984 61.4162 51.4467 61.1145 51.7383L61.0099 51.8395L61.0201 51.4113C61.0269 51.1752 61.0218 50.3963 61.0116 49.6831C61.0015 48.9683 60.9913 48.0832 60.9913 47.714V47.043L60.9493 47.0279C60.8952 47.006 60.3811 47.006 60.3609 47.0262ZM62.8072 51.7906C63.3316 51.8749 63.8003 52.1817 64.0869 52.6251C64.3027 52.9573 64.4747 53.4411 64.542 53.8913C64.5944 54.2606 64.5556 54.9769 64.4578 55.3817C64.3886 55.6717 64.2369 56.0392 64.1003 56.2449C64.0144 56.3746 63.775 56.6224 63.662 56.6983C63.3147 56.9293 62.8712 57.0575 62.4953 57.0373C62.0939 57.0153 61.6978 56.8265 61.4078 56.5197C61.2123 56.3105 61.133 56.1302 61.0959 55.8032C61.0486 55.3901 61.0184 53.9755 61.0369 52.9893L61.0486 52.3049L61.1296 52.2442C61.2949 52.1227 61.7534 51.9171 62.0283 51.8395C62.298 51.7637 62.5475 51.7486 62.8072 51.7906Z" fill="white"/>
        <path d="M32.3653 47.0716C32.0887 47.1306 31.8343 47.3262 31.7195 47.5706C31.6454 47.7274 31.6234 47.8301 31.6234 48.0359C31.6234 48.3545 31.7146 48.5703 31.9506 48.8081C32.1377 48.9969 32.3148 49.093 32.5238 49.1232C32.8257 49.1671 33.1561 49.0474 33.3971 48.8064C33.5101 48.6935 33.6232 48.4827 33.6737 48.2921C33.7159 48.132 33.7125 47.8572 33.6669 47.7325C33.5725 47.4728 33.3347 47.2318 33.0701 47.1272C32.8677 47.048 32.5811 47.0243 32.3653 47.0716Z" fill="white"/>
        <path d="M39.3285 47.4455V47.7472L39.4263 47.7743C39.4785 47.7894 39.6438 47.8248 39.7921 47.8535C40.335 47.9579 40.384 47.9682 40.4767 48.0035C40.6757 48.0794 40.8291 48.2884 40.8628 48.5279C40.9083 48.8532 41.0279 52.5538 41.0481 54.2346C41.0735 56.3403 41.0735 56.2408 41.0415 56.3808C41.0145 56.4938 41.0061 56.5072 40.942 56.5477C40.8054 56.6337 40.4969 56.7601 40.0755 56.9018L39.6504 57.0451L39.6387 57.1057C39.6253 57.1732 39.6421 57.5744 39.659 57.6015C39.6724 57.6217 39.8275 57.6115 40.2811 57.5559C41.323 57.4278 42.4441 57.4142 43.6952 57.5137C44.2954 57.561 44.5617 57.571 44.7034 57.5508C44.7725 57.5407 44.8298 57.5305 44.8332 57.5273C44.8366 57.5239 44.8466 57.4464 44.8585 57.3537C44.872 57.2305 44.872 57.1462 44.8602 57.0434C44.85 56.9659 44.8383 56.8984 44.8349 56.895C44.8315 56.8917 44.4959 56.8479 44.0896 56.7972C43.6816 56.7467 43.326 56.7011 43.2972 56.6961L43.245 56.6876L43.2265 56.4381C43.213 56.2779 43.2062 55.5816 43.2062 54.4622C43.2062 53.5115 43.1994 52.655 43.1911 52.5572C43.1843 52.4594 43.1809 52.2806 43.186 52.1611C43.1894 52.0396 43.1809 51.1158 43.1641 50.1075L43.1355 48.2716L43.1843 48.1772C43.2265 48.0911 43.2433 48.076 43.3411 48.0272C43.4928 47.953 43.6733 47.9192 43.9901 47.9091C44.4942 47.8923 44.9983 48.0001 45.3239 48.1923C45.6121 48.3626 45.9071 48.7874 46.0268 49.2022C46.1128 49.499 46.1297 49.6524 46.1297 50.0958C46.1297 50.5324 46.1094 50.6909 46.0202 50.9641C45.8195 51.5692 45.3239 51.9621 44.6427 52.0531C44.4976 52.0733 43.9699 52.065 43.8233 52.0396L43.7575 52.0294L43.7694 52.2891C43.7879 52.6852 43.7811 52.6684 43.9311 52.7544C44.651 53.1608 45.6997 53.2434 46.546 52.9618C46.7484 52.8944 47.0114 52.7713 47.1801 52.6635C47.6049 52.3952 48.018 51.9367 48.2371 51.4899C48.5439 50.8612 48.6383 49.9929 48.4647 49.3961C48.3315 48.9408 48.0534 48.4284 47.7532 48.0879C47.3991 47.6833 46.9221 47.4336 46.2157 47.2802C45.7587 47.1826 44.9124 47.137 44.3105 47.1792C43.5569 47.2331 43.0831 47.2499 42.1441 47.2584C41.141 47.2668 41.1106 47.2651 40.3401 47.2145C39.9085 47.1858 39.5055 47.1589 39.4431 47.1521L39.3285 47.1421V47.4455Z" fill="white"/>
        <path d="M32.7867 50.5636C32.4799 50.8401 32.2353 51.007 31.9453 51.1351C31.7431 51.2228 31.4497 51.3155 31.2271 51.3611C31.0771 51.3931 30.6842 51.4453 30.6083 51.4453C30.5815 51.4453 30.5781 51.4672 30.5781 51.6713V51.8972L30.7012 51.9089C31.0873 51.9443 31.3232 51.995 31.4783 52.0725C31.6924 52.1803 31.7126 52.2125 31.7329 52.4569C31.748 52.6525 31.7548 55.6298 31.7397 56.1237C31.7246 56.6566 31.7126 56.7239 31.6166 56.8149C31.5778 56.8522 31.5087 56.8959 31.4631 56.911C31.416 56.928 31.1783 56.9668 30.9337 57.0005C30.6893 57.0325 30.4854 57.0612 30.4837 57.0646C30.482 57.0661 30.4837 57.1842 30.4888 57.3258L30.4988 57.5821H30.5595C30.5932 57.5804 30.7415 57.5685 30.89 57.5551C31.2727 57.5197 32.3196 57.508 33.1154 57.5315C33.4864 57.5417 33.9769 57.5551 34.2044 57.5602L34.6193 57.5702L34.6293 57.4034C34.6495 57.1134 34.6563 57.1354 34.5451 57.1049C34.4912 57.0898 34.3749 57.0661 34.2871 57.051C34.0191 57.0073 33.6937 56.9398 33.5857 56.9061L33.483 56.8739L33.4711 56.7459C33.4542 56.5403 33.4593 55.8776 33.4879 54.3282C33.5132 52.9476 33.5115 51.3492 33.483 50.6731L33.4728 50.417H33.2098L32.9467 50.4185L32.7867 50.5636Z" fill="white"/>
        <path d="M26.9535 50.7482C25.5895 50.8477 24.5022 51.4479 23.8076 52.4847C23.4467 53.0225 23.2074 53.798 23.2074 54.4287C23.2089 55.0457 23.4367 55.8246 23.7586 56.3085C24.229 57.0131 25.1378 57.5341 26.2033 57.7094C26.4579 57.7516 27.0935 57.7516 27.3835 57.7111C28.1809 57.5948 28.7946 57.2982 29.3053 56.7805C29.5582 56.5226 29.7438 56.2344 29.8516 55.9258L29.9023 55.7791L29.8314 55.7183C29.7926 55.6847 29.6814 55.6189 29.5853 55.5717L29.4116 55.4874L29.3728 55.5262C29.3526 55.5481 29.216 55.7015 29.0711 55.8668C28.8536 56.1129 28.7811 56.182 28.6597 56.2629C28.2398 56.5461 28.0224 56.6102 27.4761 56.6102C27.2317 56.6119 27.134 56.6051 27.0209 56.58C26.5928 56.4873 26.2487 56.2883 25.8914 55.9308C25.4446 55.4823 25.2136 55.0052 25.1041 54.3106C25.0585 54.0155 25.0636 53.38 25.1124 53.1068C25.2085 52.5825 25.4141 52.1881 25.7665 51.8474C25.9538 51.667 26.097 51.5659 26.2977 51.4698C26.5472 51.3535 26.6989 51.3197 26.9788 51.3197C27.1794 51.3197 27.23 51.3265 27.3142 51.3569C27.5925 51.4596 27.7695 51.6637 27.9229 52.0598C27.9954 52.2471 28.11 52.4544 28.2061 52.5741C28.3141 52.7056 28.5063 52.8405 28.6663 52.8961C28.8199 52.9483 29.1031 52.9534 29.2463 52.9046C29.5162 52.8134 29.6948 52.601 29.7606 52.2942C29.8365 51.9369 29.7489 51.6687 29.4587 51.3635C29.098 50.9843 28.6361 50.814 27.8134 50.7533C27.6025 50.738 27.1323 50.7348 26.9535 50.7482Z" fill="white"/>
        <path d="M49.4443 51.0808L49.3853 51.1028L49.3651 51.2528C49.3363 51.4822 49.338 51.5529 49.3751 51.5866C49.4224 51.6288 49.5792 51.6744 49.9163 51.7417C50.0782 51.7754 50.2316 51.8125 50.257 51.8261C50.2923 51.8446 50.3109 51.8749 50.3379 51.9644C50.3918 52.1363 50.4019 52.8561 50.3631 53.7799C50.326 54.6415 50.3345 55.7778 50.3799 56.0947C50.4389 56.5061 50.5318 56.7624 50.7038 56.9883C50.9835 57.3541 51.4286 57.6121 51.948 57.7099C52.2009 57.757 52.6578 57.7536 52.9124 57.7031C53.4838 57.5885 53.983 57.3036 54.6522 56.7102C54.7754 56.6005 54.8951 56.4978 54.9171 56.4807L54.9574 56.4488V56.6342C54.9574 56.7354 54.9625 57.0236 54.9693 57.2748L54.9793 57.7301L55.1327 57.7419L55.2863 57.7521L55.5948 57.6424C56.1612 57.4384 56.9991 57.2007 57.2925 57.1619C57.3583 57.1536 57.4915 57.14 57.591 57.135L57.7713 57.1231L57.7832 57.0321C57.7883 56.9832 57.7866 56.8719 57.7798 56.786L57.7647 56.6292H57.3245C56.8272 56.6292 56.8474 56.6342 56.7733 56.4944C56.7328 56.4185 56.7328 56.4083 56.7496 55.6683C56.7648 55.095 56.7784 51.2698 56.7682 51.1584L56.7581 51.0657L55.4144 51.0674C54.6759 51.0674 54.0252 51.0742 53.9694 51.0808L53.8667 51.0944L53.8548 51.182C53.8296 51.3927 53.8531 51.5866 53.9104 51.6322C53.9357 51.6524 53.993 51.6642 54.1094 51.6727C54.6354 51.7064 54.821 51.7383 54.9744 51.8159L55.0383 51.848L55.0502 52.578C55.0603 53.158 55.0552 53.5558 55.0266 54.5101C54.9861 55.8654 55.0046 55.7256 54.8378 55.9632C54.7181 56.1335 54.5949 56.2532 54.3927 56.3966C54.0403 56.6444 53.8328 56.7405 53.5598 56.7809C52.9141 56.8787 52.4419 56.6899 52.2278 56.2466C52.1739 56.1335 52.1554 56.0712 52.1351 55.9178C52.0778 55.503 52.0693 55.1254 52.0795 53.0787L52.0878 51.0774L52.012 51.0674C51.9698 51.0623 51.3881 51.0573 50.7189 51.0589C49.7865 51.0589 49.4897 51.064 49.4443 51.0808Z" fill="white"/>
    </mask>
    <g mask="url(#mask0)">
        <path d="M73.2223 26.2388H6.89246V65.3564H73.2223V26.2388Z" fill="white"/>
    </g>
    <path d="M23.5059 73.291H25.9932C25.9961 73.0186 25.958 72.7534 25.8789 72.4956C25.7998 72.2349 25.6753 72.0034 25.5054 71.8013C25.3384 71.5991 25.123 71.438 24.8594 71.3179C24.5986 71.1948 24.2866 71.1333 23.9233 71.1333C23.7036 71.1333 23.4927 71.1582 23.2905 71.208C23.0884 71.2578 22.9067 71.3369 22.7456 71.4453C22.5874 71.5537 22.4556 71.6914 22.3501 71.8584C22.2446 72.0254 22.1772 72.2246 22.1479 72.4561H21.3042C21.3042 72.2979 21.3276 72.1367 21.3745 71.9727C21.4243 71.8086 21.4976 71.6504 21.5942 71.498C21.6938 71.3428 21.8169 71.1978 21.9634 71.063C22.1128 70.9253 22.2856 70.8066 22.4819 70.707C22.6782 70.6045 22.8979 70.5239 23.1411 70.4653C23.3872 70.4067 23.6567 70.3774 23.9497 70.3774C24.2075 70.3774 24.4595 70.4038 24.7056 70.4565C24.9546 70.5063 25.189 70.5884 25.4087 70.7026C25.6284 70.814 25.8306 70.9575 26.0151 71.1333C26.1997 71.3091 26.3579 71.5215 26.4897 71.7705C26.6216 72.0166 26.7241 72.3022 26.7974 72.6274C26.8735 72.9526 26.9116 73.3188 26.9116 73.7261C26.9116 74.1772 26.8647 74.5771 26.771 74.9258C26.6772 75.2715 26.5513 75.5718 26.3931 75.8267C26.2378 76.0786 26.0576 76.291 25.8525 76.4639C25.6475 76.6338 25.4321 76.7715 25.2065 76.877C24.9839 76.9795 24.7568 77.0527 24.5254 77.0967C24.2969 77.1406 24.0815 77.1626 23.8794 77.1626C23.4634 77.1626 23.0898 77.0938 22.7588 76.9561C22.4307 76.8184 22.1523 76.6353 21.9238 76.4067C21.6953 76.1782 21.5181 75.916 21.3921 75.6201C21.269 75.3213 21.2061 75.0107 21.2031 74.6885H22.0425C22.0425 74.9199 22.0879 75.1396 22.1787 75.3477C22.2725 75.5557 22.4028 75.7388 22.5698 75.897C22.7368 76.0522 22.9346 76.1768 23.1631 76.2705C23.3945 76.3613 23.6479 76.4067 23.9233 76.4067C24.0669 76.4067 24.2178 76.3906 24.376 76.3584C24.5342 76.3262 24.6895 76.2734 24.8418 76.2002C24.9941 76.124 25.1392 76.0259 25.2769 75.9058C25.4175 75.7856 25.5405 75.6392 25.646 75.4663C25.7515 75.2905 25.835 75.0854 25.8965 74.8511C25.958 74.6167 25.9902 74.3486 25.9932 74.0469H23.5059V73.291ZM27.8608 72.2935H28.6694V74.5698L31.0469 72.2935H32.106L29.8955 74.3721L32.1411 77H31.0996L29.2627 74.8643L28.6694 75.3608V77H27.8608V72.2935ZM36.4917 75.3433C36.48 75.4575 36.4565 75.582 36.4214 75.7168C36.3892 75.8516 36.3408 75.9863 36.2764 76.1211C36.2119 76.2529 36.1284 76.3804 36.0259 76.5034C35.9263 76.6265 35.8032 76.7363 35.6567 76.833C35.5132 76.9268 35.3433 77.0015 35.147 77.0571C34.9507 77.1157 34.7266 77.145 34.4746 77.145C34.3369 77.145 34.1919 77.1274 34.0396 77.0923C33.8872 77.0601 33.7378 77.0044 33.5913 76.9253C33.4478 76.8462 33.3101 76.7451 33.1782 76.6221C33.0493 76.4961 32.9351 76.3408 32.8354 76.1562C32.7388 75.9717 32.6611 75.7578 32.6025 75.5146C32.5439 75.2686 32.5146 74.9873 32.5146 74.6709C32.5146 74.2812 32.5703 73.9312 32.6816 73.6206C32.793 73.3071 32.9409 73.042 33.1255 72.8252C33.313 72.6084 33.5298 72.4414 33.7759 72.3242C34.0249 72.207 34.2856 72.1484 34.5581 72.1484C34.8042 72.1484 35.021 72.1748 35.2085 72.2275C35.3989 72.2803 35.5645 72.3506 35.7051 72.4385C35.8457 72.5264 35.9644 72.6289 36.061 72.7461C36.1577 72.8604 36.2354 72.9819 36.2939 73.1108C36.3555 73.2368 36.4009 73.3657 36.4302 73.4976C36.4624 73.6294 36.4829 73.7554 36.4917 73.8755H35.7358C35.6948 73.5562 35.5835 73.3057 35.4019 73.124C35.2231 72.9424 34.9712 72.8516 34.646 72.8516C34.4233 72.8516 34.2285 72.897 34.0615 72.9878C33.8975 73.0786 33.7598 73.2061 33.6484 73.3701C33.54 73.5312 33.458 73.7275 33.4023 73.959C33.3496 74.1875 33.3232 74.4395 33.3232 74.7148C33.3232 75.0254 33.3525 75.2935 33.4111 75.519C33.4697 75.7417 33.5532 75.9263 33.6616 76.0728C33.77 76.2163 33.9019 76.3232 34.0571 76.3936C34.2153 76.4609 34.394 76.4946 34.5933 76.4946C34.7339 76.4946 34.8672 76.4697 34.9932 76.4199C35.1191 76.3672 35.2319 76.2925 35.3315 76.1958C35.4312 76.0962 35.5161 75.9746 35.5864 75.8311C35.6567 75.6875 35.7065 75.5249 35.7358 75.3433H36.4917ZM40.2974 72.9966H38.1001V77H37.2915V72.2935H41.1104V77H40.2974V72.9966ZM46.3091 75.4971C46.2769 75.7021 46.2065 75.9028 46.0981 76.0991C45.9897 76.2954 45.8477 76.4712 45.6719 76.6265C45.4961 76.7817 45.2881 76.9062 45.0479 77C44.8105 77.0967 44.5469 77.145 44.2568 77.145C43.9404 77.145 43.6475 77.0938 43.3779 76.9912C43.1113 76.8857 42.8799 76.729 42.6836 76.521C42.4902 76.3101 42.3379 76.0464 42.2266 75.73C42.1152 75.4136 42.0596 75.0415 42.0596 74.6138C42.0596 74.3267 42.0903 74.0674 42.1519 73.8359C42.2163 73.6016 42.3013 73.3936 42.4067 73.2119C42.5151 73.0273 42.6396 72.8691 42.7803 72.7373C42.9209 72.6025 43.0688 72.4927 43.2241 72.4077C43.3823 72.3198 43.5435 72.2554 43.7075 72.2144C43.8716 72.1704 44.0298 72.1484 44.1821 72.1484C44.5044 72.1484 44.7988 72.1968 45.0654 72.2935C45.332 72.3901 45.5605 72.5381 45.751 72.7373C45.9443 72.9336 46.0938 73.1812 46.1992 73.48C46.3076 73.7759 46.3618 74.1245 46.3618 74.5259V74.9302H42.9209C42.9238 75.1587 42.9561 75.3667 43.0176 75.5542C43.0791 75.7388 43.167 75.897 43.2812 76.0288C43.3955 76.1606 43.5332 76.2632 43.6943 76.3364C43.8584 76.4067 44.043 76.4419 44.248 76.4419C44.4561 76.4419 44.6318 76.4126 44.7754 76.354C44.9189 76.2954 45.0391 76.2207 45.1357 76.1299C45.2324 76.0391 45.3101 75.938 45.3687 75.8267C45.4302 75.7153 45.4814 75.6055 45.5225 75.4971H46.3091ZM45.5488 74.2842C45.543 74.0557 45.5078 73.8521 45.4434 73.6733C45.3818 73.4946 45.2939 73.3452 45.1797 73.2251C45.0684 73.1021 44.9336 73.0098 44.7754 72.9482C44.6172 72.8838 44.4414 72.8516 44.248 72.8516C44.0635 72.8516 43.8936 72.8882 43.7383 72.9614C43.583 73.0317 43.4468 73.1313 43.3296 73.2603C43.2124 73.3862 43.1187 73.5371 43.0483 73.7129C42.978 73.8857 42.9355 74.0762 42.9209 74.2842H45.5488ZM47.2671 72.2935H48.0757V72.9395H48.0933C48.146 72.8311 48.2119 72.7285 48.291 72.6318C48.373 72.5352 48.4697 72.4517 48.5811 72.3813C48.6953 72.3081 48.8257 72.251 48.9722 72.21C49.1216 72.1689 49.2915 72.1484 49.4819 72.1484C49.7339 72.1484 49.9756 72.1968 50.207 72.2935C50.4385 72.3901 50.6436 72.5352 50.8223 72.7285C51.001 72.9219 51.1431 73.165 51.2485 73.458C51.354 73.748 51.4067 74.0864 51.4067 74.4731C51.4067 74.9565 51.3569 75.3682 51.2573 75.708C51.1606 76.0449 51.0215 76.3203 50.8398 76.5342C50.6611 76.748 50.4443 76.9033 50.1895 77C49.9346 77.0967 49.6504 77.145 49.3369 77.145C49.1816 77.145 49.0366 77.1245 48.9019 77.0835C48.7671 77.0425 48.6455 76.9897 48.5371 76.9253C48.4316 76.8579 48.3408 76.7847 48.2646 76.7056C48.1885 76.6235 48.1313 76.5444 48.0933 76.4683H48.0757V78.8545H47.2671V72.2935ZM48.0581 74.6709C48.0581 74.9258 48.083 75.1616 48.1328 75.3784C48.1826 75.5923 48.2588 75.7783 48.3613 75.9365C48.4668 76.0947 48.5972 76.2192 48.7524 76.3101C48.9106 76.3979 49.0967 76.4419 49.3105 76.4419C49.5332 76.4419 49.7251 76.3979 49.8862 76.3101C50.0503 76.2192 50.1851 76.0947 50.2905 75.9365C50.396 75.7783 50.4736 75.5923 50.5234 75.3784C50.5732 75.1616 50.5981 74.9258 50.5981 74.6709C50.5981 74.4043 50.5732 74.1597 50.5234 73.937C50.4736 73.7144 50.396 73.5225 50.2905 73.3613C50.1851 73.2002 50.0503 73.0757 49.8862 72.9878C49.7251 72.897 49.5332 72.8516 49.3105 72.8516C49.0967 72.8516 48.9106 72.897 48.7524 72.9878C48.5972 73.0757 48.4668 73.2002 48.3613 73.3613C48.2588 73.5225 48.1826 73.7144 48.1328 73.937C48.083 74.1597 48.0581 74.4043 48.0581 74.6709ZM53.5732 72.9966H51.9517V72.2935H56.0034V72.9966H54.3818V77H53.5732V72.9966ZM61.3208 72.2935H62.1294V77H61.3208V72.2935ZM56.8208 72.2935H57.6294V74.0645H59.0444C59.2993 74.0645 59.5278 74.0996 59.73 74.1699C59.9351 74.2373 60.1079 74.3354 60.2485 74.4644C60.3892 74.5903 60.4961 74.7441 60.5693 74.9258C60.6455 75.1045 60.6836 75.3066 60.6836 75.5322C60.6836 75.7607 60.6455 75.9658 60.5693 76.1475C60.4961 76.3262 60.3892 76.48 60.2485 76.6089C60.1079 76.7349 59.9351 76.8315 59.73 76.8989C59.5278 76.9663 59.2993 77 59.0444 77H56.8208V72.2935ZM57.6294 76.354H58.8818C59.0225 76.354 59.1528 76.3394 59.2729 76.3101C59.396 76.2808 59.5015 76.2339 59.5894 76.1694C59.6772 76.1021 59.7461 76.0171 59.7959 75.9146C59.8457 75.8091 59.8706 75.6816 59.8706 75.5322C59.8706 75.3857 59.8442 75.2612 59.7915 75.1587C59.7417 75.0562 59.6699 74.9727 59.5762 74.9082C59.4854 74.8408 59.374 74.7925 59.2422 74.7632C59.1133 74.731 58.9697 74.7148 58.8115 74.7148H57.6294V76.354ZM22.1875 82.2935H24.1914C24.7656 82.2935 25.1948 82.4004 25.479 82.6143C25.7661 82.8281 25.9097 83.1387 25.9097 83.5459C25.9097 83.7627 25.8569 83.9458 25.7515 84.0952C25.646 84.2446 25.5068 84.3765 25.334 84.4907C25.583 84.5845 25.7808 84.7192 25.9272 84.895C26.0737 85.0708 26.147 85.2979 26.147 85.5762C26.147 85.7959 26.1104 85.9937 26.0371 86.1694C25.9639 86.3452 25.8525 86.4946 25.7031 86.6177C25.5537 86.7407 25.3633 86.8359 25.1318 86.9033C24.9033 86.9678 24.6323 87 24.3188 87H22.1875V82.2935ZM22.9961 86.354H24.2266C24.4404 86.354 24.6177 86.3379 24.7583 86.3057C24.9019 86.2705 25.0161 86.2207 25.1011 86.1562C25.186 86.0918 25.2461 86.0142 25.2812 85.9233C25.3164 85.8325 25.334 85.73 25.334 85.6157C25.334 85.5015 25.3164 85.3989 25.2812 85.3081C25.2461 85.2144 25.186 85.1367 25.1011 85.0752C25.0161 85.0107 24.9019 84.9624 24.7583 84.9302C24.6177 84.895 24.4404 84.8774 24.2266 84.8774H22.9961V86.354ZM22.9961 84.2842H24.2178C24.4902 84.2842 24.7056 84.23 24.8638 84.1216C25.022 84.0132 25.1011 83.8447 25.1011 83.6162C25.1011 83.4873 25.0791 83.3804 25.0352 83.2954C24.9912 83.2075 24.9326 83.1372 24.8594 83.0845C24.7861 83.0317 24.7026 82.9951 24.6089 82.9746C24.5181 82.9512 24.4243 82.9395 24.3276 82.9395H22.9961V84.2842ZM29.623 82.2935H30.4316V84.1919H32.6289V82.2935H33.4419V87H32.6289V84.895H30.4316V87H29.623V82.2935ZM34.624 83.7041C34.6328 83.417 34.687 83.1753 34.7866 82.979C34.8862 82.7798 35.021 82.6187 35.1909 82.4956C35.3608 82.3726 35.5615 82.2847 35.793 82.2319C36.0273 82.1763 36.2822 82.1484 36.5576 82.1484C36.7861 82.1484 37.0073 82.1719 37.2212 82.2188C37.438 82.2656 37.6299 82.3418 37.7969 82.4473C37.9639 82.5498 38.0972 82.6846 38.1968 82.8516C38.2993 83.0156 38.3506 83.2163 38.3506 83.4536V86.1914C38.3506 86.2676 38.3711 86.3335 38.4121 86.3892C38.4531 86.4419 38.519 86.4683 38.6099 86.4683C38.6509 86.4683 38.6934 86.4653 38.7373 86.4595C38.7812 86.4507 38.8267 86.4419 38.8735 86.4331V86.9912C38.8062 87.0088 38.7388 87.0249 38.6714 87.0396C38.6069 87.0542 38.5293 87.0615 38.4385 87.0615C38.2979 87.0615 38.1763 87.0498 38.0737 87.0264C37.9741 87.0029 37.8892 86.9648 37.8188 86.9121C37.7515 86.8564 37.6987 86.7861 37.6606 86.7012C37.6226 86.6133 37.5977 86.5063 37.5859 86.3804C37.4863 86.4888 37.3809 86.5898 37.2695 86.6836C37.1582 86.7744 37.0337 86.855 36.896 86.9253C36.7583 86.9927 36.6045 87.0454 36.4346 87.0835C36.2646 87.1245 36.0728 87.145 35.8589 87.145C35.6772 87.145 35.5 87.1157 35.3271 87.0571C35.1572 86.9985 35.0034 86.9121 34.8657 86.7979C34.731 86.6836 34.6226 86.543 34.5405 86.376C34.4585 86.2061 34.4175 86.0098 34.4175 85.7871C34.4175 85.5439 34.4585 85.3345 34.5405 85.1587C34.6226 84.98 34.7295 84.832 34.8613 84.7148C34.9932 84.5947 35.144 84.5024 35.314 84.438C35.4839 84.3735 35.6567 84.3311 35.8325 84.3105L37.1553 84.1479C37.2812 84.1333 37.3794 84.085 37.4497 84.0029C37.5229 83.918 37.5596 83.7832 37.5596 83.5986C37.5596 83.3145 37.4658 83.1108 37.2783 82.9878C37.0938 82.8618 36.8271 82.7988 36.4785 82.7988C36.1211 82.7988 35.8545 82.875 35.6787 83.0273C35.5029 83.1768 35.4033 83.4023 35.3799 83.7041H34.624ZM37.542 84.605C37.4775 84.6519 37.397 84.6914 37.3003 84.7236C37.2065 84.7529 37.1025 84.7778 36.9883 84.7983C36.874 84.8188 36.7524 84.8379 36.6235 84.8555C36.4946 84.8701 36.3657 84.8862 36.2368 84.9038C36.0903 84.9243 35.9556 84.9536 35.8325 84.9917C35.7095 85.0298 35.6025 85.0796 35.5117 85.1411C35.4209 85.2026 35.3506 85.2773 35.3008 85.3652C35.251 85.4502 35.2261 85.5513 35.2261 85.6685C35.2261 85.8032 35.2466 85.9219 35.2876 86.0244C35.3315 86.127 35.3901 86.2134 35.4634 86.2837C35.5396 86.354 35.6304 86.4067 35.7358 86.4419C35.8413 86.4771 35.957 86.4946 36.083 86.4946C36.1621 86.4946 36.2529 86.4858 36.3555 86.4683C36.458 86.4478 36.5635 86.4185 36.6719 86.3804C36.7803 86.3423 36.8857 86.2939 36.9883 86.2354C37.0938 86.1738 37.1875 86.1006 37.2695 86.0156C37.3516 85.9307 37.4175 85.834 37.4673 85.7256C37.5171 85.6172 37.542 85.4956 37.542 85.3608V84.605ZM39.1504 82.2935H40.0381L41.2905 86.1255H41.3081L42.5605 82.2935H43.4482L41.6509 87.189C41.5601 87.4351 41.4766 87.6489 41.4004 87.8306C41.3242 88.0122 41.2495 88.166 41.1763 88.292C41.103 88.4209 41.0283 88.5249 40.9521 88.604C40.8789 88.6831 40.7969 88.7446 40.7061 88.7886C40.6182 88.8354 40.5186 88.8662 40.4072 88.8809C40.2988 88.8984 40.1729 88.9072 40.0293 88.9072C39.9121 88.9072 39.8198 88.9014 39.7524 88.8896C39.688 88.8809 39.6309 88.8691 39.5811 88.8545V88.125C39.6338 88.1426 39.7026 88.1602 39.7876 88.1777C39.8726 88.1953 39.9619 88.2041 40.0557 88.2041C40.2051 88.2041 40.3252 88.1675 40.416 88.0942C40.5098 88.0239 40.5815 87.9229 40.6313 87.791L40.895 87.1274L39.1504 82.2935ZM46.9771 85.1016C46.8013 85.1484 46.6079 85.188 46.397 85.2202C46.189 85.2524 45.9941 85.2686 45.8125 85.2686C45.1826 85.2686 44.7153 85.1484 44.4106 84.9082C44.106 84.665 43.9536 84.2827 43.9536 83.7612V82.2935H44.7622V83.5986C44.7622 83.7744 44.7827 83.9268 44.8237 84.0557C44.8677 84.1846 44.938 84.2915 45.0347 84.3765C45.1313 84.4585 45.2588 84.52 45.417 84.561C45.5752 84.6021 45.77 84.6226 46.0015 84.6226C46.063 84.6226 46.1362 84.6167 46.2212 84.605C46.3091 84.5933 46.3984 84.5786 46.4893 84.561C46.5801 84.5435 46.668 84.5244 46.7529 84.5039C46.8408 84.4805 46.9155 84.457 46.9771 84.4336V82.2935H47.79V87H46.9771V85.1016ZM48.9854 82.2935H49.7939V84.1919H51.9912V82.2935H52.8042V87H51.9912V84.895H49.7939V87H48.9854V82.2935ZM58.4951 82.2935H59.3037V87H58.4951V82.2935ZM53.9951 82.2935H54.8037V84.0645H56.2188C56.4736 84.0645 56.7021 84.0996 56.9043 84.1699C57.1094 84.2373 57.2822 84.3354 57.4229 84.4644C57.5635 84.5903 57.6704 84.7441 57.7437 84.9258C57.8198 85.1045 57.8579 85.3066 57.8579 85.5322C57.8579 85.7607 57.8198 85.9658 57.7437 86.1475C57.6704 86.3262 57.5635 86.48 57.4229 86.6089C57.2822 86.7349 57.1094 86.8315 56.9043 86.8989C56.7021 86.9663 56.4736 87 56.2188 87H53.9951V82.2935ZM54.8037 86.354H56.0562C56.1968 86.354 56.3271 86.3394 56.4473 86.3101C56.5703 86.2808 56.6758 86.2339 56.7637 86.1694C56.8516 86.1021 56.9204 86.0171 56.9702 85.9146C57.02 85.8091 57.0449 85.6816 57.0449 85.5322C57.0449 85.3857 57.0186 85.2612 56.9658 85.1587C56.916 85.0562 56.8442 84.9727 56.7505 84.9082C56.6597 84.8408 56.5483 84.7925 56.4165 84.7632C56.2876 84.731 56.144 84.7148 55.9858 84.7148H54.8037V86.354ZM62.103 85.2466L60.9956 87H59.9937L61.6416 84.5874L60.0771 82.2935H61.0923L62.2085 83.9326L63.272 82.2935H64.2432L62.6523 84.5874L64.3179 87H63.2983L62.103 85.2466ZM19.1948 92.9966H16.9976V97H16.189V92.2935H20.0078V97H19.1948V92.9966ZM20.7065 92.2935H21.5942L22.8467 96.1255H22.8643L24.1167 92.2935H25.0044L23.207 97.189C23.1162 97.4351 23.0327 97.6489 22.9565 97.8306C22.8804 98.0122 22.8057 98.166 22.7324 98.292C22.6592 98.4209 22.5845 98.5249 22.5083 98.604C22.4351 98.6831 22.353 98.7446 22.2622 98.7886C22.1743 98.8354 22.0747 98.8662 21.9634 98.8809C21.855 98.8984 21.729 98.9072 21.5854 98.9072C21.4683 98.9072 21.376 98.9014 21.3086 98.8896C21.2441 98.8809 21.187 98.8691 21.1372 98.8545V98.125C21.1899 98.1426 21.2588 98.1602 21.3438 98.1777C21.4287 98.1953 21.5181 98.2041 21.6118 98.2041C21.7612 98.2041 21.8813 98.1675 21.9722 98.0942C22.0659 98.0239 22.1377 97.9229 22.1875 97.791L22.4512 97.1274L20.7065 92.2935ZM29.355 90.4829C29.3491 90.5269 29.3403 90.5811 29.3286 90.6455C29.3198 90.707 29.3008 90.7729 29.2715 90.8433C29.2422 90.9136 29.2012 90.9854 29.1484 91.0586C29.0986 91.1289 29.0312 91.1948 28.9463 91.2563C28.8994 91.2886 28.8569 91.3164 28.8188 91.3398C28.7808 91.3633 28.7324 91.3838 28.6738 91.4014C28.6152 91.4189 28.5405 91.4336 28.4497 91.4453C28.3589 91.457 28.2373 91.4644 28.085 91.4673L27.751 91.4761C27.5225 91.4819 27.3159 91.5288 27.1313 91.6167C26.9497 91.7017 26.7886 91.8218 26.6479 91.9771C26.5103 92.1294 26.396 92.314 26.3052 92.5308C26.2144 92.7476 26.147 92.9893 26.103 93.2559C26.1646 93.1387 26.2407 93.0244 26.3315 92.9131C26.4224 92.7988 26.5352 92.6978 26.6699 92.6099C26.8047 92.519 26.9629 92.4473 27.1445 92.3945C27.3262 92.3389 27.5371 92.311 27.7773 92.311C28.0498 92.311 28.3076 92.3594 28.5508 92.4561C28.7969 92.5527 29.0107 92.6978 29.1924 92.8911C29.377 93.0845 29.5234 93.3247 29.6318 93.6118C29.7402 93.8989 29.7944 94.2329 29.7944 94.6138C29.7944 94.7339 29.7856 94.8804 29.7681 95.0532C29.7505 95.2231 29.7153 95.4019 29.6626 95.5894C29.6099 95.7769 29.5337 95.9644 29.4341 96.1519C29.3374 96.3364 29.207 96.502 29.043 96.6484C28.8818 96.7949 28.6841 96.9136 28.4497 97.0044C28.2183 97.0981 27.9399 97.145 27.6147 97.145C27.48 97.145 27.3364 97.1333 27.1841 97.1099C27.0347 97.0894 26.8838 97.0498 26.7314 96.9912C26.582 96.9326 26.4355 96.8506 26.292 96.7451C26.1514 96.6396 26.0225 96.5049 25.9053 96.3408C25.8467 96.2588 25.7881 96.165 25.7295 96.0596C25.6738 95.9512 25.6226 95.8208 25.5757 95.6685C25.5288 95.5161 25.4907 95.3359 25.4614 95.1279C25.4351 94.9199 25.4219 94.6738 25.4219 94.3896C25.4219 94.2021 25.4307 93.9897 25.4482 93.7524C25.4658 93.5151 25.4966 93.2734 25.5405 93.0273C25.5845 92.7812 25.6431 92.5439 25.7163 92.3154C25.7896 92.084 25.8833 91.8818 25.9976 91.709C26.1206 91.5215 26.2495 91.3691 26.3843 91.252C26.519 91.1348 26.6626 91.0425 26.8149 90.9751C26.9673 90.9077 27.1313 90.8594 27.3071 90.8301C27.4829 90.8008 27.6733 90.7817 27.8784 90.7729L28.1641 90.7642C28.2578 90.7612 28.3369 90.7568 28.4014 90.751C28.4688 90.7422 28.5244 90.729 28.5684 90.7114C28.6123 90.6938 28.6475 90.6675 28.6738 90.6323C28.7002 90.5972 28.7222 90.5474 28.7397 90.4829H29.355ZM26.2305 94.7324C26.2305 94.8203 26.2349 94.9243 26.2437 95.0444C26.2554 95.1646 26.2773 95.2905 26.3096 95.4224C26.3418 95.5513 26.3887 95.6802 26.4502 95.8091C26.5117 95.938 26.5923 96.0537 26.6919 96.1562C26.7944 96.2559 26.9204 96.3379 27.0698 96.4023C27.2192 96.4639 27.3979 96.4946 27.606 96.4946C27.8374 96.4946 28.0322 96.458 28.1904 96.3848C28.3486 96.3086 28.479 96.2119 28.5815 96.0947C28.6841 95.9746 28.7617 95.8428 28.8145 95.6992C28.8701 95.5557 28.9097 95.4165 28.9331 95.2817C28.9595 95.144 28.9741 95.0195 28.9771 94.9082C28.9829 94.7939 28.9858 94.7075 28.9858 94.6489C28.9858 94.4351 28.9609 94.2256 28.9111 94.0205C28.8643 93.8154 28.7866 93.6338 28.6782 93.4756C28.5728 93.3174 28.4336 93.1899 28.2607 93.0933C28.0908 92.9966 27.8813 92.9482 27.6323 92.9482C27.3892 92.9482 27.1797 92.9966 27.0039 93.0933C26.8281 93.187 26.6831 93.3159 26.5688 93.48C26.4546 93.6411 26.3696 93.8301 26.314 94.0469C26.2583 94.2607 26.2305 94.4893 26.2305 94.7324ZM33.877 92.9966H32.0752L32.04 94.126C32.0225 94.6973 31.9785 95.1748 31.9082 95.5586C31.8379 95.9395 31.7412 96.2456 31.6182 96.4771C31.498 96.7085 31.3516 96.8726 31.1787 96.9692C31.0059 97.0659 30.8081 97.1143 30.5854 97.1143C30.5034 97.1143 30.4316 97.1011 30.3701 97.0747C30.3115 97.0513 30.2661 97.0264 30.2339 97V96.2881C30.3481 96.332 30.4492 96.354 30.5371 96.354C30.5986 96.354 30.6572 96.3438 30.7129 96.3232C30.7715 96.3027 30.8257 96.2632 30.8755 96.2046C30.9282 96.146 30.9766 96.064 31.0205 95.9585C31.0645 95.8501 31.1025 95.7095 31.1348 95.5366C31.1699 95.3638 31.1978 95.1543 31.2183 94.9082C31.2417 94.6621 31.2578 94.3691 31.2666 94.0293L31.3062 92.2935H34.6855V97H33.877V92.9966ZM35.8765 92.2935H36.6851V95.9014H36.7026L39.0142 92.2935H39.9414V97H39.1284V93.3921H39.1108L36.8037 97H35.8765V92.2935ZM41.1323 92.2935H41.9409V94.5698L44.3184 92.2935H45.3774L43.167 94.3721L45.4126 97H44.3711L42.5342 94.8643L41.9409 95.3608V97H41.1323V92.2935ZM46.0542 93.7041C46.063 93.417 46.1172 93.1753 46.2168 92.979C46.3164 92.7798 46.4512 92.6187 46.6211 92.4956C46.791 92.3726 46.9917 92.2847 47.2231 92.2319C47.4575 92.1763 47.7124 92.1484 47.9878 92.1484C48.2163 92.1484 48.4375 92.1719 48.6514 92.2188C48.8682 92.2656 49.0601 92.3418 49.2271 92.4473C49.394 92.5498 49.5273 92.6846 49.627 92.8516C49.7295 93.0156 49.7808 93.2163 49.7808 93.4536V96.1914C49.7808 96.2676 49.8013 96.3335 49.8423 96.3892C49.8833 96.4419 49.9492 96.4683 50.04 96.4683C50.0811 96.4683 50.1235 96.4653 50.1675 96.4595C50.2114 96.4507 50.2568 96.4419 50.3037 96.4331V96.9912C50.2363 97.0088 50.1689 97.0249 50.1016 97.0396C50.0371 97.0542 49.9595 97.0615 49.8687 97.0615C49.728 97.0615 49.6064 97.0498 49.5039 97.0264C49.4043 97.0029 49.3193 96.9648 49.249 96.9121C49.1816 96.8564 49.1289 96.7861 49.0908 96.7012C49.0527 96.6133 49.0278 96.5063 49.0161 96.3804C48.9165 96.4888 48.811 96.5898 48.6997 96.6836C48.5884 96.7744 48.4639 96.855 48.3262 96.9253C48.1885 96.9927 48.0347 97.0454 47.8647 97.0835C47.6948 97.1245 47.5029 97.145 47.2891 97.145C47.1074 97.145 46.9302 97.1157 46.7573 97.0571C46.5874 96.9985 46.4336 96.9121 46.2959 96.7979C46.1611 96.6836 46.0527 96.543 45.9707 96.376C45.8887 96.2061 45.8477 96.0098 45.8477 95.7871C45.8477 95.5439 45.8887 95.3345 45.9707 95.1587C46.0527 94.98 46.1597 94.832 46.2915 94.7148C46.4233 94.5947 46.5742 94.5024 46.7441 94.438C46.9141 94.3735 47.0869 94.3311 47.2627 94.3105L48.5854 94.1479C48.7114 94.1333 48.8096 94.085 48.8799 94.0029C48.9531 93.918 48.9897 93.7832 48.9897 93.5986C48.9897 93.3145 48.896 93.1108 48.7085 92.9878C48.5239 92.8618 48.2573 92.7988 47.9087 92.7988C47.5513 92.7988 47.2847 92.875 47.1089 93.0273C46.9331 93.1768 46.8335 93.4023 46.8101 93.7041H46.0542ZM48.9722 94.605C48.9077 94.6519 48.8271 94.6914 48.7305 94.7236C48.6367 94.7529 48.5327 94.7778 48.4185 94.7983C48.3042 94.8188 48.1826 94.8379 48.0537 94.8555C47.9248 94.8701 47.7959 94.8862 47.667 94.9038C47.5205 94.9243 47.3857 94.9536 47.2627 94.9917C47.1396 95.0298 47.0327 95.0796 46.9419 95.1411C46.8511 95.2026 46.7808 95.2773 46.731 95.3652C46.6812 95.4502 46.6562 95.5513 46.6562 95.6685C46.6562 95.8032 46.6768 95.9219 46.7178 96.0244C46.7617 96.127 46.8203 96.2134 46.8936 96.2837C46.9697 96.354 47.0605 96.4067 47.166 96.4419C47.2715 96.4771 47.3872 96.4946 47.5132 96.4946C47.5923 96.4946 47.6831 96.4858 47.7856 96.4683C47.8882 96.4478 47.9937 96.4185 48.1021 96.3804C48.2104 96.3423 48.3159 96.2939 48.4185 96.2354C48.5239 96.1738 48.6177 96.1006 48.6997 96.0156C48.7817 95.9307 48.8477 95.834 48.8975 95.7256C48.9473 95.6172 48.9722 95.4956 48.9722 95.3608V94.605ZM51.0728 92.2935H51.8813V96.2969H54.0786V92.2935H54.8916V96.2969H55.4717V98.1514H54.7158V97H51.0728V92.2935ZM56.2144 92.2935H57.0229V95.9014H57.0405L59.3521 92.2935H60.2793V97H59.4663V93.3921H59.4487L57.1416 97H56.2144V92.2935ZM65.2979 97H64.4849V95.1367H63.4434C63.2559 95.1367 63.0918 95.1411 62.9512 95.1499C62.8135 95.1558 62.6963 95.1821 62.5996 95.229C62.5029 95.2759 62.4268 95.3491 62.3711 95.4487C62.3184 95.5483 62.2847 95.6904 62.27 95.875L62.2349 96.3804C62.2319 96.395 62.229 96.4243 62.2261 96.4683C62.2231 96.5122 62.2173 96.5649 62.2085 96.6265C62.1997 96.6851 62.188 96.748 62.1733 96.8154C62.1587 96.8828 62.1411 96.9443 62.1206 97H61.2285C61.249 96.9736 61.2681 96.9473 61.2856 96.9209C61.3062 96.8916 61.3252 96.8521 61.3428 96.8022C61.3633 96.7524 61.3809 96.688 61.3955 96.6089C61.4131 96.5298 61.4292 96.4287 61.4438 96.3057L61.4966 95.7036C61.5142 95.5454 61.5347 95.4165 61.5581 95.3169C61.5845 95.2173 61.6196 95.1353 61.6636 95.0708C61.7104 95.0034 61.7705 94.9492 61.8438 94.9082C61.917 94.8643 62.0093 94.8203 62.1206 94.7764C61.6167 94.5947 61.3647 94.2227 61.3647 93.6602C61.3647 93.5195 61.3823 93.3906 61.4175 93.2734C61.4526 93.1533 61.498 93.0464 61.5537 92.9526C61.6123 92.8589 61.6768 92.7769 61.7471 92.7065C61.8203 92.6333 61.8936 92.5732 61.9668 92.5264C62.0576 92.4678 62.1572 92.4238 62.2656 92.3945C62.374 92.3623 62.4824 92.3389 62.5908 92.3242C62.7021 92.3096 62.8105 92.3008 62.916 92.2979C63.0215 92.2949 63.1182 92.2935 63.2061 92.2935H65.2979V97ZM64.4849 93.0054H63.2544C63.1489 93.0054 63.0581 93.0068 62.9819 93.0098C62.9058 93.0098 62.8384 93.0127 62.7798 93.0186C62.7241 93.0244 62.6729 93.0347 62.626 93.0493C62.5791 93.064 62.5308 93.0845 62.481 93.1108C62.3784 93.1694 62.2993 93.2559 62.2437 93.3701C62.1909 93.4844 62.1646 93.606 62.1646 93.7349C62.1646 93.8608 62.1836 93.9678 62.2217 94.0557C62.2598 94.1406 62.3096 94.2109 62.3711 94.2666C62.4355 94.3223 62.5059 94.3662 62.582 94.3984C62.6611 94.4277 62.7402 94.4497 62.8193 94.4644C62.9014 94.4761 62.9805 94.4834 63.0566 94.4863C63.1328 94.4893 63.1987 94.4907 63.2544 94.4907H64.4849V93.0054ZM68.1016 95.2466L66.9941 97H65.9922L67.6401 94.5874L66.0757 92.2935H67.0908L68.207 93.9326L69.2705 92.2935H70.2417L68.6509 94.5874L70.3164 97H69.2969L68.1016 95.2466Z" fill="white"/>
    <defs>
        <filter id="filter0_d" x="0.5" y="-2.5" width="92.5497" height="150.481" filterUnits="userSpaceOnUse" color-interpolation-filters="sRGB">
            <feFlood flood-opacity="0" result="BackgroundImageFix"/>
            <feColorMatrix in="SourceAlpha" type="matrix" values="0 0 0 0 0 0 0 0 0 0 0 0 0 0 0 0 0 0 127 0"/>
            <feOffset dx="2" dy="2"/>
            <feGaussianBlur stdDeviation="2"/>
            <feColorMatrix type="matrix" values="0 0 0 0 0 0 0 0 0 0 0 0 0 0 0 0 0 0 0.25 0"/>
            <feBlend mode="normal" in2="BackgroundImageFix" result="effect1_dropShadow"/>
            <feBlend mode="normal" in="SourceGraphic" in2="effect1_dropShadow" result="shape"/>
        </filter>
    </defs>
</svg>