<svg width="94" height="148" viewBox="0 0 94 148" fill="none" xmlns="http://www.w3.org/2000/svg">
    <g filter="url(#filter0_d)">
        <path fill-rule="evenodd" clip-rule="evenodd" d="M9.12857 0C5.78571 0 3 2.77559 3 7.77165V141L42 112.689L81.4444 141V7.21654C81.4444 1.8874 85.1481 0.185039 87 0H42H9.12857Z" fill="#031435"/>
        <path d="M3 141H2.5V141.981L3.29373 141.405L3 141ZM42 112.689L42.2915 112.283L41.9983 112.072L41.7063 112.284L42 112.689ZM81.4444 141L81.1529 141.406L81.9444 141.974V141H81.4444ZM87 0L87.0497 0.497522L87 -0.5V0ZM3.5 7.77165C3.5 5.36486 4.17033 3.54459 5.19259 2.33506C6.21127 1.12977 7.60338 0.5 9.12857 0.5V-0.5C7.3109 -0.5 5.63873 0.258025 4.42884 1.68955C3.22253 3.11683 2.5 5.18239 2.5 7.77165H3.5ZM3.5 141V7.77165H2.5V141H3.5ZM41.7063 112.284L2.70627 140.595L3.29373 141.405L42.2937 113.094L41.7063 112.284ZM41.7085 113.095L81.1529 141.406L81.736 140.594L42.2915 112.283L41.7085 113.095ZM81.9444 141V7.21654H80.9444V141H81.9444ZM81.9444 7.21654C81.9444 4.67988 82.8207 3.05458 83.8746 2.03934C84.943 1.01023 86.2236 0.580071 87.0497 0.497522L86.9503 -0.497522C85.9246 -0.395032 84.4273 0.118509 83.1809 1.31912C81.9201 2.5336 80.9444 4.42405 80.9444 7.21654H81.9444ZM87 -0.5H42V0.5H87V-0.5ZM9.12857 0.5H42V-0.5H9.12857V0.5Z" fill="white"/>
    </g>
    <mask id="mask0" maskUnits="userSpaceOnUse" x="15" y="30" width="56" height="28">
        <path d="M45.381 30.7587V31.5173H56.6096H67.8381V44.1973V56.8772L67.7673 56.963C67.5379 57.2362 67.1215 57.4469 66.7557 57.4756L66.6242 57.4857V57.6342V57.7842H68.5883H70.5525V57.6342V57.4857L70.4294 57.4756C70.0618 57.4486 69.696 57.2716 69.4465 57.0035L69.3385 56.8872V43.4437V30H57.3598H45.381V30.7587Z" fill="white"/>
        <path d="M53.6591 33.3482C52.5733 33.5977 52.1317 33.682 51.6697 33.7241C51.5719 33.7343 51.4791 33.7461 51.4622 33.7528C51.4371 33.7612 51.4337 33.7882 51.4337 33.945V34.1271L51.4978 34.1524C51.5905 34.1878 51.7085 34.2114 51.8956 34.2316C52.3136 34.2754 52.43 34.4879 52.4975 35.3275C52.516 35.5635 52.5058 37.4989 52.4856 37.6051L52.4772 37.649L52.3153 37.5411C52.0068 37.3388 51.6326 37.182 51.3022 37.1213C51.0762 37.0791 50.5047 37.0707 50.2113 37.1061C49.9196 37.1398 49.6128 37.2005 49.4358 37.2578C49.0058 37.3978 48.5946 37.6743 48.1883 38.0941C47.7027 38.5965 47.4193 39.1259 47.2998 39.7564C47.2676 39.9267 47.2627 40.011 47.2627 40.3431C47.2627 40.8843 47.32 41.2451 47.4751 41.7002C47.6301 42.1504 47.8071 42.4421 48.1292 42.764C48.6046 43.2445 49.0631 43.4991 49.6297 43.5986C50.1657 43.6913 50.8603 43.6644 51.3224 43.5296C51.6022 43.4486 51.8383 43.3406 52.2648 43.0962C52.4114 43.0118 52.5363 42.9496 52.5429 42.9545C52.5497 42.9613 52.5565 43.1569 52.5599 43.3862L52.5648 43.8059L52.6407 43.8178C52.757 43.8347 52.8211 43.8178 53.0504 43.7081C53.2967 43.5918 53.3994 43.5547 53.681 43.4874C53.9322 43.4267 54.1935 43.3811 54.5559 43.3357C54.9032 43.2918 55.2287 43.226 55.2456 43.1974C55.2827 43.1384 55.2995 43.0018 55.2793 42.9175C55.2539 42.818 55.2675 42.8231 54.9405 42.7962C54.6032 42.7674 54.4313 42.7389 54.3149 42.6933L54.2693 42.6748L54.2576 42.3358C54.2442 41.9514 54.2357 37.5478 54.2491 37.0134C54.2525 36.8229 54.2508 36.3002 54.2457 35.8501C54.2391 35.3999 54.2289 34.675 54.2239 34.24C54.2188 33.8034 54.2054 33.4122 54.1969 33.3684C54.1681 33.2437 54.121 33.242 53.6591 33.3482ZM51.3493 37.7215C51.9917 37.885 52.3946 38.4009 52.4772 39.1629C52.5092 39.4782 52.5312 40.4409 52.5261 41.4137L52.5211 42.3814L52.3946 42.4538C52.2092 42.5601 51.9395 42.6748 51.7556 42.7253C51.6141 42.764 51.5617 42.7691 51.341 42.7708C51.0576 42.7708 50.911 42.7489 50.6749 42.6748C50.036 42.4707 49.5521 41.9802 49.3279 41.3041C49.2165 40.9719 49.1577 40.5471 49.1577 40.097C49.1577 39.4007 49.3633 38.7145 49.7123 38.2509C49.9467 37.9407 50.223 37.7754 50.6479 37.6945C50.8215 37.6608 51.1673 37.6743 51.3493 37.7215Z" fill="white"/>
        <path d="M44.9005 33.4137C44.3947 33.7408 43.4877 34.0611 42.7982 34.1556C42.7273 34.164 42.7189 34.1707 42.7087 34.2179C42.7019 34.2466 42.7019 34.3393 42.7087 34.4253C42.7222 34.6124 42.697 34.5956 43.0258 34.6192C43.2972 34.6377 43.3748 34.6546 43.5365 34.7288C43.6528 34.7827 43.6562 34.7844 43.6765 34.8653C43.7135 35.0103 43.7287 35.1267 43.7457 35.3863C43.7709 35.8095 43.803 41.8551 43.7811 42.2395C43.7591 42.6509 43.7186 42.8212 43.6225 42.9275C43.5736 42.9797 43.4101 43.027 43.105 43.0741C42.837 43.1163 42.7577 43.1365 42.6346 43.1989C42.5705 43.2326 42.5655 43.2394 42.5722 43.2899C42.5773 43.3203 42.5858 43.4028 42.5924 43.477L42.6026 43.6103L43.0089 43.6001C43.2331 43.595 43.5197 43.5816 43.6445 43.5699C43.7962 43.5545 44.1503 43.5479 44.6981 43.5496C45.43 43.5496 45.7182 43.5579 46.4567 43.5984L46.6455 43.6086V43.4333C46.6455 43.2765 46.6287 43.1433 46.6067 43.1231C46.6016 43.118 46.4145 43.0926 46.1902 43.0657C45.966 43.0387 45.7553 43.0084 45.7216 42.9965C45.617 42.9628 45.5546 42.9055 45.5141 42.8009L45.4754 42.7031L45.4636 39.4578C45.4519 36.1112 45.44 34.3646 45.4215 33.7122L45.4097 33.3379H45.2141H45.0168L44.9005 33.4137Z" fill="white"/>
        <path d="M22.3339 33.6161C21.511 33.6701 20.5972 33.6852 20.0999 33.6515C19.8875 33.638 19.5773 33.6212 19.4138 33.6144L19.1153 33.6026L19.1068 33.6599C19.1019 33.692 19.0934 33.7982 19.0868 33.8976L19.0766 34.0763L19.1339 34.0882C19.3041 34.1252 19.6751 34.2399 19.7814 34.2905C20.019 34.4001 20.078 34.4911 20.4355 35.2936C20.663 35.8078 20.6935 35.882 21.4183 37.6117C21.8483 38.6402 22.0288 39.0903 22.0237 39.1206C22.0135 39.1746 21.302 40.6313 21.0222 41.1741C20.8772 41.4523 20.8064 41.5754 20.7962 41.5585C20.776 41.5214 18.8624 37.0537 18.6754 36.6086C18.4174 35.9899 18.2269 35.5195 18.0735 35.1166C17.9942 34.9126 17.9115 34.6985 17.8896 34.6395C17.8678 34.5805 17.8491 34.513 17.8491 34.4894C17.8491 34.4203 17.9976 34.2888 18.1949 34.1826C18.4646 34.0376 18.4478 34.0578 18.4815 33.8437C18.5269 33.5588 18.6163 33.5824 17.6367 33.6279C16.895 33.6616 16.7821 33.6633 16.2611 33.6448C15.9475 33.633 15.5681 33.6161 15.418 33.606C15.2124 33.5925 15.1247 33.5942 15.0725 33.6094L15 33.6296L15.01 33.7409C15.0151 33.8016 15.0252 33.9128 15.0303 33.9853L15.042 34.1185L15.2039 34.1893C15.2934 34.2281 15.3895 34.2753 15.418 34.2955C15.4873 34.3461 15.6102 34.5434 15.767 34.8552C15.9373 35.1941 15.8463 34.9834 17.2676 38.3114C17.9469 39.9012 18.5927 41.4 18.7005 41.6412C19.0749 42.469 19.3851 43.2124 19.5436 43.6643L19.616 43.8665H20.0157H20.4135L20.5772 43.5126C20.6664 43.317 20.8806 42.877 21.0542 42.5346C21.3661 41.9142 22.3743 39.9855 22.4012 39.9569C22.408 39.9501 22.4721 40.0597 22.5429 40.2013C22.666 40.4525 23.5765 42.5465 23.7129 42.8904C23.7501 42.9831 23.8309 43.177 23.895 43.3204C23.9574 43.4619 24.0282 43.644 24.0535 43.7233L24.0991 43.8665L24.4969 43.8716L24.8932 43.875L24.9437 43.7452C25.3854 42.6021 26.0665 40.869 26.3919 40.0648C26.6565 39.4089 26.7275 39.237 27.0916 38.3704C27.5484 37.283 27.9177 36.3574 28.3442 35.2262C28.5298 34.7339 28.5954 34.5855 28.6696 34.4877C28.7219 34.4186 28.9427 34.2719 29.113 34.191C29.2766 34.1134 29.3068 34.0595 29.3036 33.8504C29.3002 33.6414 29.2951 33.6313 29.1973 33.6178C29.1502 33.611 28.9427 33.6144 28.7371 33.6245C28.432 33.6397 28.2481 33.638 27.7745 33.6161C27.0984 33.5857 27.0697 33.5891 27.036 33.6886C27.014 33.751 27.0123 33.9314 27.0309 34.0511C27.0443 34.1337 27.0814 34.1522 27.4506 34.2635C27.6074 34.3107 27.7423 34.3562 27.7491 34.363C27.7576 34.3714 27.7676 34.4152 27.7745 34.4624C27.7828 34.5383 27.7693 34.5906 27.6613 34.9159C27.594 35.12 27.2214 36.0927 26.8353 37.0807C26.4492 38.0686 25.9249 39.4208 25.6703 40.085C25.4174 40.751 25.2049 41.2955 25.2 41.2955C25.1949 41.2955 25.1645 41.2281 25.1308 41.1471C24.9859 40.7982 24.1799 38.9065 23.9237 38.3148L23.6438 37.6708L23.6911 37.5646C23.7821 37.3605 24.7784 35.3644 24.9303 35.0829C25.1781 34.6277 25.2893 34.4911 25.5 34.3967C25.6147 34.3444 26.1339 34.1691 26.2941 34.1286C26.3565 34.1134 26.3868 34.0949 26.397 34.0713C26.4138 34.0224 26.4324 33.6869 26.4172 33.665C26.4087 33.6515 26.1761 33.6431 25.6468 33.6363C25.2303 33.6313 24.583 33.6178 24.2086 33.606C23.836 33.5959 23.5241 33.5908 23.5191 33.5975C23.4989 33.6178 23.4819 33.8319 23.4921 33.955L23.5021 34.0747L23.7062 34.1303C24.035 34.2197 24.1767 34.277 24.2642 34.3528L24.3418 34.422L24.3318 34.508C24.3182 34.6091 24.1799 34.9648 24.0215 35.3105C23.8157 35.7572 23.2865 36.8447 23.2763 36.8447C23.2594 36.8447 23.0587 36.3659 22.7756 35.6561C22.6458 35.3307 22.5126 35.0053 22.4771 34.9311C22.3422 34.6378 22.3017 34.395 22.3675 34.2854C22.4164 34.2062 22.5109 34.1708 22.7553 34.1387C23.0521 34.1 23.1077 34.0848 23.128 34.0325C23.1363 34.0089 23.1414 33.8993 23.1397 33.7864L23.1346 33.5824L23.0251 33.5807C22.9643 33.579 22.6541 33.5942 22.3339 33.6161Z" fill="white"/>
        <path d="M57.5706 34.3837V35.1423H61.6422H65.7138V34.3837V33.625H61.6422H57.5706V34.3837Z" fill="white"/>
        <path d="M39.1851 36.6914L39.0334 36.7016L38.9271 36.8364C38.6237 37.2225 38.4922 37.3506 38.1735 37.5681C37.8785 37.7704 37.5683 37.9019 37.2345 37.9677L37.0877 37.9964L37.0945 38.0655C37.0996 38.1026 37.1062 38.1784 37.1113 38.2307C37.1248 38.3504 37.1805 38.4178 37.2901 38.4465C37.4671 38.492 37.7064 38.5713 37.7808 38.6083C37.9374 38.6876 37.9576 38.7668 37.9998 39.4159C38.0303 39.8863 38.0303 42.4134 37.9998 42.6024C37.9762 42.7592 37.9695 42.7675 37.7722 42.8653C37.5918 42.9563 37.4991 42.9918 37.2816 43.0507C37.0406 43.1165 36.9562 43.1638 36.9411 43.243C36.9294 43.307 36.9377 43.5313 36.9528 43.5448C36.9579 43.5516 37.2428 43.5431 37.5852 43.5296C38.7366 43.4823 38.8361 43.4823 39.6251 43.5194C40.0348 43.5397 40.5372 43.5548 40.7428 43.5548H41.1154L41.1357 43.5077C41.1678 43.4301 41.1627 43.216 41.1273 43.1604C41.0683 43.0709 41.0025 43.0541 40.4731 42.9901C40.0247 42.9378 39.8628 42.84 39.7633 42.567C39.728 42.4707 39.7263 42.4371 39.7145 41.4812C39.7077 40.9383 39.6926 40.237 39.6824 39.9217C39.6604 39.2996 39.6638 39.2422 39.7431 39.0028C39.8628 38.6488 40.0667 38.3942 40.2338 38.3959C40.3028 38.3976 40.4157 38.4532 40.5676 38.5645C40.7615 38.7045 40.9047 38.7786 41.0564 38.8174C41.37 38.8983 41.6364 38.8258 41.8405 38.6033C42.1186 38.2981 42.1912 37.848 42.0141 37.5125C41.9417 37.3759 41.7207 37.1669 41.569 37.0927C41.2723 36.9477 40.9335 36.9443 40.6484 37.0843C40.5069 37.1534 40.1545 37.4619 40.0399 37.6153C39.9943 37.6777 39.8865 37.8429 39.8004 37.9829C39.7145 38.1211 39.637 38.2425 39.6285 38.2526C39.6184 38.2627 39.6133 38.0098 39.6167 37.553C39.6184 37.1585 39.615 36.801 39.6082 36.7555L39.5948 36.6763L39.465 36.6796C39.3941 36.6813 39.2694 36.6864 39.1851 36.6914Z" fill="white"/>
        <path d="M32.0788 36.9981C31.6539 37.0352 31.3032 37.1178 30.9712 37.2594C30.1484 37.6101 29.5178 38.2356 29.2075 39.0111C29.0102 39.5017 28.9514 39.8558 28.9648 40.4442C28.9783 41.0123 29.049 41.3815 29.2228 41.798C29.366 42.1402 29.528 42.3728 29.8433 42.6882C30.4552 43.2984 31.1381 43.6323 31.9946 43.7401C32.2373 43.7722 32.6943 43.7806 32.937 43.7586C34.242 43.6423 35.1507 43.0591 35.7172 41.9699C35.9667 41.4911 36.0645 41.0309 36.0662 40.3093C36.0662 39.8288 36.046 39.6888 35.9213 39.296C35.7443 38.7447 35.5065 38.3536 35.0985 37.9422C34.569 37.4095 33.9993 37.133 33.1916 37.02C32.9758 36.9897 32.3216 36.9762 32.0788 36.9981ZM32.9133 37.5511C33.4242 37.686 33.7986 38.0535 33.9976 38.6166C34.1273 38.9858 34.1712 39.3196 34.1812 40.053C34.1998 41.2922 34.1188 41.8772 33.8559 42.4167C33.6923 42.7521 33.4867 42.9696 33.2001 43.1096C32.9724 43.2191 32.8611 43.2411 32.5426 43.2411C32.2323 43.2411 32.0653 43.2091 31.8495 43.1079C31.5376 42.9645 31.3286 42.7707 31.2005 42.5077C30.9898 42.0778 30.9291 41.7777 30.8615 40.837C30.8279 40.348 30.8767 39.2657 30.951 38.8998C31.1076 38.1091 31.5561 37.6236 32.2221 37.5191C32.389 37.4938 32.7582 37.5106 32.9133 37.5511Z" fill="white"/>
        <path d="M57.5706 38.6067V39.3569H61.6422H65.7138V38.6067V37.8564H61.6422H57.5706V38.6067Z" fill="white"/>
        <path d="M18.2285 46.9877C17.4092 47.0518 16.8242 47.2323 16.2981 47.5812C16.111 47.7059 15.7199 48.0954 15.5682 48.3095C15.1146 48.9534 14.9375 49.8167 15.1028 50.5821C15.204 51.0474 15.4569 51.5818 15.7469 51.9425C16.1784 52.4788 16.7432 52.7922 18.3045 53.3588C19.3801 53.7499 19.8774 53.9826 20.1388 54.2168C20.3596 54.4175 20.5653 54.7462 20.6244 54.994C20.6648 55.1609 20.6614 55.4594 20.6176 55.6279C20.5266 55.9718 20.2905 56.3142 19.992 56.5349C19.574 56.8452 18.8355 57.0256 18.2538 56.9598C17.9065 56.9193 17.6402 56.84 17.3383 56.6849C17.1175 56.5703 16.9473 56.4422 16.7617 56.2484C16.492 55.9635 16.3537 55.7291 16.0537 55.0447C15.9728 54.8592 15.9003 54.7007 15.8935 54.6923C15.885 54.6855 15.7165 54.6838 15.5142 54.6906L15.1499 54.7024L15.1601 55.102C15.1652 55.3211 15.1821 55.8252 15.1955 56.2247C15.2243 57.0239 15.226 57.0322 15.3338 57.1049C15.3658 57.1251 15.4333 57.1588 15.4855 57.1773C15.6659 57.2447 16.7281 57.5516 16.8966 57.5836C17.6519 57.7319 18.3331 57.7539 19.0462 57.6561C19.692 57.5668 20.2585 57.3156 20.9092 56.8334C21.4504 56.4322 21.7185 56.0291 21.8955 55.3481C22.0911 54.5928 22.0608 53.7026 21.8197 53.1312C21.6797 52.799 21.3207 52.3269 21.0172 52.0757C20.5771 51.7133 19.8117 51.3457 18.8862 51.0574C17.7397 50.6984 17.2187 50.4185 16.8883 49.9802C16.5442 49.5268 16.5071 48.9619 16.7888 48.4832C16.8612 48.3617 17.1007 48.1173 17.2339 48.0313C17.7346 47.7042 18.5372 47.662 19.0952 47.9301C19.5369 48.1442 19.8252 48.4359 20.0663 48.9164C20.1539 49.0917 20.3461 49.5621 20.4034 49.7424C20.4203 49.7931 20.4356 49.837 20.4371 49.8402C20.4473 49.8521 21.0997 49.8943 21.1402 49.8858C21.179 49.8758 21.1875 49.8638 21.1992 49.7965C21.2531 49.4795 21.1385 48.1376 21.0087 47.5659L20.9817 47.4496L20.7188 47.3637C19.9871 47.1277 19.2654 46.9962 18.6416 46.986C18.4612 46.9843 18.2758 46.9843 18.2285 46.9877Z" fill="white"/>
        <path d="M60.3609 47.0262C60.3507 47.0345 60.086 47.1728 59.7707 47.333C59.3222 47.5623 59.1098 47.6584 58.7929 47.7798L58.3883 47.9349V48.1237V48.3125L58.6664 48.4171C59.1317 48.5941 59.2042 48.6278 59.2295 48.6783C59.2987 48.8083 59.2987 48.8605 59.297 52.5998C59.2953 55.911 59.2834 57.1839 59.2463 57.6104L59.2346 57.7504H59.4385H59.6426L59.7858 57.5177C60.0894 57.0253 60.2209 56.8129 60.2428 56.7826C60.2648 56.7524 60.2833 56.7607 60.6003 56.9463C61.1381 57.258 61.4922 57.4199 61.8783 57.5295C62.229 57.6272 62.3419 57.6409 62.8139 57.6391C63.4665 57.6374 63.7935 57.5919 64.1442 57.4536C64.6669 57.2463 65.0883 56.9631 65.4963 56.5416C66.1589 55.8588 66.5501 54.7477 66.4894 53.726C66.4641 53.3012 66.3984 53.0061 66.2618 52.6841C66.0494 52.1868 65.837 51.8664 65.5166 51.5613C65.2215 51.2832 64.8675 51.0589 64.5269 50.9409C64.1391 50.8043 63.4967 50.7386 63.0584 50.7874C62.6605 50.833 62.4212 50.9089 61.9625 51.133C61.6237 51.2984 61.4162 51.4467 61.1145 51.7383L61.0099 51.8395L61.0201 51.4113C61.0269 51.1752 61.0218 50.3963 61.0116 49.6831C61.0015 48.9683 60.9913 48.0832 60.9913 47.714V47.043L60.9493 47.0279C60.8952 47.006 60.3811 47.006 60.3609 47.0262ZM62.8072 51.7906C63.3316 51.8749 63.8003 52.1817 64.0869 52.6251C64.3027 52.9573 64.4747 53.4411 64.542 53.8913C64.5944 54.2606 64.5556 54.9769 64.4578 55.3817C64.3886 55.6717 64.2369 56.0392 64.1003 56.2449C64.0144 56.3746 63.775 56.6224 63.662 56.6983C63.3147 56.9293 62.8712 57.0575 62.4953 57.0373C62.0939 57.0153 61.6978 56.8265 61.4078 56.5197C61.2123 56.3105 61.133 56.1302 61.0959 55.8032C61.0486 55.3901 61.0184 53.9755 61.0369 52.9893L61.0486 52.3049L61.1296 52.2442C61.2949 52.1227 61.7534 51.9171 62.0283 51.8395C62.298 51.7637 62.5475 51.7486 62.8072 51.7906Z" fill="white"/>
        <path d="M32.3653 47.0716C32.0887 47.1306 31.8343 47.3262 31.7195 47.5706C31.6454 47.7274 31.6234 47.8301 31.6234 48.0359C31.6234 48.3545 31.7146 48.5703 31.9506 48.8081C32.1377 48.9969 32.3148 49.093 32.5238 49.1232C32.8257 49.1671 33.1561 49.0474 33.3971 48.8064C33.5101 48.6935 33.6232 48.4827 33.6737 48.2921C33.7159 48.132 33.7125 47.8572 33.6669 47.7325C33.5725 47.4728 33.3347 47.2318 33.0701 47.1272C32.8677 47.048 32.5811 47.0243 32.3653 47.0716Z" fill="white"/>
        <path d="M39.3285 47.4455V47.7472L39.4263 47.7743C39.4785 47.7894 39.6438 47.8248 39.7921 47.8535C40.335 47.9579 40.384 47.9682 40.4767 48.0035C40.6757 48.0794 40.8291 48.2884 40.8628 48.5279C40.9083 48.8532 41.0279 52.5538 41.0481 54.2346C41.0735 56.3403 41.0735 56.2408 41.0415 56.3808C41.0145 56.4938 41.0061 56.5072 40.942 56.5477C40.8054 56.6337 40.4969 56.7601 40.0755 56.9018L39.6504 57.0451L39.6387 57.1057C39.6253 57.1732 39.6421 57.5744 39.659 57.6015C39.6724 57.6217 39.8275 57.6115 40.2811 57.5559C41.323 57.4278 42.4441 57.4142 43.6952 57.5137C44.2954 57.561 44.5617 57.571 44.7034 57.5508C44.7725 57.5407 44.8298 57.5305 44.8332 57.5273C44.8366 57.5239 44.8466 57.4464 44.8585 57.3537C44.872 57.2305 44.872 57.1462 44.8602 57.0434C44.85 56.9659 44.8383 56.8984 44.8349 56.895C44.8315 56.8917 44.4959 56.8479 44.0896 56.7972C43.6816 56.7467 43.326 56.7011 43.2972 56.6961L43.245 56.6876L43.2265 56.4381C43.213 56.2779 43.2062 55.5816 43.2062 54.4622C43.2062 53.5115 43.1994 52.655 43.1911 52.5572C43.1843 52.4594 43.1809 52.2806 43.186 52.1611C43.1894 52.0396 43.1809 51.1158 43.1641 50.1075L43.1355 48.2716L43.1843 48.1772C43.2265 48.0911 43.2433 48.076 43.3411 48.0272C43.4928 47.953 43.6733 47.9192 43.9901 47.9091C44.4942 47.8923 44.9983 48.0001 45.3239 48.1923C45.6121 48.3626 45.9071 48.7874 46.0268 49.2022C46.1128 49.499 46.1297 49.6524 46.1297 50.0958C46.1297 50.5324 46.1094 50.6909 46.0202 50.9641C45.8195 51.5692 45.3239 51.9621 44.6427 52.0531C44.4976 52.0733 43.9699 52.065 43.8233 52.0396L43.7575 52.0294L43.7694 52.2891C43.7879 52.6852 43.7811 52.6684 43.9311 52.7544C44.651 53.1608 45.6997 53.2434 46.546 52.9618C46.7484 52.8944 47.0114 52.7713 47.1801 52.6635C47.6049 52.3952 48.018 51.9367 48.2371 51.4899C48.5439 50.8612 48.6383 49.9929 48.4647 49.3961C48.3315 48.9408 48.0534 48.4284 47.7532 48.0879C47.3991 47.6833 46.9221 47.4336 46.2157 47.2802C45.7587 47.1826 44.9124 47.137 44.3105 47.1792C43.5569 47.2331 43.0831 47.2499 42.1441 47.2584C41.141 47.2668 41.1106 47.2651 40.3401 47.2145C39.9085 47.1858 39.5055 47.1589 39.4431 47.1521L39.3285 47.1421V47.4455Z" fill="white"/>
        <path d="M32.7867 50.5636C32.4799 50.8401 32.2353 51.007 31.9453 51.1351C31.7431 51.2228 31.4497 51.3155 31.2271 51.3611C31.0771 51.3931 30.6842 51.4453 30.6083 51.4453C30.5815 51.4453 30.5781 51.4672 30.5781 51.6713V51.8972L30.7012 51.9089C31.0873 51.9443 31.3232 51.995 31.4783 52.0725C31.6924 52.1803 31.7126 52.2125 31.7329 52.4569C31.748 52.6525 31.7548 55.6298 31.7397 56.1237C31.7246 56.6566 31.7126 56.7239 31.6166 56.8149C31.5778 56.8522 31.5087 56.8959 31.4631 56.911C31.416 56.928 31.1783 56.9668 30.9337 57.0005C30.6893 57.0325 30.4854 57.0612 30.4837 57.0646C30.482 57.0661 30.4837 57.1842 30.4888 57.3258L30.4988 57.5821H30.5595C30.5932 57.5804 30.7415 57.5685 30.89 57.5551C31.2727 57.5197 32.3196 57.508 33.1154 57.5315C33.4864 57.5417 33.9769 57.5551 34.2044 57.5602L34.6193 57.5702L34.6293 57.4034C34.6495 57.1134 34.6563 57.1354 34.5451 57.1049C34.4912 57.0898 34.3749 57.0661 34.2871 57.051C34.0191 57.0073 33.6937 56.9398 33.5857 56.9061L33.483 56.8739L33.4711 56.7459C33.4542 56.5403 33.4593 55.8776 33.4879 54.3282C33.5132 52.9476 33.5115 51.3492 33.483 50.6731L33.4728 50.417H33.2098L32.9467 50.4185L32.7867 50.5636Z" fill="white"/>
        <path d="M26.9535 50.7482C25.5895 50.8477 24.5022 51.4479 23.8076 52.4847C23.4467 53.0225 23.2074 53.798 23.2074 54.4287C23.2089 55.0457 23.4367 55.8246 23.7586 56.3085C24.229 57.0131 25.1378 57.5341 26.2033 57.7094C26.4579 57.7516 27.0935 57.7516 27.3835 57.7111C28.1809 57.5948 28.7946 57.2982 29.3053 56.7805C29.5582 56.5226 29.7438 56.2344 29.8516 55.9258L29.9023 55.7791L29.8314 55.7183C29.7926 55.6847 29.6814 55.6189 29.5853 55.5717L29.4116 55.4874L29.3728 55.5262C29.3526 55.5481 29.216 55.7015 29.0711 55.8668C28.8536 56.1129 28.7811 56.182 28.6597 56.2629C28.2398 56.5461 28.0224 56.6102 27.4761 56.6102C27.2317 56.6119 27.134 56.6051 27.0209 56.58C26.5928 56.4873 26.2487 56.2883 25.8914 55.9308C25.4446 55.4823 25.2136 55.0052 25.1041 54.3106C25.0585 54.0155 25.0636 53.38 25.1124 53.1068C25.2085 52.5825 25.4141 52.1881 25.7665 51.8474C25.9538 51.667 26.097 51.5659 26.2977 51.4698C26.5472 51.3535 26.6989 51.3197 26.9788 51.3197C27.1794 51.3197 27.23 51.3265 27.3142 51.3569C27.5925 51.4596 27.7695 51.6637 27.9229 52.0598C27.9954 52.2471 28.11 52.4544 28.2061 52.5741C28.3141 52.7056 28.5063 52.8405 28.6663 52.8961C28.8199 52.9483 29.1031 52.9534 29.2463 52.9046C29.5162 52.8134 29.6948 52.601 29.7606 52.2942C29.8365 51.9369 29.7489 51.6687 29.4587 51.3635C29.098 50.9843 28.6361 50.814 27.8134 50.7533C27.6025 50.738 27.1323 50.7348 26.9535 50.7482Z" fill="white"/>
        <path d="M49.4443 51.0808L49.3853 51.1028L49.3651 51.2528C49.3363 51.4822 49.338 51.5529 49.3751 51.5866C49.4224 51.6288 49.5792 51.6744 49.9163 51.7417C50.0782 51.7754 50.2316 51.8125 50.257 51.8261C50.2923 51.8446 50.3109 51.8749 50.3379 51.9644C50.3918 52.1363 50.4019 52.8561 50.3631 53.7799C50.326 54.6415 50.3345 55.7778 50.3799 56.0947C50.4389 56.5061 50.5318 56.7624 50.7038 56.9883C50.9835 57.3541 51.4286 57.6121 51.948 57.7099C52.2009 57.757 52.6578 57.7536 52.9124 57.7031C53.4838 57.5885 53.983 57.3036 54.6522 56.7102C54.7754 56.6005 54.8951 56.4978 54.9171 56.4807L54.9574 56.4488V56.6342C54.9574 56.7354 54.9625 57.0236 54.9693 57.2748L54.9793 57.7301L55.1327 57.7419L55.2863 57.7521L55.5948 57.6424C56.1612 57.4384 56.9991 57.2007 57.2925 57.1619C57.3583 57.1536 57.4915 57.14 57.591 57.135L57.7713 57.1231L57.7832 57.0321C57.7883 56.9832 57.7866 56.8719 57.7798 56.786L57.7647 56.6292H57.3245C56.8272 56.6292 56.8474 56.6342 56.7733 56.4944C56.7328 56.4185 56.7328 56.4083 56.7496 55.6683C56.7648 55.095 56.7784 51.2698 56.7682 51.1584L56.7581 51.0657L55.4144 51.0674C54.6759 51.0674 54.0252 51.0742 53.9694 51.0808L53.8667 51.0944L53.8548 51.182C53.8296 51.3927 53.8531 51.5866 53.9104 51.6322C53.9357 51.6524 53.993 51.6642 54.1094 51.6727C54.6354 51.7064 54.821 51.7383 54.9744 51.8159L55.0383 51.848L55.0502 52.578C55.0603 53.158 55.0552 53.5558 55.0266 54.5101C54.9861 55.8654 55.0046 55.7256 54.8378 55.9632C54.7181 56.1335 54.5949 56.2532 54.3927 56.3966C54.0403 56.6444 53.8328 56.7405 53.5598 56.7809C52.9141 56.8787 52.4419 56.6899 52.2278 56.2466C52.1739 56.1335 52.1554 56.0712 52.1351 55.9178C52.0778 55.503 52.0693 55.1254 52.0795 53.0787L52.0878 51.0774L52.012 51.0674C51.9698 51.0623 51.3881 51.0573 50.7189 51.0589C49.7865 51.0589 49.4897 51.064 49.4443 51.0808Z" fill="white"/>
    </mask>
    <g mask="url(#mask0)">
        <path d="M73.2223 26.2388H6.89246V65.3564H73.2223V26.2388Z" fill="white"/>
    </g>

    <defs>
        <filter id="filter0_d" x="0.5" y="-2.5" width="92.5497" height="150.481" filterUnits="userSpaceOnUse" color-interpolation-filters="sRGB">
            <feFlood flood-opacity="0" result="BackgroundImageFix"/>
            <feColorMatrix in="SourceAlpha" type="matrix" values="0 0 0 0 0 0 0 0 0 0 0 0 0 0 0 0 0 0 127 0"/>
            <feOffset dx="2" dy="2"/>
            <feGaussianBlur stdDeviation="2"/>
            <feColorMatrix type="matrix" values="0 0 0 0 0 0 0 0 0 0 0 0 0 0 0 0 0 0 0.25 0"/>
            <feBlend mode="normal" in2="BackgroundImageFix" result="effect1_dropShadow"/>
            <feBlend mode="normal" in="SourceGraphic" in2="effect1_dropShadow" result="shape"/>
        </filter>
    </defs>
</svg>
