<svg width="239" height="338" viewBox="0 0 239 338" fill="none" xmlns="http://www.w3.org/2000/svg">
<g opacity="0.35" filter="url(#filter0_d)">
<path fill-rule="evenodd" clip-rule="evenodd" d="M80.3862 52.2952C75.8874 47.0145 72.8425 40.5428 73.3513 33.2912C74.8173 12.3973 103.902 16.9937 109.56 27.5391C115.218 38.0846 114.545 64.8341 107.233 66.7189C104.317 67.4705 98.1054 65.6293 91.783 61.8185L95.7515 89.8936H72.3195L80.3862 52.2952Z" fill="#B28B67"/>
<path fill-rule="evenodd" clip-rule="evenodd" d="M63.1356 26.336C62.3788 25.586 61.9659 24.5155 61.6088 23.499C61.2379 22.4431 60.8776 21.3763 60.6314 20.2772C60.1394 18.0812 60.1347 15.5558 61.7013 13.8506C62.9576 12.4832 64.8428 11.8699 66.5827 11.7366C67.7418 11.6477 68.9323 11.81 70.0435 12.1753C71.1459 12.5377 72.0962 13.2599 73.165 13.7082C73.2058 11.3417 73.6111 8.8655 74.8117 6.84487C75.967 4.90069 77.8089 3.80969 79.9066 3.52106C82.0597 3.22485 84.1857 3.72867 86.1132 4.771C86.5958 5.03204 87.0739 5.30552 87.5314 5.61504C87.9145 5.87424 88.3127 6.18638 88.7622 6.29179C89.2633 6.40944 89.5117 6.12003 89.8374 5.75445C90.2192 5.32582 90.6494 4.9483 91.1046 4.61361C93.1176 3.13401 95.7586 2.52566 98.0907 3.41254C99.1652 3.82116 100.21 4.5151 100.939 5.47136C101.589 6.32375 102.052 7.6759 102.949 8.26978C103.33 8.52188 103.599 8.18788 103.945 7.94102C104.466 7.5701 104.962 7.1608 105.489 6.79999C106.229 6.29306 107.03 5.91388 107.888 5.7154C109.144 5.42482 110.879 5.49292 111.238 7.13788C111.373 7.75575 111.27 8.41657 111.226 9.03911C111.166 9.89394 111.104 10.7485 111.03 11.602C110.974 12.2501 110.902 12.8761 110.78 13.5125C110.715 13.8518 110.511 14.4842 110.656 14.8239C110.838 15.2486 111.677 15.0072 112.035 15.0219C112.743 15.0512 113.454 15.1753 114.109 15.4779C114.616 15.7124 115.15 16.0573 115.364 16.6388C115.496 16.996 115.461 17.363 115.399 17.7305C115.324 18.1715 115.409 18.4055 115.465 18.8505C116.416 18.3823 119.711 17.3419 120.126 19.0461C120.264 19.6136 119.95 20.2547 119.71 20.7333C119.289 21.5727 118.738 22.3399 118.174 23.0715C116.998 24.5979 115.594 25.9143 114.083 27.0402C115.853 27.827 116.315 30.1479 114.783 31.5306C114.106 32.1411 113.196 32.277 112.343 32.238C112.031 32.2237 111.58 32.1036 111.335 32.158C111.202 32.1873 111.061 32.2994 110.877 32.3119C109.673 32.3944 108.313 32.1042 107.136 31.8369C105.038 31.3607 103.052 30.3668 101.43 28.853C101.014 28.4646 100.67 28.2411 100.11 28.2468C99.6194 28.2518 99.1379 28.3863 98.6476 28.3988C97.3503 28.4319 96.1806 27.7977 94.976 27.3756C94.9022 29.003 94.4388 30.7953 93.7731 32.2593C93.2302 33.4532 92.0966 33.6267 90.9827 33.7315C87.4205 34.0666 83.8457 33.6926 80.279 33.6976C83.7317 34.478 87.2994 34.7996 90.7214 35.718C92.2683 36.133 91.0871 37.1755 90.4257 37.8983C89.3366 39.0883 88.5269 40.5629 87.9652 42.1163C86.2762 39.9147 83.2909 38.4641 80.646 39.1404C77.7237 39.8876 75.6659 43.8396 77.5346 46.6808C78.6195 48.3301 80.5787 48.9668 82.2089 49.6754C80.9372 50.9976 80.6296 52.9505 79.8641 54.5954C79.4866 55.4066 78.9567 56.3238 78.1124 56.6065C77.8 56.7112 77.4338 56.7201 77.1874 56.9747C76.8821 57.29 76.8094 57.6424 76.4196 57.9134C74.864 58.9949 72.4342 58.9115 71.0554 57.5002C69.8086 56.2238 70.133 54.2041 71.1743 52.91C69.5167 52.2191 66.4967 51.3305 67.1555 48.748C63.5637 48.5095 54.8428 42.6842 59.6636 38.4274C57.0179 36.9322 54.5873 33.278 56.2867 30.0567C57.5953 27.5763 60.6386 26.4675 63.1356 26.336Z" fill="#191847"/>
<path fill-rule="evenodd" clip-rule="evenodd" d="M29.9688 211.935H105.395L115.278 333H3L29.9688 211.935Z" fill="#C5CFD6"/>
<path fill-rule="evenodd" clip-rule="evenodd" d="M29.9689 211.935H53.1666L67.051 333H3L29.9689 211.935Z" fill="black" fill-opacity="0.1"/>
<path fill-rule="evenodd" clip-rule="evenodd" d="M191.386 191.194C199.428 186.365 212.92 192.569 212.911 199.475C212.883 220.139 194.026 317.526 193.041 323.683C192.057 329.839 181.509 331.465 180.895 323.703C179.918 311.352 178.102 268.595 179.919 248.804C180.668 240.635 181.476 232.855 182.271 225.914C172.376 243.784 157.072 269.369 136.36 302.669L125.116 297.532C133.946 268.441 141.186 247.904 146.836 235.92C156.512 215.401 165.584 197.829 169.402 191.639C175.408 181.903 185.862 185.3 191.386 191.194Z" fill="#B28B67"/>
<path fill-rule="evenodd" clip-rule="evenodd" d="M125.92 281.377L164.512 189.955C173.757 175.083 199.678 192.981 196.525 201.607C189.368 221.19 152.964 284.588 150.832 290.422L125.92 281.377Z" fill="#1F28CF"/>
<path fill-rule="evenodd" clip-rule="evenodd" d="M123.777 291.767C121.373 293.746 119.809 295.362 119.085 296.616C118.205 298.141 117.174 300.512 115.994 303.731C117.762 304.752 133.659 313.93 163.683 331.264C167.288 327.883 167.849 325.258 165.368 323.389C162.886 321.521 160.839 319.946 159.224 318.663L142.764 295.984C142.447 295.548 141.837 295.451 141.4 295.767C141.393 295.773 141.386 295.778 141.378 295.784L137.958 298.418C134.82 298.144 132.479 297.561 130.934 296.669C129.678 295.944 128.237 294.435 126.61 292.144L126.61 292.144C125.986 291.265 124.767 291.058 123.887 291.682C123.85 291.709 123.813 291.737 123.777 291.767Z" fill="#E4E4E4"/>
<path fill-rule="evenodd" clip-rule="evenodd" d="M178.425 318.748C177.333 321.663 176.787 323.845 176.787 325.293C176.787 327.053 177.08 329.622 177.667 333C179.709 333 198.065 333 232.734 333C234.165 328.269 233.339 325.715 230.255 325.338C227.172 324.961 224.611 324.62 222.572 324.316L196.977 312.906C196.485 312.687 195.908 312.908 195.688 313.4C195.684 313.409 195.681 313.417 195.677 313.426L194.032 317.417C191.178 318.748 188.859 319.414 187.074 319.414C185.624 319.414 183.622 318.829 181.068 317.658L181.068 317.658C180.087 317.208 178.928 317.639 178.479 318.619C178.459 318.661 178.442 318.704 178.425 318.748Z" fill="#E4E4E4"/>
<path fill-rule="evenodd" clip-rule="evenodd" d="M215.616 206.5C215.616 232.438 203.298 292.941 203.29 298.653L176.787 298.673C180.666 244.686 182.042 217.402 180.914 216.821C179.221 215.948 111.544 223.578 91.247 223.578C61.978 223.578 49.8701 205.12 48.8876 170.929H106.868C118.674 172.192 180.252 184.612 203.121 188.882C212.911 190.71 215.616 199.354 215.616 206.5Z" fill="#2B44FF"/>
<path fill-rule="evenodd" clip-rule="evenodd" d="M115.901 110.104L149.789 91.5435C155.425 84.8514 160.977 79.6541 166.447 75.9515C168.118 75.2538 171.041 74.8314 168.307 79.6827C165.574 84.534 162.917 89.7597 164.31 91.2543C165.702 92.7488 169.175 90.661 170.836 93.1442C171.943 94.7997 166.011 97.4149 153.039 100.99L128.415 123.536L115.901 110.104ZM168.976 125.764L183.862 117.587C185.951 109.639 188.447 105.64 191.352 105.59C193.584 104.552 189.698 114.595 193.928 113.724C198.158 112.853 208.483 105.174 210.262 106.733C212.894 109.04 210.547 116.122 207.782 119.645C202.614 126.23 198.335 128.482 187.759 131.431C182.23 132.973 176.251 136.063 169.824 140.702L168.976 125.764Z" fill="#997659"/>
<path fill-rule="evenodd" clip-rule="evenodd" d="M99.3972 105.969C111.267 105.844 127.096 103.337 143.985 92.6164L150.617 107.408C138.968 118.969 122.587 128.468 108.264 128.066C96.977 127.749 91.2083 114.096 99.3972 105.969Z" fill="#71AC8A"/>
<path fill-rule="evenodd" clip-rule="evenodd" d="M115.38 129.69C127.981 132.833 149.113 129.127 178.775 118.572C186.132 133.793 189.533 144.644 188.978 151.126C163.533 164.418 141.724 170.344 123.756 170.735C124.327 181.397 123.029 191.541 118.67 200.811C109.708 219.867 57.2304 202.219 39.5859 205.692C28.5364 169.808 49.901 155.224 49.9182 132.263C49.937 107.118 70.1271 68.4143 73.0977 68.4143H100.188C101.682 87.6178 109.206 108.782 115.38 129.69Z" fill="#85C7A1"/>
</g>
<defs>
<filter id="filter0_d" x="0" y="0" width="238.414" height="338" filterUnits="userSpaceOnUse" color-interpolation-filters="sRGB">
<feFlood flood-opacity="0" result="BackgroundImageFix"/>
<feColorMatrix in="SourceAlpha" type="matrix" values="0 0 0 0 0 0 0 0 0 0 0 0 0 0 0 0 0 0 127 0"/>
<feOffset dx="1" dy="1"/>
<feGaussianBlur stdDeviation="2"/>
<feColorMatrix type="matrix" values="0 0 0 0 0 0 0 0 0 0 0 0 0 0 0 0 0 0 0.25 0"/>
<feBlend mode="normal" in2="BackgroundImageFix" result="effect1_dropShadow"/>
<feBlend mode="normal" in="SourceGraphic" in2="effect1_dropShadow" result="shape"/>
</filter>
</defs>
</svg>
