<svg width="18" height="19" viewBox="0 0 18 19" fill="none" xmlns="http://www.w3.org/2000/svg">
<rect x="0.5" y="2.60364" width="17" height="15" stroke="black"/>
<path d="M2.5 16.6036L6 14.6036V13.1036C5.83333 12.7703 5.5 11.8036 5.5 10.6036C5.5 9.10364 6 8.10364 7.5 8.10364C9 8.10364 9.5 9.10364 9.5 10.6036C9.5 11.8036 9.16667 12.7703 9 13.1036V14.6036L12 16.6036" stroke="black"/>
<rect x="12" y="7.10364" width="5" height="1" fill="black"/>
<rect x="12" y="9.10364" width="5" height="1" fill="black"/>
<path d="M7 5.10364L7 0.103638L8 0.103638L8 5.10364L7 5.10364Z" fill="black"/>
<rect x="11" y="5.10364" width="5" height="1" transform="rotate(-90 11 5.10364)" fill="black"/>
<rect x="12" y="11.1036" width="5" height="1" fill="black"/>
<rect y="5.10364" width="18" height="1" fill="black"/>
</svg>
