<svg width="320" height="457" viewBox="0 0 320 457" fill="none" xmlns="http://www.w3.org/2000/svg">
<g opacity="0.2" filter="url(#filter0_d)">
<path fill-rule="evenodd" clip-rule="evenodd" d="M212.854 69.935C218.27 62.9039 221.936 54.2872 221.324 44.6319C219.559 16.8124 184.543 22.9323 177.732 36.9733C170.921 51.0142 171.73 86.6301 180.533 89.1396C184.044 90.1404 191.522 87.6888 199.134 82.6149L194.356 119.996H222.566L212.854 69.935Z" fill="#B28B67"/>
<path fill-rule="evenodd" clip-rule="evenodd" d="M165.234 17.5084C165.819 15.2375 167.39 13.2931 169.507 12.7163C170.021 12.5763 170.551 12.5198 171.079 12.5434C171.269 12.5518 171.322 12.6122 171.411 12.4656C171.476 12.3569 171.478 12.0914 171.505 11.9637C171.589 11.5666 171.694 11.1744 171.824 10.7924C172.267 9.48936 173.012 8.33618 173.909 7.36475C175.588 5.54739 177.857 4.29313 180.214 4.06622C181.503 3.94209 182.784 4.17387 184.003 4.63794C184.635 4.87818 185.247 5.17731 185.843 5.50804C186.023 5.60758 186.605 6.09513 186.785 6.06354C186.984 6.02871 187.384 5.48183 187.546 5.34455C189.546 3.64765 192.015 2.98048 194.506 3.00043C197.318 3.02385 200.025 3.17922 202.37 5.07478C202.867 5.47611 203.339 5.91551 203.789 6.37813C204.026 6.62169 204.256 6.87438 204.475 7.13758C204.607 7.29637 204.736 7.45874 204.86 7.62547C205.07 7.90847 205.036 8.00144 205.33 7.80398C206.459 7.04572 207.766 6.6911 209.084 6.87012C209.866 6.97649 210.627 7.23618 211.349 7.57801C211.595 7.69437 212.165 8.15852 212.427 8.16305C212.687 8.16749 213.248 7.73722 213.516 7.62786C214.964 7.03701 216.523 6.89138 218.045 7.16439C219.614 7.44611 221.155 8.13846 222.484 9.09521C223.124 9.55544 223.682 10.0653 224.13 10.7497C224.323 11.0451 224.498 11.3577 224.717 11.6316C224.846 11.792 225.1 11.9566 225.169 12.1597C225.128 12.0381 226.885 11.2889 227.051 11.241C227.934 10.9858 228.834 11.0375 229.699 11.3524C231.325 11.9444 232.724 13.2721 233.874 14.6333C234.465 15.3325 234.981 16.1054 235.42 16.9288C235.63 17.3232 235.822 17.7289 235.998 18.1432C236.084 18.3439 236.14 18.5949 236.252 18.7758C236.397 19.0087 236.494 19.0132 236.757 19.1148C238.088 19.6306 239.301 20.5036 240.226 21.6834C241.16 22.8769 241.767 24.3468 242.021 25.8946C242.036 25.9858 242.045 26.3636 242.093 26.413C242.16 26.4809 242.427 26.4509 242.528 26.464C242.879 26.5095 243.227 26.5772 243.571 26.6672C244.204 26.833 244.821 27.077 245.404 27.3961C247.677 28.64 249.303 30.9721 250.099 33.5962C250.933 36.35 250.919 39.5051 249.921 42.2076C249.76 42.644 249.568 43.0677 249.343 43.4686C249.204 43.7146 249.16 43.7152 249.249 43.9733C249.35 44.2605 249.532 44.5396 249.651 44.8202C250.039 45.736 250.31 46.7072 250.481 47.6992C250.762 49.3265 250.902 51.0365 250.624 52.6761C250.496 53.4375 250.272 54.1817 249.929 54.8598C249.755 55.2056 249.551 55.5335 249.32 55.8368C249.201 55.9943 249.074 56.1447 248.941 56.2888C248.865 56.3711 248.765 56.4432 248.701 56.5351C248.543 56.7593 248.51 56.575 248.591 56.9042C248.705 57.3644 248.963 57.8185 249.121 58.2663C249.283 58.7279 249.43 59.1957 249.565 59.6681C249.837 60.6248 250.068 61.5988 250.212 62.5895C250.488 64.4916 250.44 66.5184 249.626 68.2641C249.278 69.0109 248.779 69.6659 248.174 70.1755C247.878 70.4248 247.557 70.6396 247.22 70.8161C247.048 70.9069 246.827 70.9459 246.748 71.1309C246.663 71.3298 246.789 71.7248 246.818 71.9472C247.068 73.8818 247.193 75.9131 246.673 77.809C246.194 79.5553 245.14 81.0971 243.771 82.1178C241.115 84.098 237.535 83.9863 234.744 82.4011C234.016 81.9878 233.336 81.4747 232.729 80.8696C231.183 83.1711 228.002 83.0983 225.742 82.4425C222.927 81.6255 220.669 79.4608 219.367 76.6166C217.588 79.0123 213.853 78.235 212.619 75.636C212.317 74.9999 212.138 74.2989 212.05 73.5894C212.004 73.2164 212.033 72.8401 211.998 72.47C211.954 71.9984 211.669 71.5401 211.505 71.0839C211.187 70.1961 210.989 69.2789 210.98 68.3212C210.976 67.8212 211.033 67.3339 211.076 66.8379C211.115 66.3915 211.003 65.9754 210.939 65.5348C211.661 65.6662 212.54 65.4509 213.221 65.2194C213.888 64.9922 214.513 64.3939 214.984 63.8474C216.078 62.5785 216.746 60.915 217.203 59.2595C218.207 55.6258 217.795 51.2662 214.491 49.2719C212.951 48.3429 208.339 48.346 206.506 48.8051C204.578 49.2879 202.392 53.9927 202.284 54.4349C202.218 54.7086 202.251 55.0474 202.024 55.2297C201.524 55.6307 200.7 54.9349 200.332 54.5914C199.696 53.9987 199.242 53.2101 198.849 52.4106C197.993 50.6691 197.303 48.8014 196.816 46.8949C196.44 45.425 196.2 43.9092 195.709 42.4768C195.22 41.0515 194.449 39.7775 193.251 38.9701C191.948 38.0917 190.454 37.6291 189.024 37.0771C187.605 36.53 186.212 35.8614 185.113 34.7006C184.871 34.4454 184.636 34.1741 184.442 33.8736C184.288 33.6364 184.136 33.1822 183.902 33.0318C183.538 32.7978 183.007 33.4063 182.693 33.6273C181.141 34.7174 179.846 36.2379 178.802 37.8988C177.763 39.5507 176.911 41.1403 176.218 42.9848C175.705 44.3529 175.384 46.1049 174.481 47.2261C174.077 47.7267 171.079 48.0296 170.108 47.5925C169.137 47.1555 168.049 46.0206 167.723 45.3094C167.39 44.5814 167.31 43.7818 167.452 42.9848C167.536 42.516 167.707 42.078 167.801 41.6176C167.88 41.2307 167.952 40.8651 168.122 40.5107C168.445 39.8392 168.996 39.3565 169.661 39.1547C168.969 38.4493 168.395 37.6054 167.999 36.6621C167.587 35.682 167.237 34.4902 167.138 33.4145C167.058 32.5408 167.182 31.6357 167.615 30.8848C168.068 30.0972 168.872 29.5834 169.567 29.092C168.505 28.173 167.596 27.0552 166.849 25.8177C165.395 23.4111 164.496 20.3776 165.234 17.5084Z" fill="#191847"/>
<path fill-rule="evenodd" clip-rule="evenodd" d="M301.318 282.488H166.146C155.76 282.488 147.34 291.8 147.34 303.287V422.883C147.34 434.37 155.76 443.682 166.146 443.682H301.318C311.704 443.682 320.124 434.37 320.124 422.883V303.287C320.124 291.8 311.704 282.488 301.318 282.488ZM282.511 318.887C285.108 318.887 287.213 321.215 287.213 324.087V402.084C287.213 404.955 285.108 407.283 282.511 407.283H184.953C182.356 407.283 180.251 404.955 180.251 402.084V324.087C180.251 321.215 182.356 318.887 184.953 318.887H282.511Z" fill="#C5CFD6"/>
<path fill-rule="evenodd" clip-rule="evenodd" d="M63.2876 439.339C78.3478 402.475 89.2392 370.375 93.6109 353.439C101.096 324.441 106.791 298.923 108.23 289.394C111.662 266.67 81.8284 265.347 77.8849 276.64C71.9164 293.733 61.4967 349.894 48.9767 434.721L63.2876 439.339ZM237.977 323.649C224.159 317.608 175.77 298.705 152.433 293.357C145.726 291.82 139.226 290.393 133.115 289.102C114.95 285.267 105.539 321.509 123.034 324.294C166.603 331.228 228.369 338.39 233.655 339.194C241.063 340.32 246.661 327.445 237.977 323.649Z" fill="#B28B67"/>
<path fill-rule="evenodd" clip-rule="evenodd" d="M121.965 279.129L196.706 237.051V227.89H187.817C115.509 248.268 78.5598 261.327 76.9691 267.068C76.952 267.13 76.9363 267.191 76.9221 267.253C76.8857 267.306 76.8499 267.359 76.8147 267.413C62.4848 289.209 53.9027 395.619 51.0859 403.586L78.5452 408.117C89.0492 365.039 122.655 335.029 121.763 283.436C122.004 281.922 122.065 280.487 121.965 279.129Z" fill="#1F28CF"/>
<path fill-rule="evenodd" clip-rule="evenodd" d="M190.497 304.12C197.335 302.606 203.633 301.255 209.022 300.209C243.829 293.457 253.98 272.85 247.978 227.89H183.846C173.37 231.218 118.926 256.469 90.6776 269.9C71.9816 278.789 77.8752 310.833 88.4628 319.172C88.5202 319.683 88.7108 320.031 89.0501 320.186C146.004 346.293 191.059 332.595 206.11 336.972L213.072 312.684L190.497 304.12Z" fill="#2B44FF"/>
<path fill-rule="evenodd" clip-rule="evenodd" d="M233.252 319.788C236.983 320.183 239.632 320.802 241.199 321.647C243.104 322.675 245.729 324.526 249.074 327.199C247.996 329.643 238.309 351.61 220.012 393.098C214.138 392.049 211.811 389.57 213.029 385.66C214.248 381.751 215.232 378.487 215.979 375.869L217.14 338.58C217.162 337.862 217.706 337.301 218.355 337.325C218.366 337.326 218.377 337.326 218.388 337.327L223.575 337.688C226.522 335.049 228.467 332.663 229.408 330.527C230.174 328.792 230.597 326.054 230.678 322.314L230.678 322.314C230.709 320.878 231.786 319.742 233.084 319.777C233.14 319.778 233.196 319.782 233.252 319.788Z" fill="#E4E4E4"/>
<path fill-rule="evenodd" clip-rule="evenodd" d="M70.1418 432.504C71.4568 436.386 72.1143 439.291 72.1143 441.218C72.1143 443.563 71.7612 446.983 71.0549 451.481C68.5961 451.481 46.4978 451.481 4.76009 451.481C3.03732 445.182 4.0318 441.781 7.74353 441.279C11.4553 440.777 14.5387 440.323 16.9937 439.918L47.8069 424.726C48.3998 424.434 49.0948 424.729 49.3591 425.384C49.3636 425.395 49.368 425.407 49.3722 425.418L51.3529 430.732C54.789 432.505 57.5811 433.391 59.7294 433.391C61.4748 433.391 63.8853 432.612 66.9607 431.053L66.9607 431.053C68.1409 430.454 69.5363 431.027 70.0773 432.333C70.1007 432.389 70.1221 432.446 70.1418 432.504Z" fill="#E4E4E4"/>
<path fill-rule="evenodd" clip-rule="evenodd" d="M128.481 207.25L95.1847 243.174C85.4966 247.744 77.5586 252.791 71.3706 258.313C69.979 260.17 68.4641 263.727 75.0114 262.135C81.5587 260.543 88.5102 259.195 89.7407 261.55C90.9713 263.905 87.3454 267.513 89.6196 270.595C91.1357 272.65 96.2346 266.114 104.916 250.989L139.54 228.413L128.481 207.25ZM276.272 212.316L251.71 212.423C266.876 266.57 275.064 295.301 276.272 298.614C278.992 306.069 273.237 317.422 270.775 323.523C278.792 327.49 277.938 312.798 288.05 318.001C297.28 322.75 304.301 331.356 314.965 324.078C316.276 323.184 317.713 319.815 314.242 317.182C305.594 310.624 293.131 299.146 291.447 295.368C289.151 290.215 284.092 262.531 276.272 212.316Z" fill="#B28B67"/>
<path fill-rule="evenodd" clip-rule="evenodd" d="M206.468 98.3274L196.304 96.3993C178.805 144.745 148.254 188.673 104.651 228.183L137.6 272.455C181.198 216.197 208.072 158.155 206.468 98.3274Z" fill="#191847"/>
<path fill-rule="evenodd" clip-rule="evenodd" d="M250.776 239.591H160.27C181.238 183.206 191.722 135.307 191.722 95.8953L219.024 91.3965C240.48 129.561 246.539 176.549 250.776 239.591Z" fill="#DDE3E9"/>
<path fill-rule="evenodd" clip-rule="evenodd" d="M219.601 91.4173C219.597 91.4102 219.594 91.4031 219.59 91.396H217.808C215.676 91.4772 212.428 91.6235 208.064 91.835L201.467 112.685C200.769 138.106 196.694 189.337 189.242 266.377H248.57C248.415 271.698 248.158 277.068 247.801 282.488H291.915C285.316 200.155 261.219 136.457 219.623 91.396L219.601 91.4173V91.4173Z" fill="#2F3676"/>
<path fill-rule="evenodd" clip-rule="evenodd" d="M244.651 198.294C242.963 231.462 238.735 254.327 231.969 266.888H248.555C249.281 243.025 247.98 220.16 244.651 198.294V198.294Z" fill="black" fill-opacity="0.1"/>
<path fill-rule="evenodd" clip-rule="evenodd" d="M235.365 226.59L206.111 211.549V226.59H235.365Z" fill="white" fill-opacity="0.2"/>
</g>
<defs>
<filter id="filter0_d" x="0.940918" y="0" width="324.183" height="456.481" filterUnits="userSpaceOnUse" color-interpolation-filters="sRGB">
<feFlood flood-opacity="0" result="BackgroundImageFix"/>
<feColorMatrix in="SourceAlpha" type="matrix" values="0 0 0 0 0 0 0 0 0 0 0 0 0 0 0 0 0 0 127 0"/>
<feOffset dx="1" dy="1"/>
<feGaussianBlur stdDeviation="2"/>
<feColorMatrix type="matrix" values="0 0 0 0 0 0 0 0 0 0 0 0 0 0 0 0 0 0 0.25 0"/>
<feBlend mode="normal" in2="BackgroundImageFix" result="effect1_dropShadow"/>
<feBlend mode="normal" in="SourceGraphic" in2="effect1_dropShadow" result="shape"/>
</filter>
</defs>
</svg>
