<svg width="105" height="18" viewBox="0 0 105 18" fill="none" xmlns="http://www.w3.org/2000/svg">
<path d="M9 0L11.0206 6.21885H17.5595L12.2694 10.0623L14.2901 16.2812L9 12.4377L3.70993 16.2812L5.73056 10.0623L0.440492 6.21885H6.97937L9 0Z" fill="#EB663C"/>
<path d="M31 0L33.0206 6.21885H39.5595L34.2694 10.0623L36.2901 16.2812L31 12.4377L25.7099 16.2812L27.7306 10.0623L22.4405 6.21885H28.9794L31 0Z" fill="#EB663C"/>
<path d="M53 0L55.0206 6.21885H61.5595L56.2694 10.0623L58.2901 16.2812L53 12.4377L47.7099 16.2812L49.7306 10.0623L44.4405 6.21885H50.9794L53 0Z" fill="#EB663C"/>
<path d="M74.5 0L76.4084 6.21885H82.584L77.5878 10.0623L79.4962 16.2812L74.5 12.4377L69.5038 16.2812L71.4122 10.0623L66.416 6.21885H72.5916L74.5 0Z" fill="#EB663C"/>
<path d="M96 0L98.0206 6.21885H104.56L99.2694 10.0623L101.29 16.2812L96 12.4377L90.7099 16.2812L92.7306 10.0623L87.4405 6.21885H93.9794L96 0Z" fill="#EB663C"/>
</svg>
