<svg width="165" height="28" viewBox="0 0 165 28" fill="none" xmlns="http://www.w3.org/2000/svg">
<path d="M14 0L17.1432 9.67376H27.3148L19.0858 15.6525L22.229 25.3262L14 19.3475L5.77101 25.3262L8.9142 15.6525L0.685208 9.67376H10.8568L14 0Z" fill="white"/>
<path d="M49 0L52.1432 9.67376H62.3148L54.0858 15.6525L57.229 25.3262L49 19.3475L40.771 25.3262L43.9142 15.6525L35.6852 9.67376H45.8568L49 0Z" fill="white"/>
<path d="M83 0L86.1432 9.67376H96.3148L88.0858 15.6525L91.229 25.3262L83 19.3475L74.771 25.3262L77.9142 15.6525L69.6852 9.67376H79.8568L83 0Z" fill="white"/>
<path d="M117 0L119.919 9.67376H129.364L121.723 15.6525L124.641 25.3262L117 19.3475L109.359 25.3262L112.277 15.6525L104.636 9.67376H114.081L117 0Z" fill="white"/>
<path d="M151 0L154.143 9.67376H164.315L156.086 15.6525L159.229 25.3262L151 19.3475L142.771 25.3262L145.914 15.6525L137.685 9.67376H147.857L151 0Z" fill="white"/>
</svg>
