<svg width="350" height="427" viewBox="0 0 350 427" fill="none" xmlns="http://www.w3.org/2000/svg">
<path fill-rule="evenodd" clip-rule="evenodd" d="M174.38 4.1588L6.64536 59.879C5.87943 60.1335 5.34373 60.7847 5.28687 61.5898C-1.20596 153.52 23.6441 351.392 174.101 422.442C174.418 422.639 174.793 422.747 175.182 422.744C175.571 422.747 175.946 422.639 176.263 422.442C326.72 351.392 351.57 153.52 345.077 61.5898C345.02 60.7847 344.484 60.1335 343.719 59.879L175.983 4.1588C175.736 4.05409 175.464 3.99809 175.182 4.00005C174.9 3.99809 174.628 4.05409 174.38 4.1588Z" fill="white"/>
<path d="M6.64536 59.879L5.54198 56.5575L5.54196 56.5575L6.64536 59.879ZM174.38 4.1588L175.484 7.48033L175.615 7.43663L175.743 7.38267L174.38 4.1588ZM5.28687 61.5898L8.77817 61.8364L8.77818 61.8364L5.28687 61.5898ZM174.101 422.442L175.946 419.468L175.777 419.363L175.596 419.277L174.101 422.442ZM175.182 422.744L175.215 419.244L175.182 419.243L175.149 419.244L175.182 422.744ZM176.263 422.442L174.768 419.277L174.587 419.363L174.417 419.468L176.263 422.442ZM345.077 61.5898L348.568 61.3432V61.3431L345.077 61.5898ZM343.719 59.879L344.822 56.5575V56.5575L343.719 59.879ZM175.983 4.1588L174.621 7.38267L174.748 7.43663L174.88 7.48033L175.983 4.1588ZM175.182 4.00005L175.158 7.49996L175.182 7.50013L175.206 7.49996L175.182 4.00005ZM7.74874 63.2005L175.484 7.48033L173.277 0.837272L5.54198 56.5575L7.74874 63.2005ZM8.77818 61.8364C8.72907 62.5318 8.24379 63.0361 7.74876 63.2005L5.54196 56.5575C3.51507 57.2308 1.95838 59.0377 1.79557 61.3433L8.77818 61.8364ZM175.596 419.277C101.508 384.291 58.1686 318.009 34.1448 248.7C10.1164 179.378 5.55934 107.411 8.77817 61.8364L1.79557 61.3432C-1.47843 107.699 3.14317 180.634 27.5309 250.992C51.9232 321.364 96.237 389.543 172.607 425.607L175.596 419.277ZM172.256 425.416C173.131 425.959 174.156 426.253 175.215 426.243L175.149 419.244C175.43 419.241 175.705 419.319 175.946 419.468L172.256 425.416ZM174.417 419.468C174.659 419.318 174.934 419.241 175.215 419.244L175.149 426.243C176.207 426.253 177.232 425.959 178.108 425.416L174.417 419.468ZM177.757 425.607C254.127 389.543 298.441 321.364 322.833 250.992C347.221 180.634 351.842 107.699 348.568 61.3432L341.586 61.8364C344.805 107.411 340.248 179.378 316.219 248.7C292.195 318.009 248.855 384.291 174.768 419.277L177.757 425.607ZM348.568 61.3431C348.405 59.0377 346.849 57.2308 344.822 56.5575L342.615 63.2005C342.12 63.0361 341.635 62.5318 341.586 61.8365L348.568 61.3431ZM344.822 56.5575L177.087 0.837272L174.88 7.48033L342.615 63.2005L344.822 56.5575ZM175.206 7.49996C175.007 7.50135 174.808 7.46161 174.621 7.38267L177.346 0.934933C176.664 0.646565 175.92 0.494822 175.158 0.500135L175.206 7.49996ZM175.206 0.500135C174.444 0.494822 173.7 0.646555 173.018 0.934932L175.743 7.38267C175.556 7.46162 175.357 7.50135 175.158 7.49996L175.206 0.500135Z" fill="#24415C"/>
</svg>
