<svg width="27" height="16" viewBox="0 0 27 16" fill="none" xmlns="http://www.w3.org/2000/svg">
<path d="M26.6156 10.5424C26.6156 7.22566 23.3966 6.39648 21.7871 6.39648C21.0805 2.01371 16.6053 1.7768 14.8388 2.60598C14.2583 1.2803 13.1194 0 10.0103 0C5.29956 0 4.51444 4.02742 4.71072 6.04112C3.14048 6.08061 0 7.03613 0 10.5424C0 14.0486 2.74792 15.0041 4.12188 15.0436H22.6115C23.9462 14.9251 26.6156 13.859 26.6156 10.5424Z" fill="white"/>
<rect x="8" y="9.70703" width="1" height="4.68004" transform="rotate(-45 8 9.70703)" fill="#219653"/>
<rect x="16.699" y="6.25098" width="1" height="8.49218" transform="rotate(45 16.699 6.25098)" fill="#219653"/>
</svg>
